<svg width="25" height="24" viewBox="0 0 25 24" fill="none" xmlns="http://www.w3.org/2000/svg">
<path d="M21.875 3H20V2.25C20 1.85218 19.842 1.47064 19.5607 1.18934C19.2794 0.908035 18.8978 0.75 18.5 0.75C18.1022 0.75 17.7206 0.908035 17.4393 1.18934C17.158 1.47064 17 1.85218 17 2.25V3H14V2.25C14 1.85218 13.842 1.47064 13.5607 1.18934C13.2794 0.908035 12.8978 0.75 12.5 0.75C12.1022 0.75 11.7206 0.908035 11.4393 1.18934C11.158 1.47064 11 1.85218 11 2.25V3H8V2.25C8 1.85218 7.84196 1.47064 7.56066 1.18934C7.27936 0.908035 6.89782 0.75 6.5 0.75C6.10218 0.75 5.72064 0.908035 5.43934 1.18934C5.15804 1.47064 5 1.85218 5 2.25V3H3.125C2.62772 3 2.15081 3.19754 1.79917 3.54917C1.44754 3.90081 1.25 4.37772 1.25 4.875V19.875C1.25 20.3723 1.44754 20.8492 1.79917 21.2008C2.15081 21.5525 2.62772 21.75 3.125 21.75H13.625C13.7245 21.75 13.8198 21.7105 13.8902 21.6402C13.9605 21.5698 14 21.4745 14 21.375C14 21.2755 13.9605 21.1802 13.8902 21.1098C13.8198 21.0395 13.7245 21 13.625 21H3.125C2.82691 20.9991 2.54127 20.8803 2.33049 20.6695C2.1197 20.4587 2.00089 20.1731 2 19.875V8.25H23V14.625C23 14.7245 23.0395 14.8198 23.1098 14.8902C23.1802 14.9605 23.2755 15 23.375 15C23.4745 15 23.5698 14.9605 23.6402 14.8902C23.7105 14.8198 23.75 14.7245 23.75 14.625V4.875C23.75 4.37772 23.5525 3.90081 23.2008 3.54917C22.8492 3.19754 22.3723 3 21.875 3ZM17.75 2.25C17.75 2.05109 17.829 1.86032 17.9697 1.71967C18.1103 1.57902 18.3011 1.5 18.5 1.5C18.6989 1.5 18.8897 1.57902 19.0303 1.71967C19.171 1.86032 19.25 2.05109 19.25 2.25V4.5C19.25 4.69891 19.171 4.88968 19.0303 5.03033C18.8897 5.17098 18.6989 5.25 18.5 5.25C18.3011 5.25 18.1103 5.17098 17.9697 5.03033C17.829 4.88968 17.75 4.69891 17.75 4.5V2.25ZM11.75 2.25C11.75 2.05109 11.829 1.86032 11.9697 1.71967C12.1103 1.57902 12.3011 1.5 12.5 1.5C12.6989 1.5 12.8897 1.57902 13.0303 1.71967C13.171 1.86032 13.25 2.05109 13.25 2.25V4.5C13.25 4.69891 13.171 4.88968 13.0303 5.03033C12.8897 5.17098 12.6989 5.25 12.5 5.25C12.3011 5.25 12.1103 5.17098 11.9697 5.03033C11.829 4.88968 11.75 4.69891 11.75 4.5V2.25ZM5.75 2.25C5.75 2.05109 5.82902 1.86032 5.96967 1.71967C6.11032 1.57902 6.30109 1.5 6.5 1.5C6.69891 1.5 6.88968 1.57902 7.03033 1.71967C7.17098 1.86032 7.25 2.05109 7.25 2.25V4.5C7.25 4.69891 7.17098 4.88968 7.03033 5.03033C6.88968 5.17098 6.69891 5.25 6.5 5.25C6.30109 5.25 6.11032 5.17098 5.96967 5.03033C5.82902 4.88968 5.75 4.69891 5.75 4.5V2.25ZM23 7.5H2V4.875C2.00089 4.57691 2.1197 4.29127 2.33049 4.08049C2.54127 3.8697 2.82691 3.75089 3.125 3.75H5V4.5C5 4.89782 5.15804 5.27936 5.43934 5.56066C5.72064 5.84196 6.10218 6 6.5 6C6.89782 6 7.27936 5.84196 7.56066 5.56066C7.84196 5.27936 8 4.89782 8 4.5V3.75H11V4.5C11 4.89782 11.158 5.27936 11.4393 5.56066C11.7206 5.84196 12.1022 6 12.5 6C12.8978 6 13.2794 5.84196 13.5607 5.56066C13.842 5.27936 14 4.89782 14 4.5V3.75H17V4.5C17 4.89782 17.158 5.27936 17.4393 5.56066C17.7206 5.84196 18.1022 6 18.5 6C18.8978 6 19.2794 5.84196 19.5607 5.56066C19.842 5.27936 20 4.89782 20 4.5V3.75H21.875C22.1731 3.75089 22.4587 3.8697 22.6695 4.08049C22.8803 4.29127 22.9991 4.57691 23 4.875V7.5Z" fill="black"/>
<path d="M11.75 10.875C11.75 10.6761 11.671 10.4853 11.5303 10.3447C11.3897 10.204 11.1989 10.125 11 10.125H9.5C9.30109 10.125 9.11032 10.204 8.96967 10.3447C8.82902 10.4853 8.75 10.6761 8.75 10.875V12C8.75 12.1989 8.82902 12.3897 8.96967 12.5303C9.11032 12.671 9.30109 12.75 9.5 12.75H11C11.1989 12.75 11.3897 12.671 11.5303 12.5303C11.671 12.3897 11.75 12.1989 11.75 12V10.875ZM9.5 12V10.875H11V12H9.5Z" fill="black"/>
<path d="M7.25 10.875C7.25 10.6761 7.17098 10.4853 7.03033 10.3447C6.88968 10.204 6.69891 10.125 6.5 10.125H5C4.80109 10.125 4.61032 10.204 4.46967 10.3447C4.32902 10.4853 4.25 10.6761 4.25 10.875V12C4.25 12.1989 4.32902 12.3897 4.46967 12.5303C4.61032 12.671 4.80109 12.75 5 12.75H6.5C6.69891 12.75 6.88968 12.671 7.03033 12.5303C7.17098 12.3897 7.25 12.1989 7.25 12V10.875ZM5 12V10.875H6.5V12H5Z" fill="black"/>
<path d="M20 12.75C20.1989 12.75 20.3897 12.671 20.5303 12.5303C20.671 12.3897 20.75 12.1989 20.75 12V10.875C20.75 10.6761 20.671 10.4853 20.5303 10.3447C20.3897 10.204 20.1989 10.125 20 10.125H18.5C18.3011 10.125 18.1103 10.204 17.9697 10.3447C17.829 10.4853 17.75 10.6761 17.75 10.875V12C17.75 12.1989 17.829 12.3897 17.9697 12.5303C18.1103 12.671 18.3011 12.75 18.5 12.75H20ZM18.5 10.875H20V12H18.5V10.875Z" fill="black"/>
<path d="M11.75 14.25C11.75 14.0511 11.671 13.8603 11.5303 13.7197C11.3897 13.579 11.1989 13.5 11 13.5H9.5C9.30109 13.5 9.11032 13.579 8.96967 13.7197C8.82902 13.8603 8.75 14.0511 8.75 14.25V15.375C8.75 15.5739 8.82902 15.7647 8.96967 15.9053C9.11032 16.046 9.30109 16.125 9.5 16.125H11C11.1989 16.125 11.3897 16.046 11.5303 15.9053C11.671 15.7647 11.75 15.5739 11.75 15.375V14.25ZM9.5 15.375V14.25H11V15.375H9.5Z" fill="black"/>
<path d="M7.25 14.25C7.25 14.0511 7.17098 13.8603 7.03033 13.7197C6.88968 13.579 6.69891 13.5 6.5 13.5H5C4.80109 13.5 4.61032 13.579 4.46967 13.7197C4.32902 13.8603 4.25 14.0511 4.25 14.25V15.375C4.25 15.5739 4.32902 15.7647 4.46967 15.9053C4.61032 16.046 4.80109 16.125 5 16.125H6.5C6.69891 16.125 6.88968 16.046 7.03033 15.9053C7.17098 15.7647 7.25 15.5739 7.25 15.375V14.25ZM5 15.375V14.25H6.5V15.375H5Z" fill="black"/>
<path d="M11 16.875H9.5C9.30109 16.875 9.11032 16.954 8.96967 17.0947C8.82902 17.2353 8.75 17.4261 8.75 17.625V18.75C8.75 18.9489 8.82902 19.1397 8.96967 19.2803C9.11032 19.421 9.30109 19.5 9.5 19.5H11C11.1989 19.5 11.3897 19.421 11.5303 19.2803C11.671 19.1397 11.75 18.9489 11.75 18.75V17.625C11.75 17.4261 11.671 17.2353 11.5303 17.0947C11.3897 16.954 11.1989 16.875 11 16.875ZM9.5 18.75V17.625H11V18.75H9.5Z" fill="black"/>
<path d="M14 12.75H15.5C15.6989 12.75 15.8897 12.671 16.0303 12.5303C16.171 12.3897 16.25 12.1989 16.25 12V10.875C16.25 10.6761 16.171 10.4853 16.0303 10.3447C15.8897 10.204 15.6989 10.125 15.5 10.125H14C13.8011 10.125 13.6103 10.204 13.4697 10.3447C13.329 10.4853 13.25 10.6761 13.25 10.875V12C13.25 12.1989 13.329 12.3897 13.4697 12.5303C13.6103 12.671 13.8011 12.75 14 12.75ZM14 10.875H15.5V12H14V10.875Z" fill="black"/>
<path d="M13.25 15.375C13.25 15.5739 13.329 15.7647 13.4697 15.9053C13.6103 16.046 13.8011 16.125 14 16.125C14.0995 16.125 14.1948 16.0855 14.2652 16.0152C14.3355 15.9448 14.375 15.8495 14.375 15.75C14.375 15.6505 14.3355 15.5552 14.2652 15.4848C14.1948 15.4145 14.0995 15.375 14 15.375V14.25H15.5C15.5995 14.25 15.6948 14.2105 15.7652 14.1402C15.8355 14.0698 15.875 13.9745 15.875 13.875C15.875 13.7755 15.8355 13.6802 15.7652 13.6098C15.6948 13.5395 15.5995 13.5 15.5 13.5H14C13.8011 13.5 13.6103 13.579 13.4697 13.7197C13.329 13.8603 13.25 14.0511 13.25 14.25V15.375Z" fill="black"/>
<path d="M6.5 16.875H5C4.80109 16.875 4.61032 16.954 4.46967 17.0947C4.32902 17.2353 4.25 17.4261 4.25 17.625V18.75C4.25 18.9489 4.32902 19.1397 4.46967 19.2803C4.61032 19.421 4.80109 19.5 5 19.5H6.5C6.69891 19.5 6.88968 19.421 7.03033 19.2803C7.17098 19.1397 7.25 18.9489 7.25 18.75V17.625C7.25 17.4261 7.17098 17.2353 7.03033 17.0947C6.88968 16.954 6.69891 16.875 6.5 16.875ZM5 18.75V17.625H6.5V18.75H5Z" fill="black"/>
<path d="M18.875 13.5C17.9108 13.5 16.9683 13.7859 16.1666 14.3216C15.3649 14.8573 14.7401 15.6186 14.3711 16.5094C14.0021 17.4002 13.9056 18.3804 14.0937 19.3261C14.2818 20.2717 14.7461 21.1404 15.4279 21.8221C16.1096 22.5039 16.9783 22.9682 17.9239 23.1563C18.8696 23.3444 19.8498 23.2479 20.7406 22.8789C21.6314 22.5099 22.3927 21.8851 22.9284 21.0834C23.4641 20.2817 23.75 19.3392 23.75 18.375C23.7485 17.0825 23.2344 15.8434 22.3205 14.9295C21.4066 14.0156 20.1675 13.5015 18.875 13.5ZM18.875 22.5C18.0592 22.5 17.2616 22.2581 16.5833 21.8048C15.9049 21.3516 15.3762 20.7073 15.064 19.9536C14.7518 19.1998 14.6701 18.3704 14.8293 17.5703C14.9884 16.7701 15.3813 16.0351 15.9582 15.4582C16.5351 14.8813 17.2701 14.4884 18.0703 14.3293C18.8704 14.1701 19.6998 14.2518 20.4536 14.564C21.2073 14.8762 21.8516 15.4049 22.3048 16.0833C22.7581 16.7616 23 17.5592 23 18.375C22.9987 19.4686 22.5637 20.5171 21.7904 21.2904C21.0171 22.0637 19.9686 22.4987 18.875 22.5Z" fill="black"/>
<path d="M21.042 16.803L18.1252 19.7198L16.7996 18.3938C16.7289 18.3255 16.6341 18.2877 16.5358 18.2885C16.4375 18.2894 16.3434 18.3288 16.2739 18.3983C16.2044 18.4679 16.1649 18.5619 16.1641 18.6602C16.1632 18.7586 16.201 18.8533 16.2693 18.924L17.8601 20.5151C17.9304 20.5854 18.0258 20.6249 18.1252 20.6249C18.2246 20.6249 18.32 20.5854 18.3903 20.5151L21.5722 17.3333C21.6405 17.2625 21.6783 17.1678 21.6775 17.0695C21.6766 16.9712 21.6372 16.8771 21.5676 16.8076C21.4981 16.7381 21.4041 16.6986 21.3057 16.6978C21.2074 16.6969 21.1127 16.7347 21.042 16.803Z" fill="black"/>
</svg>
