<svg width="64" height="64" viewBox="0 0 64 64" fill="none" xmlns="http://www.w3.org/2000/svg">
<path d="M41.6331 28.003C41.9262 23.2841 38.3385 19.221 33.6196 18.9278C28.9007 18.6347 24.8376 22.2225 24.5445 26.9414C24.2513 31.6604 27.8391 35.7235 32.558 36.0166C37.2768 36.3098 41.3399 32.722 41.6331 28.003Z" stroke="#ED4C5C" stroke-width="1.28" stroke-miterlimit="10" stroke-linecap="round" stroke-linejoin="round"/>
<path d="M33.1135 8.94678V14.152" stroke="#ED4C5C" stroke-width="1.28" stroke-miterlimit="10" stroke-linecap="round" stroke-linejoin="round"/>
<path d="M33.1135 40.4526V43.8139" stroke="#ED4C5C" stroke-width="1.28" stroke-miterlimit="10" stroke-linecap="round" stroke-linejoin="round"/>
<path d="M51.4506 27.3022H46.2454" stroke="#ED4C5C" stroke-width="1.28" stroke-miterlimit="10" stroke-linecap="round" stroke-linejoin="round"/>
<path d="M19.9449 27.3022H14.7397" stroke="#ED4C5C" stroke-width="1.28" stroke-miterlimit="10" stroke-linecap="round" stroke-linejoin="round"/>
<path d="M46.0746 14.323L42.3938 18.0036" stroke="#ED4C5C" stroke-width="1.28" stroke-miterlimit="10" stroke-linecap="round" stroke-linejoin="round"/>
<path d="M23.7964 36.6011L20.1157 40.2817" stroke="#ED4C5C" stroke-width="1.28" stroke-miterlimit="10" stroke-linecap="round" stroke-linejoin="round"/>
<path d="M20.1157 14.323L23.7964 18.0036" stroke="#ED4C5C" stroke-width="1.28" stroke-miterlimit="10" stroke-linecap="round" stroke-linejoin="round"/>
<path d="M42.3938 36.6011L46.0746 40.2817" stroke="#ED4C5C" stroke-width="1.28" stroke-miterlimit="10" stroke-linecap="round" stroke-linejoin="round"/>
<path d="M9.40796 45.6719C11.9287 45.0369 14.6216 44.6926 17.4177 44.6926C24.0199 44.6926 30.0483 46.6052 34.6001 49.7494" stroke="#ED4C5C" stroke-width="1.28" stroke-miterlimit="10" stroke-linecap="round" stroke-linejoin="round"/>
<path d="M9.40796 51.2528C11.8407 50.3769 14.5566 49.8911 17.4177 49.8911C22.2297 49.8911 26.621 51.2681 29.9679 53.5364" stroke="#ED4C5C" stroke-width="1.28" stroke-miterlimit="10" stroke-linecap="round" stroke-linejoin="round"/>
<path d="M54.5922 46.721C52.6491 46.2941 50.5881 46.0684 48.4683 46.0684C43.2325 46.0684 38.4188 47.4472 34.6011 49.7486C32.8198 50.8232 31.2594 52.104 29.9689 53.5368C29.5321 54.0226 29.1249 54.5281 28.7568 55.0531" stroke="#ED4C5C" stroke-width="1.28" stroke-miterlimit="10" stroke-linecap="round" stroke-linejoin="round"/>
<path d="M34.7139 55.0532C37.9083 51.9128 42.8791 49.9009 48.4682 49.9009C50.6224 49.9009 52.6882 50.2051 54.5921 50.7498" stroke="#ED4C5C" stroke-width="1.28" stroke-miterlimit="10" stroke-linecap="round" stroke-linejoin="round"/>
</svg>
