<svg width="64" height="64" viewBox="0 0 64 64" fill="none" xmlns="http://www.w3.org/2000/svg">
<path d="M32.1416 5.83569V20.3532" stroke="#ED4C5C" stroke-width="1.28" stroke-miterlimit="10" stroke-linecap="round" stroke-linejoin="round"/>
<path d="M32.1416 47.801V58.1642" stroke="#ED4C5C" stroke-width="1.28" stroke-miterlimit="10" stroke-linecap="round" stroke-linejoin="round"/>
<path d="M35.9323 9.24268V25.4247" stroke="#ED4C5C" stroke-width="1.28" stroke-miterlimit="10" stroke-linecap="round" stroke-linejoin="round"/>
<path d="M33.7269 31.0579L34.2405 30.9526C35.4429 30.7061 36.4242 31.8986 35.9693 33.0386C35.4295 34.3917 34.5604 35.6024 33.7269 36.262" stroke="#ED4C5C" stroke-width="1.28" stroke-miterlimit="10" stroke-linecap="round" stroke-linejoin="round"/>
<path d="M33.7269 36.2619L34.2424 36.1562C35.4441 35.9099 36.4244 37.1006 35.9718 38.2408C35.4322 39.6002 34.5616 40.8187 33.7269 41.4793" stroke="#ED4C5C" stroke-width="1.28" stroke-miterlimit="10" stroke-linecap="round" stroke-linejoin="round"/>
<path d="M33.7269 41.4793L34.1115 41.4004C35.3055 41.1557 36.324 42.3473 35.8449 43.4681C34.5998 46.3806 32.1416 47.925 32.1416 47.925" stroke="#ED4C5C" stroke-width="1.28" stroke-miterlimit="10" stroke-linecap="round" stroke-linejoin="round"/>
<path d="M28.3508 9.24268V25.4247" stroke="#ED4C5C" stroke-width="1.28" stroke-miterlimit="10" stroke-linecap="round" stroke-linejoin="round"/>
<path d="M32.1426 20.3545C32.1426 20.3545 34.7634 23.0718 33.8691 26.2078" stroke="#ED4C5C" stroke-width="1.28" stroke-miterlimit="10" stroke-linecap="round" stroke-linejoin="round"/>
<path d="M30.5563 31.0577L30.0438 30.9526C28.841 30.706 27.8592 31.899 28.3143 33.0395C28.8542 34.3921 29.7231 35.6024 30.5563 36.2618" stroke="#ED4C5C" stroke-width="1.28" stroke-miterlimit="10" stroke-linecap="round" stroke-linejoin="round"/>
<path d="M33.8691 26.2076C35.1551 25.7581 36.338 27.0812 35.7619 28.3158C35.2226 29.4714 34.4621 30.4788 33.7283 31.0588" stroke="#ED4C5C" stroke-width="1.28" stroke-miterlimit="10" stroke-linecap="round" stroke-linejoin="round"/>
<path d="M30.5538 31.0591C29.8202 30.4792 29.0599 29.4721 28.5206 28.3169C27.9442 27.082 29.1275 25.7584 30.414 26.2079" stroke="#ED4C5C" stroke-width="1.28" stroke-miterlimit="10" stroke-linecap="round" stroke-linejoin="round"/>
<path d="M30.5563 36.2619L30.0419 36.1565C28.8397 35.91 27.8589 37.1013 28.3119 38.2418C28.8515 39.6009 29.7218 40.8189 30.5563 41.4793" stroke="#ED4C5C" stroke-width="1.28" stroke-miterlimit="10" stroke-linecap="round" stroke-linejoin="round"/>
<path d="M30.5563 41.4793L30.1728 41.4007C28.9783 41.1558 27.9593 42.348 28.4388 43.4691C29.6839 46.381 32.1416 47.925 32.1416 47.925" stroke="#ED4C5C" stroke-width="1.28" stroke-miterlimit="10" stroke-linecap="round" stroke-linejoin="round"/>
<path d="M30.4142 26.2078C29.5199 23.0718 32.1406 20.3545 32.1406 20.3545" stroke="#ED4C5C" stroke-width="1.28" stroke-miterlimit="10" stroke-linecap="round" stroke-linejoin="round"/>
<path d="M17.7169 10.8276V24.0651" stroke="#ED4C5C" stroke-width="1.28" stroke-miterlimit="10" stroke-linecap="round" stroke-linejoin="round"/>
<path d="M17.7328 46.2957L17.686 54.8361" stroke="#ED4C5C" stroke-width="1.28" stroke-miterlimit="10" stroke-linecap="round" stroke-linejoin="round"/>
<path d="M21.5076 14.2349V29.1369" stroke="#ED4C5C" stroke-width="1.28" stroke-miterlimit="10" stroke-linecap="round" stroke-linejoin="round"/>
<path d="M19.3021 34.7698L19.8157 34.6645C21.0181 34.418 21.9993 35.6105 21.5445 36.7505C21.0047 38.1036 20.1356 39.3143 19.3021 39.9739" stroke="#ED4C5C" stroke-width="1.28" stroke-miterlimit="10" stroke-linecap="round" stroke-linejoin="round"/>
<path d="M19.3313 39.9787L19.7161 39.901C20.9109 39.6598 21.9258 40.8545 21.4433 41.9738C20.1896 44.8825 17.7267 46.4196 17.7267 46.4196" stroke="#ED4C5C" stroke-width="1.28" stroke-miterlimit="10" stroke-linecap="round" stroke-linejoin="round"/>
<path d="M13.9261 14.2349V29.1369" stroke="#ED4C5C" stroke-width="1.28" stroke-miterlimit="10" stroke-linecap="round" stroke-linejoin="round"/>
<path d="M17.7179 24.0664C17.7179 24.0664 20.3387 26.7837 19.4444 29.9198" stroke="#ED4C5C" stroke-width="1.28" stroke-miterlimit="10" stroke-linecap="round" stroke-linejoin="round"/>
<path d="M16.1316 34.7698L15.618 34.6645C14.4156 34.418 13.4344 35.6105 13.8892 36.7505C14.429 38.1036 15.2982 39.3143 16.1316 39.9739" stroke="#ED4C5C" stroke-width="1.28" stroke-miterlimit="10" stroke-linecap="round" stroke-linejoin="round"/>
<path d="M19.4444 29.9198C20.7305 29.4703 21.9134 30.7934 21.3372 32.0279C20.7979 33.1835 20.0374 34.1909 19.3036 34.771" stroke="#ED4C5C" stroke-width="1.28" stroke-miterlimit="10" stroke-linecap="round" stroke-linejoin="round"/>
<path d="M16.1292 34.7709C15.3953 34.1908 14.6347 33.1832 14.0953 32.0274C13.5193 30.793 14.702 29.4699 15.988 29.9192L15.9894 29.9197" stroke="#ED4C5C" stroke-width="1.28" stroke-miterlimit="10" stroke-linecap="round" stroke-linejoin="round"/>
<path d="M16.1607 39.9692L15.7764 39.8892C14.583 39.6408 13.561 40.8294 14.0368 41.9516C15.2731 44.8678 17.7267 46.4196 17.7267 46.4196" stroke="#ED4C5C" stroke-width="1.28" stroke-miterlimit="10" stroke-linecap="round" stroke-linejoin="round"/>
<path d="M15.9894 29.9198C15.0951 26.7837 17.7158 24.0664 17.7158 24.0664" stroke="#ED4C5C" stroke-width="1.28" stroke-miterlimit="10" stroke-linecap="round" stroke-linejoin="round"/>
<path d="M46.4335 10.8276V24.0651" stroke="#ED4C5C" stroke-width="1.28" stroke-miterlimit="10" stroke-linecap="round" stroke-linejoin="round"/>
<path d="M46.4494 46.2957L46.4027 54.8361" stroke="#ED4C5C" stroke-width="1.28" stroke-miterlimit="10" stroke-linecap="round" stroke-linejoin="round"/>
<path d="M50.2242 14.2349V29.1369" stroke="#ED4C5C" stroke-width="1.28" stroke-miterlimit="10" stroke-linecap="round" stroke-linejoin="round"/>
<path d="M48.0188 34.7697C49.4783 34.4705 50.6574 35.9725 50.013 37.3158C49.4758 38.4355 48.7342 39.4077 48.0188 39.9738" stroke="#ED4C5C" stroke-width="1.28" stroke-miterlimit="10" stroke-linecap="round" stroke-linejoin="round"/>
<path d="M48.048 39.9787C49.4391 39.6979 50.5885 41.1334 49.9603 42.4059C48.6627 45.0346 46.4434 46.4196 46.4434 46.4196" stroke="#ED4C5C" stroke-width="1.28" stroke-miterlimit="10" stroke-linecap="round" stroke-linejoin="round"/>
<path d="M42.6428 14.2349V29.1369" stroke="#ED4C5C" stroke-width="1.28" stroke-miterlimit="10" stroke-linecap="round" stroke-linejoin="round"/>
<path d="M46.4346 24.0664C46.4346 24.0664 49.0553 26.7837 48.161 29.9198" stroke="#ED4C5C" stroke-width="1.28" stroke-miterlimit="10" stroke-linecap="round" stroke-linejoin="round"/>
<path d="M44.8483 34.7698L44.7031 34.74C43.3032 34.453 42.1936 35.8835 42.791 37.1816C43.3322 38.3576 44.1045 39.3852 44.8483 39.9739" stroke="#ED4C5C" stroke-width="1.28" stroke-miterlimit="10" stroke-linecap="round" stroke-linejoin="round"/>
<path d="M48.1611 29.9198C49.4471 29.4703 50.63 30.7934 50.0539 32.0279C49.5146 33.1835 48.7541 34.1909 48.0203 34.771" stroke="#ED4C5C" stroke-width="1.28" stroke-miterlimit="10" stroke-linecap="round" stroke-linejoin="round"/>
<path d="M44.8458 34.7709C44.1119 34.1908 43.3513 33.1832 42.812 32.0274C42.236 30.793 43.4186 29.4699 44.7047 29.9192L44.706 29.9197" stroke="#ED4C5C" stroke-width="1.28" stroke-miterlimit="10" stroke-linecap="round" stroke-linejoin="round"/>
<path d="M44.8774 39.9691C43.488 39.68 42.33 41.1085 42.9505 42.3848C44.2323 45.0212 46.4433 46.4195 46.4433 46.4195" stroke="#ED4C5C" stroke-width="1.28" stroke-miterlimit="10" stroke-linecap="round" stroke-linejoin="round"/>
<path d="M44.706 29.9198C43.8117 26.7837 46.4325 24.0664 46.4325 24.0664" stroke="#ED4C5C" stroke-width="1.28" stroke-miterlimit="10" stroke-linecap="round" stroke-linejoin="round"/>
</svg>
