<svg width="64" height="64" viewBox="0 0 64 64" fill="none" xmlns="http://www.w3.org/2000/svg">
<path d="M19.979 12.0063V14.8037" stroke="#ED4C5C" stroke-width="1.28" stroke-miterlimit="10" stroke-linecap="round" stroke-linejoin="round"/>
<path d="M20.565 48.2579C25.2153 48.2579 28.9851 44.4881 28.9851 39.8378C28.9851 35.1875 25.2153 31.4177 20.565 31.4177C15.9147 31.4177 12.1449 35.1875 12.1449 39.8378C12.1449 44.4881 15.9147 48.2579 20.565 48.2579Z" stroke="#ED4C5C" stroke-width="1.28" stroke-miterlimit="10" stroke-linecap="round" stroke-linejoin="round"/>
<path d="M20.565 42.0335C21.7776 42.0335 22.7606 41.0505 22.7606 39.8379C22.7606 38.6253 21.7776 37.6423 20.565 37.6423C19.3524 37.6423 18.3694 38.6253 18.3694 39.8379C18.3694 41.0505 19.3524 42.0335 20.565 42.0335Z" stroke="#ED4C5C" stroke-width="1.28" stroke-miterlimit="10" stroke-linecap="round" stroke-linejoin="round"/>
<path d="M20.5649 51.9934C27.2783 51.9934 32.7206 46.5512 32.7206 39.8378C32.7206 33.1244 27.2783 27.6821 20.5649 27.6821C13.8516 27.6821 8.4093 33.1244 8.4093 39.8378C8.4093 46.5512 13.8516 51.9934 20.5649 51.9934Z" stroke="#ED4C5C" stroke-width="1.28" stroke-miterlimit="10" stroke-linecap="round" stroke-linejoin="round"/>
<path d="M48.4465 48.1706C50.4807 48.1706 52.1297 46.5216 52.1297 44.4874C52.1297 42.4532 50.4807 40.8042 48.4465 40.8042C46.4123 40.8042 44.7633 42.4532 44.7633 44.4874C44.7633 46.5216 46.4123 48.1706 48.4465 48.1706Z" stroke="#ED4C5C" stroke-width="1.28" stroke-miterlimit="10" stroke-linecap="round" stroke-linejoin="round"/>
<path d="M48.4464 51.6317C52.3921 51.6317 55.5908 48.433 55.5908 44.4873C55.5908 40.5416 52.3921 37.343 48.4464 37.343C44.5007 37.343 41.3021 40.5416 41.3021 44.4873C41.3021 48.433 44.5007 51.6317 48.4464 51.6317Z" stroke="#ED4C5C" stroke-width="1.28" stroke-miterlimit="10" stroke-linecap="round" stroke-linejoin="round"/>
<path d="M41.0734 43.5142H32.3021" stroke="#ED4C5C" stroke-width="1.28" stroke-miterlimit="10" stroke-linecap="round" stroke-linejoin="round"/>
<path d="M11.7953 30.7722L13.342 19.5423C13.6885 17.0033 15.8589 15.1133 18.4198 15.1133H26.5596C30.2955 15.1133 33.7291 17.1829 35.4711 20.4873L40.2087 29.4649H48.9342C51.4574 29.4649 53.5427 31.4211 53.7065 33.938L53.8262 37.5637L52.8344 38.8492" stroke="#ED4C5C" stroke-width="1.28" stroke-miterlimit="10" stroke-linecap="round" stroke-linejoin="round"/>
<path d="M15.8588 28.4532L16.4692 21.3216C16.5751 19.8326 17.8142 18.6787 19.3073 18.6787H27.301C29.3038 18.6787 31.131 19.8215 32.0072 21.6221L37.5752 31.2402L32.7206 34.0323" stroke="#ED4C5C" stroke-width="1.28" stroke-miterlimit="10" stroke-linecap="round" stroke-linejoin="round"/>
<path d="M50.9219 33.2197H48.4465" stroke="#ED4C5C" stroke-width="1.28" stroke-miterlimit="10" stroke-linecap="round" stroke-linejoin="round"/>
<path d="M35.0309 32.6459L30.9412 27.0583" stroke="#ED4C5C" stroke-width="1.28" stroke-miterlimit="10" stroke-linecap="round" stroke-linejoin="round"/>
<path d="M32.3021 26.0227L29.467 28.0034" stroke="#ED4C5C" stroke-width="1.28" stroke-miterlimit="10" stroke-linecap="round" stroke-linejoin="round"/>
<path d="M50.6666 25.1848L50.1171 25.5113C49.3849 25.9464 48.9358 26.735 48.9353 27.5868L48.9341 29.4649" stroke="#ED4C5C" stroke-width="1.28" stroke-miterlimit="10" stroke-linecap="round" stroke-linejoin="round"/>
</svg>
