<svg width="18" height="18" viewBox="0 0 18 18" fill="none" xmlns="http://www.w3.org/2000/svg">
<path fill-rule="evenodd" clip-rule="evenodd" d="M9 16.5C13.1421 16.5 16.5 13.1421 16.5 9C16.5 4.85786 13.1421 1.5 9 1.5C4.85786 1.5 1.5 4.85786 1.5 9C1.5 13.1421 4.85786 16.5 9 16.5Z" stroke="#181818" stroke-width="0.75"/>
<path fill-rule="evenodd" clip-rule="evenodd" d="M9 15.75C9 15.75 12 13.2955 12 9C12 4.70455 9 2.25 9 2.25C9 2.25 6 4.70455 6 9C6 13.2955 9 15.75 9 15.75Z" stroke="#181818" stroke-width="0.75"/>
<path d="M1.875 6.75H16.125" stroke="#181818" stroke-width="0.75" stroke-linecap="round"/>
<path d="M1.875 11.25H16.125" stroke="#181818" stroke-width="0.75" stroke-linecap="round"/>
</svg>
