<svg width="80" height="53" viewBox="0 0 80 53" fill="none" xmlns="http://www.w3.org/2000/svg">
<g clip-path="url(#clip0_2001_81)">
<path d="M46.7675 17.884C47.3228 17.401 47.6538 17.1214 48.3791 16.496C49.2575 15.7558 50.0151 14.9651 50.5957 14.3014C49.3972 9.74514 45.2661 6.38574 40.3528 6.38574C34.5013 6.38574 29.7576 11.1496 29.7576 17.0264C29.7576 19.8249 30.8349 22.3695 32.5937 24.269L34.1362 24.0364L41.0962 21.7223C41.0962 21.7223 46.2241 18.3194 46.7675 17.884ZM50.9418 16.7822L50.4657 17.2004L47.8839 19.5609L41.3339 24.167L40.1152 24.7641C37.9294 25.7793 36.2366 26.2582 35.4357 26.4509C36.9057 27.2262 38.5778 27.6668 40.353 27.6668C46.2044 27.6668 50.9482 22.9029 50.9482 17.0264C50.9482 16.9445 50.9438 16.8638 50.9421 16.7824L50.9418 16.7822Z" fill="#E6EEF4"/>
<path style="mix-blend-mode:screen" d="M48.17 14.8146C48.1215 15.4086 47.9932 15.9797 47.7952 16.518C47.6969 16.787 47.5815 17.0475 47.4489 17.2981L46.3701 18.2271C46.5967 18.0783 46.8148 17.928 47.0256 17.7777C47.1154 17.7118 47.2037 17.6444 47.2922 17.5801C46.0309 19.7286 43.5709 21.1715 40.7645 21.2573C40.7487 21.2573 40.733 21.2586 40.7175 21.2586C40.4083 21.2659 40.0932 21.2573 39.7768 21.2314C39.2552 21.1884 38.7506 21.1011 38.2647 20.9722C34.7271 20.0376 32.2544 16.9573 32.5336 13.529C32.8513 9.62999 36.6085 6.75711 40.9271 7.11219C45.2456 7.46573 48.4882 10.9153 48.1702 14.8144L48.17 14.8146Z" fill="url(#paint0_linear_2001_81)"/>
<path d="M46.976 17.8123C46.9739 17.8138 46.971 17.8158 46.9682 17.8177C46.973 17.8142 46.976 17.8123 46.976 17.8123ZM46.699 15.328C46.0041 15.5069 45.7724 14.9523 45.7724 14.9523L45.5764 14.2457L43.8038 16.2675C43.8038 16.2675 43.4118 16.5897 43.0467 16.3481C42.6815 16.1064 42.824 15.5787 42.824 15.5787L43.5722 11.3471C43.5722 11.3471 43.1269 11.5798 42.637 11.8124C42.147 12.045 41.8798 11.6065 41.8798 11.6065L40.4367 8.85107C40.4367 8.85107 39.3677 11.025 39.1094 11.4992C38.8512 11.9735 38.3523 11.7944 38.3523 11.7944L37.3458 11.2934L38.1119 15.8201C38.0051 16.7951 37.1559 16.3002 37.1559 16.3002L35.3387 14.177C35.3387 14.177 35.2911 14.4632 35.1486 14.9405C35.0062 15.4178 34.436 15.37 34.436 15.37L32.3457 14.9405C32.3457 14.9405 32.8802 16.8012 33.0227 17.3975C33.1652 17.9937 32.6901 18.161 32.6901 18.161L32.0726 18.4353C32.0726 18.4353 35.7187 21.5248 36.1108 21.8945C36.5028 22.2643 36.2532 22.8608 36.2532 22.8608C37.6469 22.5248 38.9917 22.0363 40.2171 21.4986C40.667 21.3014 41.1006 21.0973 41.5149 20.8916C41.8346 20.7582 42.1346 20.6254 42.416 20.4946C43.1894 20.1352 43.8222 19.7893 44.3326 19.4777C44.9025 19.1803 45.6973 18.6701 46.2661 18.2926C46.4667 18.1792 46.6078 18.0758 46.6957 18.0043C46.8198 17.92 46.9092 17.8586 46.9502 17.8303C46.9155 17.8537 46.8607 17.8873 46.8073 17.9053L46.808 17.9046C46.806 17.9055 46.8045 17.906 46.8028 17.9068C46.7934 17.9097 46.7842 17.9123 46.7752 17.9141C46.7365 17.915 46.7606 17.8555 46.7606 17.8555L48.2048 16.3838L48.5612 14.9166C48.5612 14.9166 47.3943 15.1492 46.6994 15.328H46.699Z" fill="#B21010"/>
<path fill-rule="evenodd" clip-rule="evenodd" d="M35.9108 22.9504L36.0386 22.666C36.0386 22.666 36.1748 22.308 35.9108 22.0695C35.6468 21.831 31.5848 18.3599 31.5848 18.3599L32.4399 17.9543C32.4399 17.9543 32.826 17.8231 32.6892 17.3043C32.5526 16.7855 31.9646 14.5727 31.9646 14.5727L34.3637 15.1036C34.3637 15.1036 34.7734 15.1813 34.8626 14.9247C34.9517 14.6684 35.2011 13.6425 35.2011 13.6425L37.3211 16.1295C37.3211 16.1295 37.6537 16.3025 37.8141 15.9685C37.9389 15.5809 36.9708 10.8453 36.9708 10.8453L38.3071 11.5671C38.3071 11.5671 38.6635 11.6746 38.8236 11.4479C38.984 11.2212 40.4389 8.32861 40.4389 8.32861L42.0957 11.4776C42.0957 11.4776 42.2915 11.6983 42.642 11.5313C42.9925 11.3643 43.9188 10.8275 43.9188 10.8275L43.0279 15.6397C43.0279 15.6397 43.0115 15.9461 43.114 16.0804C43.2165 16.2145 43.5327 16.2057 43.7643 15.9283C43.9959 15.6509 45.6706 13.6829 45.6706 13.6829L45.9868 14.7922C45.9868 14.7922 46.0803 15.1769 46.4767 15.0964C46.8731 15.0158 48.8953 14.5776 48.8953 14.5776L48.3787 16.4965L46.3657 18.2321C46.3657 18.2321 46.1367 18.3895 45.7193 18.65C44.2295 19.5805 40.3408 21.8294 35.9104 22.9506L35.9108 22.9504Z" fill="url(#paint1_linear_2001_81)"/>
<path d="M46.9732 17.8383C46.9697 17.8407 46.9658 17.8435 46.9616 17.8462C46.9662 17.8431 46.9699 17.8405 46.9732 17.8383ZM46.7068 15.3466C46.0119 15.5254 45.7803 14.9709 45.7803 14.9709L45.5843 14.2642L43.8117 16.2861C43.8117 16.2861 43.4197 16.6082 43.0545 16.3666C42.6894 16.125 42.8319 15.5972 42.8319 15.5972L43.5801 11.3657C43.5801 11.3657 43.1347 11.5983 42.6448 11.8309C42.1549 12.0636 41.8877 11.6251 41.8877 11.6251L40.4446 8.86963C40.4446 8.86963 39.3756 11.0435 39.1173 11.5178C38.859 11.992 38.3602 11.8129 38.3602 11.8129L37.3537 11.3119L38.1198 15.8386C38.0129 16.8136 37.1638 16.3188 37.1638 16.3188L35.3466 14.1956C35.3466 14.1956 35.299 14.4817 35.1565 14.959C35.014 15.4363 34.4439 15.3885 34.4439 15.3885L32.3536 14.959C32.3536 14.959 32.8881 16.8198 33.0306 17.416C33.173 18.0123 32.698 18.1795 32.698 18.1795L32.0804 18.4538C32.0804 18.4538 35.7266 21.5433 36.1186 21.9131C36.5106 22.2829 36.2611 22.8793 36.2611 22.8793C37.6548 22.5434 38.9995 22.0549 40.225 21.5174C40.6749 21.3201 41.1084 21.116 41.5228 20.9104C41.8424 20.777 42.1425 20.6442 42.4239 20.5134C43.1972 20.154 43.8301 19.8081 44.3405 19.4962C44.9104 19.1989 45.7052 18.6887 46.2739 18.3112C46.4745 18.1977 46.6157 18.0944 46.7036 18.0228C46.8277 17.9386 46.917 17.8771 46.9581 17.8488C46.9234 17.8723 46.8685 17.9059 46.8152 17.9239L46.8159 17.9232C46.8139 17.9241 46.8124 17.9245 46.8106 17.9254C46.8012 17.9282 46.7921 17.9309 46.7831 17.9326C46.7444 17.9335 46.7685 17.874 46.7685 17.874L48.2126 16.4024L48.569 14.9351C48.569 14.9351 47.4021 15.1677 46.7073 15.3466H46.7068ZM46.9839 17.8308C46.9815 17.8326 46.9782 17.8348 46.9749 17.8372C46.9806 17.8332 46.9839 17.8308 46.9839 17.8308Z" fill="url(#paint2_linear_2001_81)"/>
<g style="mix-blend-mode:screen" opacity="0.4">
<path d="M48.0076 14.7685C48.0133 15.3582 47.9449 15.945 47.7952 16.5175C47.7382 16.7409 47.6683 16.9628 47.5857 17.1803L47.4489 17.2977L46.3701 18.2266C46.3672 18.2295 46.3657 18.231 46.3629 18.2323C46.3557 18.2381 46.3487 18.2424 46.3415 18.2466C46.3358 18.251 46.3286 18.2552 46.3229 18.2596C46.3072 18.2697 46.2914 18.2811 46.2744 18.2909C46.2744 18.2925 46.2728 18.2925 46.2715 18.2938C46.2202 18.3296 46.1476 18.3767 46.055 18.4369C45.9453 18.5071 45.8341 18.5786 45.72 18.6487C45.3594 18.8734 44.8606 19.174 44.2476 19.519C44.1963 19.5491 44.1449 19.5776 44.0923 19.6048C44.0396 19.6349 43.9867 19.6634 43.9312 19.6935C43.0532 20.1758 41.9757 20.7256 40.7643 21.2566C40.6316 21.3152 40.4964 21.374 40.3596 21.4313C40.3467 21.4298 40.3325 21.4285 40.3196 21.4269C39.6341 21.3655 38.9427 21.2152 38.2644 20.9718C37.7756 20.7986 37.2938 20.5768 36.8249 20.3049C34.6229 19.0266 33.2119 16.9468 32.8142 14.7597L34.3635 15.1032C34.3635 15.1032 34.7739 15.1804 34.8624 14.9243C34.9522 14.668 35.2015 13.6418 35.2015 13.6418L37.3209 16.1295C37.3209 16.1295 37.6543 16.3014 37.8141 15.9678C37.9395 15.5798 36.9717 10.8449 36.9717 10.8449L38.3073 11.5662C38.3073 11.5662 38.6637 11.6735 38.8247 11.4475C38.9845 11.2199 40.4396 8.32861 40.4396 8.32861L42.0957 11.4776C42.0957 11.4776 42.2924 11.6979 42.6431 11.5304C42.9938 11.363 43.9201 10.8262 43.9201 10.8262L43.0292 15.6384C43.0292 15.6384 43.0121 15.9448 43.1146 16.0793C43.2173 16.2138 43.5337 16.2053 43.7645 15.9276C43.9968 15.65 45.6715 13.6818 45.6715 13.6818L45.9879 14.7911C45.9879 14.7911 46.0806 15.1762 46.4767 15.0959C46.6961 15.0516 47.4102 14.8969 48.0074 14.768L48.0076 14.7685Z" fill="url(#paint3_radial_2001_81)"/>
</g>
<path d="M50.4322 15.0285C46.9111 19.4917 37.5062 24.7118 30.816 24.7429C26.9592 24.7429 26.1848 21.1547 27.9353 19.166C27.9353 19.166 26.0472 25.9733 37.5917 22.3478C38.2396 22.1365 39.0883 21.8333 40.0708 21.4205C40.1836 21.3733 40.2987 21.3249 40.4165 21.2738C41.2713 20.9047 42.2155 20.4548 43.2103 19.9153C43.2574 19.8905 43.3032 19.8644 43.3503 19.8383C43.396 19.8147 43.4407 19.7899 43.4853 19.7638C43.6711 19.6619 43.8571 19.5563 44.0453 19.4481C44.2943 19.3013 44.5335 19.1548 44.7652 19.0081C44.8644 18.9471 44.9611 18.885 45.0564 18.8242C45.1197 18.7819 45.1827 18.7409 45.2447 18.6999C45.2458 18.6986 45.2471 18.6986 45.2471 18.6975C45.2619 18.6887 45.2756 18.6788 45.2893 18.6702C45.2942 18.6664 45.3005 18.6628 45.3054 18.659C45.3117 18.6552 45.3178 18.6515 45.3241 18.6466C45.3265 18.6453 45.3279 18.6441 45.3303 18.6416C45.5273 18.5124 45.7169 18.3819 45.9002 18.2514C45.9782 18.1942 46.055 18.1357 46.1319 18.0799C54.5728 11.761 51.0047 9.38207 50.8796 9.30127C50.996 9.35101 53.884 10.6523 50.4322 15.0285Z" fill="url(#paint4_linear_2001_81)"/>
<path d="M54.2215 11.5889C54.2215 11.5889 51.4662 17.4336 43.2708 22.0379C35.6454 26.1413 28.7567 26.5945 28.7567 26.5945C28.7567 26.5945 37.7358 26.9285 44.9335 22.1571C51.8934 17.553 54.2213 11.5889 54.2213 11.5889H54.2215Z" fill="url(#paint5_linear_2001_81)"/>
<path d="M40.3528 6.61053C45.2148 6.61053 49.2934 9.97256 50.4135 14.5074C50.96 13.9188 51.4652 13.3131 51.8354 12.7478C50.1059 8.06441 45.618 4.72607 40.3528 4.72607C33.5908 4.72607 28.1091 10.2313 28.1091 17.0223C28.1091 19.476 28.8283 21.7588 30.0618 23.677C30.713 23.7404 31.4714 23.7356 32.3549 23.643C30.8755 21.8437 29.9857 19.5379 29.9857 17.0223C29.9857 11.2722 34.6273 6.61074 40.3528 6.61074V6.61053ZM52.38 14.7253C52.3373 14.7766 51.4937 15.7885 50.7094 16.6139C50.7146 16.7497 50.7197 16.8851 50.7197 17.0223C50.7197 22.7724 46.0784 27.4336 40.3528 27.4336C38.7155 27.4336 37.1677 27.0511 35.7909 26.3724C35.3934 26.4696 34.4492 26.6807 33.0295 26.8773C35.0717 28.4104 37.6067 29.3183 40.3526 29.3183C47.1146 29.3183 52.5963 23.8133 52.5963 17.0221C52.5963 16.2369 52.52 15.4697 52.3797 14.7253H52.38Z" fill="url(#paint6_linear_2001_81)"/>
<path d="M40.0683 27.4295C40.1629 27.4321 40.2577 27.4337 40.3528 27.4337C40.4992 27.4337 40.6445 27.4286 40.7894 27.4227L40.6812 24.5479C40.3858 24.6111 40.1721 24.7429 40.1721 24.7429L40.0681 27.4295H40.0683Z" fill="#B92525"/>
<path d="M44.7987 22.4641C44.1338 22.8883 43.4553 23.2699 42.7713 23.6138L42.7704 23.6147L45.2167 23.8583L44.7989 22.4639H44.7987V22.4641Z" fill="url(#paint7_linear_2001_81)"/>
<path d="M43.0176 23.4883L44.9825 23.6841L44.6458 22.5601C44.11 22.8958 43.5659 23.2048 43.0176 23.4886V23.4883Z" fill="url(#paint8_linear_2001_81)"/>
<g style="mix-blend-mode:screen" opacity="0.8">
<path d="M45.9875 14.7917L45.6713 13.6824C45.6713 13.6824 43.9966 15.6505 43.765 15.9278C43.5333 16.2052 43.2171 16.214 43.1147 16.0799C43.0122 15.9458 43.0286 15.6393 43.0286 15.6393L43.9194 10.8271C43.9194 10.8271 42.9929 11.3639 42.6427 11.5309C42.2922 11.6979 42.0964 11.4771 42.0964 11.4771L41.2013 9.77589C40.7188 9.72476 40.2241 9.71313 39.722 9.74407C39.3295 10.5133 38.9065 11.3309 38.8243 11.4473C38.6639 11.6739 38.3077 11.5664 38.3077 11.5664L36.9715 10.8446C36.9715 10.8446 37.9395 15.5802 37.8148 15.9678C37.6544 16.3018 37.3218 16.1289 37.3218 16.1289L35.2017 13.6418C35.2017 13.6418 34.9524 14.6677 34.8633 14.9241C34.7741 15.1806 34.3644 15.1029 34.3644 15.1029L32.4945 14.6892C32.3846 14.9636 32.2937 15.2447 32.2201 15.5311C32.3969 16.1967 32.6136 17.0139 32.6899 17.3036C32.8265 17.8224 32.4406 17.9536 32.4406 17.9536L32.0759 18.1266C32.1139 18.3949 32.1666 18.6581 32.2354 18.9148C33.3937 19.9052 35.7139 21.8904 35.9115 22.0688C36.1755 22.3074 36.0393 22.6653 36.0393 22.6653L35.9115 22.9497C35.9408 22.9422 35.9696 22.9343 35.9989 22.9269C36.8397 19.6063 40.4571 17.0293 44.88 16.8814C45.8422 16.8491 46.7733 16.9356 47.6535 17.1219L48.1283 16.7124C48.1239 16.5103 48.111 16.3068 48.0876 16.1027C48.0367 15.6566 47.9399 15.2262 47.806 14.8124C47.2593 14.9302 46.6725 15.056 46.4778 15.0955C46.0814 15.176 45.9879 14.7913 45.9879 14.7913L45.9875 14.7917Z" fill="url(#paint9_radial_2001_81)"/>
</g>
</g>
<path d="M40.2418 33.7896C49.2964 33.7896 56.6366 26.4494 56.6366 17.3948C56.6366 8.34021 49.2964 1 40.2418 1C31.1872 1 23.847 8.34021 23.847 17.3948C23.847 26.4494 31.1872 33.7896 40.2418 33.7896Z" stroke="#A61620" stroke-width="1.49044" stroke-dasharray="2.98 2.98"/>
<path d="M13.6151 50.5311C14.1219 50.5311 14.5392 50.4413 14.8671 50.2617C15.195 50.0672 15.4484 49.8352 15.6272 49.5659C15.821 49.2965 15.9477 49.0047 16.0073 48.6905C16.0818 48.3613 16.1191 48.062 16.1191 47.7927C16.1191 47.5233 16.0818 47.2315 16.0073 46.9173C15.9477 46.588 15.821 46.2888 15.6272 46.0194C15.4484 45.7501 15.195 45.5256 14.8671 45.346C14.5392 45.1515 14.1219 45.0542 13.6151 45.0542H4.5831C4.06144 45.0542 3.63667 45.1515 3.30877 45.346C2.99578 45.5256 2.7424 45.7501 2.54865 46.0194C2.3698 46.2888 2.24311 46.588 2.16859 46.9173C2.10897 47.2315 2.07916 47.5233 2.07916 47.7927C2.07916 48.062 2.10897 48.3613 2.16859 48.6905C2.24311 49.0047 2.3698 49.2965 2.54865 49.5659C2.7424 49.8352 2.99578 50.0672 3.30877 50.2617C3.63667 50.4413 4.06144 50.5311 4.5831 50.5311H13.6151ZM18.1982 47.7927C18.1982 48.3613 18.1014 48.9374 17.9076 49.521C17.7288 50.0896 17.4605 50.6134 17.1028 51.0922C16.7451 51.5561 16.3128 51.9377 15.8061 52.237C15.2993 52.5362 14.7255 52.6859 14.0846 52.6859H3.89004C3.27896 52.656 2.73495 52.4914 2.25801 52.1921C1.78107 51.8778 1.3712 51.4888 1.0284 51.0249C0.700507 50.561 0.447132 50.0447 0.268279 49.4761C0.0894267 48.9075 0 48.3463 0 47.7927C0 47.224 0.0894267 46.6554 0.268279 46.0868C0.462036 45.5032 0.737768 44.9794 1.09547 44.5155C1.45318 44.0367 1.8854 43.6476 2.39215 43.3483C2.8989 43.0491 3.47272 42.8994 4.11361 42.8994H14.3082C14.9193 42.9293 15.4633 43.1014 15.9402 43.4157C16.4172 43.715 16.8196 44.0965 17.1475 44.5604C17.4903 45.0243 17.7511 45.5406 17.93 46.1092C18.1088 46.6778 18.1982 47.239 18.1982 47.7927ZM26.3375 47.7927C26.3375 47.4934 26.4418 47.239 26.6504 47.0295C26.8591 46.82 27.1125 46.7152 27.4106 46.7152H35.9732C36.3458 46.7152 36.6961 46.7901 37.024 46.9397C37.3519 47.0744 37.635 47.2689 37.8735 47.5233C38.1269 47.7627 38.3206 48.0545 38.4548 48.3987C38.5889 48.7279 38.656 49.0796 38.656 49.4537V49.9475C38.656 50.3216 38.5889 50.6807 38.4548 51.0249C38.3206 51.3541 38.1269 51.6459 37.8735 51.9003C37.635 52.1397 37.3519 52.3342 37.024 52.4839C36.6961 52.6186 36.3458 52.6859 35.9732 52.6859H24.3254C23.7143 52.6859 23.1703 52.5362 22.6933 52.237C22.2164 51.9377 21.8065 51.5561 21.4637 51.0922C21.1358 50.6134 20.8825 50.0821 20.7036 49.4986C20.5247 48.915 20.4353 48.3463 20.4353 47.7927C20.4353 47.224 20.5247 46.6554 20.7036 46.0868C20.8974 45.5032 21.1731 44.9794 21.5308 44.5155C21.8885 44.0367 22.3207 43.6476 22.8275 43.3483C23.3342 43.0491 23.908 42.8994 24.5489 42.8994H37.5829C37.881 42.8994 38.1343 43.0042 38.343 43.2137C38.5517 43.4232 38.656 43.6775 38.656 43.9768C38.656 44.2761 38.5517 44.5305 38.343 44.74C38.1343 44.9495 37.881 45.0542 37.5829 45.0542H25.0408C24.5191 45.0542 24.0943 45.1515 23.7664 45.346C23.4535 45.5256 23.2001 45.7501 23.0063 46.0194C22.8275 46.2888 22.7008 46.588 22.6263 46.9173C22.5666 47.2315 22.5368 47.5233 22.5368 47.7927C22.5368 48.062 22.5666 48.3613 22.6263 48.6905C22.7008 49.0047 22.8275 49.2965 23.0063 49.5659C23.2001 49.8352 23.4535 50.0672 23.7664 50.2617C24.0943 50.4413 24.5191 50.5311 25.0408 50.5311H35.8838C36.0626 50.5311 36.2191 50.4488 36.3533 50.2842C36.5023 50.1196 36.5768 49.925 36.5768 49.7006C36.5768 49.4761 36.5098 49.2816 36.3756 49.117C36.2564 48.9524 36.0924 48.8701 35.8838 48.8701H27.4106C27.1125 48.8701 26.8591 48.7653 26.6504 48.5558C26.4418 48.3463 26.3375 48.0919 26.3375 47.7927ZM56.8773 46.7152C57.1754 46.7152 57.4288 46.82 57.6375 47.0295C57.8461 47.239 57.9505 47.4934 57.9505 47.7927C57.9505 48.0919 57.8461 48.3463 57.6375 48.5558C57.4288 48.7653 57.1754 48.8701 56.8773 48.8701H45.7438C45.4457 48.8701 45.1923 48.7653 44.9837 48.5558C44.775 48.3463 44.6707 48.0919 44.6707 47.7927C44.6707 47.4934 44.775 47.239 44.9837 47.0295C45.1923 46.82 45.4457 46.7152 45.7438 46.7152H56.8773ZM45.4979 45.0542C44.9762 45.0542 44.5514 45.1515 44.2235 45.346C43.9105 45.5256 43.6572 45.7501 43.4634 46.0194C43.2846 46.2888 43.1579 46.588 43.0833 46.9173C43.0237 47.2315 42.9939 47.5233 42.9939 47.7927C42.9939 48.062 43.0237 48.3613 43.0833 48.6905C43.1579 49.0047 43.2846 49.2965 43.4634 49.5659C43.6572 49.8352 43.9105 50.0672 44.2235 50.2617C44.5514 50.4413 44.9762 50.5311 45.4979 50.5311H57.8163C58.1144 50.5311 58.3678 50.6358 58.5764 50.8453C58.7851 51.0548 58.8894 51.3092 58.8894 51.6085C58.8894 51.9078 58.7851 52.1621 58.5764 52.3716C58.3678 52.5811 58.1144 52.6859 57.8163 52.6859H44.7824C44.1714 52.6859 43.6274 52.5362 43.1504 52.237C42.6735 51.9377 42.2636 51.5561 41.9208 51.0922C41.5929 50.6134 41.3395 50.0821 41.1607 49.4986C40.9818 48.915 40.8924 48.3463 40.8924 47.7927C40.8924 47.224 40.9818 46.6554 41.1607 46.0868C41.3544 45.5032 41.6302 44.9794 41.9879 44.5155C42.3456 44.0367 42.7778 43.6476 43.2846 43.3483C43.7913 43.0491 44.3651 42.8994 45.006 42.8994H57.8163C58.1144 42.8994 58.3678 43.0042 58.5764 43.2137C58.7851 43.4232 58.8894 43.6775 58.8894 43.9768C58.8894 44.2761 58.7851 44.5305 58.5764 44.74C58.3678 44.9495 58.1144 45.0542 57.8163 45.0542H45.4979ZM69.2018 51.6085C69.2018 51.2194 69.3359 50.8902 69.6042 50.6209C69.8725 50.3515 70.2004 50.2168 70.5879 50.2168C70.9754 50.2168 71.3033 50.3515 71.5716 50.6209C71.8399 50.8902 71.974 51.2194 71.974 51.6085C71.974 51.9975 71.8399 52.3268 71.5716 52.5961C71.3033 52.8655 70.9754 53.0001 70.5879 53.0001C70.2004 53.0001 69.8725 52.8655 69.6042 52.5961C69.3359 52.3268 69.2018 51.9975 69.2018 51.6085ZM63.2773 51.6085C63.2773 51.9078 63.173 52.1621 62.9643 52.3716C62.7556 52.5811 62.5023 52.6859 62.2042 52.6859C61.9061 52.6859 61.6527 52.5811 61.4441 52.3716C61.2354 52.1621 61.1311 51.9078 61.1311 51.6085V43.9768C61.1311 43.6775 61.2354 43.4232 61.4441 43.2137C61.6527 43.0042 61.9061 42.8994 62.2042 42.8994C62.3532 42.8994 62.4874 42.9293 62.6066 42.9892C62.7258 43.0491 62.8451 43.1239 62.9643 43.2137C63.9182 44.0516 64.7379 44.7101 65.4235 45.1889C66.124 45.6678 66.7575 46.0269 67.3238 46.2663C67.9051 46.5057 68.4491 46.6554 68.9559 46.7152C69.4626 46.7751 70.0066 46.805 70.5879 46.805C71.1692 46.805 71.7057 46.7826 72.1976 46.7377C72.7043 46.6778 73.2334 46.5282 73.7849 46.2888C74.3512 46.0493 74.9772 45.6902 75.6628 45.2114C76.3633 44.7325 77.198 44.0666 78.1668 43.2137C78.4201 43.0042 78.6735 42.8994 78.9269 42.8994C79.225 42.8994 79.4783 43.0042 79.687 43.2137C79.8957 43.4232 80 43.6775 80 43.9768V51.6085C80 51.9078 79.8957 52.1621 79.687 52.3716C79.4783 52.5811 79.225 52.6859 78.9269 52.6859C78.6288 52.6859 78.3754 52.5811 78.1668 52.3716C77.9581 52.1621 77.8538 51.9078 77.8538 51.6085V46.2888C77.1831 46.8275 76.5347 47.2764 75.9087 47.6355C75.2977 47.9947 74.694 48.2865 74.0979 48.5109C73.5166 48.7204 72.9353 48.8701 72.3541 48.9598C71.7728 49.0496 71.1841 49.0945 70.5879 49.0945C69.947 49.0945 69.3285 49.0496 68.7323 48.9598C68.151 48.8701 67.5623 48.7204 66.9661 48.5109C66.3848 48.2865 65.7887 47.9947 65.1776 47.6355C64.5814 47.2764 63.948 46.8275 63.2773 46.2888V51.6085Z" fill="#181818"/>
<defs>
<linearGradient id="paint0_linear_2001_81" x1="41.8807" y1="8.36769" x2="39.1085" y2="18.8023" gradientUnits="userSpaceOnUse">
<stop stop-color="white"/>
<stop offset="0.03" stop-color="#F4F4F4"/>
<stop offset="0.14" stop-color="#BBBBBB"/>
<stop offset="0.26" stop-color="#898989"/>
<stop offset="0.38" stop-color="#5F5F5F"/>
<stop offset="0.5" stop-color="#3C3C3C"/>
<stop offset="0.62" stop-color="#222222"/>
<stop offset="0.74" stop-color="#0F0F0F"/>
<stop offset="0.87" stop-color="#030303"/>
<stop offset="1"/>
</linearGradient>
<linearGradient id="paint1_linear_2001_81" x1="36.5012" y1="19.2717" x2="43.8437" y2="11.8599" gradientUnits="userSpaceOnUse">
<stop stop-color="#C10E24"/>
<stop offset="0.67" stop-color="#EB1D24"/>
<stop offset="1" stop-color="#C61024"/>
</linearGradient>
<linearGradient id="paint2_linear_2001_81" x1="32.08" y1="15.8744" x2="48.5686" y2="15.8744" gradientUnits="userSpaceOnUse">
<stop stop-color="#C10E24"/>
<stop offset="0.67" stop-color="#EB1D24"/>
<stop offset="1" stop-color="#C61024"/>
</linearGradient>
<radialGradient id="paint3_radial_2001_81" cx="0" cy="0" r="1" gradientUnits="userSpaceOnUse" gradientTransform="translate(40.9743 23.0125) scale(13.3605 13.4178)">
<stop stop-color="white"/>
<stop offset="0.03" stop-color="#F4F4F4"/>
<stop offset="0.14" stop-color="#BBBBBB"/>
<stop offset="0.26" stop-color="#898989"/>
<stop offset="0.38" stop-color="#5F5F5F"/>
<stop offset="0.5" stop-color="#3C3C3C"/>
<stop offset="0.62" stop-color="#222222"/>
<stop offset="0.74" stop-color="#0F0F0F"/>
<stop offset="0.87" stop-color="#030303"/>
<stop offset="1"/>
</radialGradient>
<linearGradient id="paint4_linear_2001_81" x1="27.0471" y1="17.0221" x2="52.1215" y2="17.0221" gradientUnits="userSpaceOnUse">
<stop stop-color="#C10E24"/>
<stop offset="0.67" stop-color="#EB1D24"/>
<stop offset="1" stop-color="#C61024"/>
</linearGradient>
<linearGradient id="paint5_linear_2001_81" x1="28.7569" y1="19.0942" x2="54.2215" y2="19.0942" gradientUnits="userSpaceOnUse">
<stop stop-color="#C10E24"/>
<stop offset="0.67" stop-color="#EB1D24"/>
<stop offset="1" stop-color="#C61024"/>
</linearGradient>
<linearGradient id="paint6_linear_2001_81" x1="31.3803" y1="28.2728" x2="48.6737" y2="6.77364" gradientUnits="userSpaceOnUse">
<stop stop-color="#C10E24"/>
<stop offset="0.67" stop-color="#EB1D24"/>
<stop offset="1" stop-color="#C61024"/>
</linearGradient>
<linearGradient id="paint7_linear_2001_81" x1="43.9059" y1="23.1025" x2="47.9542" y2="25.1933" gradientUnits="userSpaceOnUse">
<stop stop-color="#C10E24"/>
<stop offset="0.67" stop-color="#EB1D24"/>
<stop offset="1" stop-color="#C61024"/>
</linearGradient>
<linearGradient id="paint8_linear_2001_81" x1="43.4988" y1="22.8047" x2="45.1125" y2="23.8593" gradientUnits="userSpaceOnUse">
<stop stop-color="#C10E24"/>
<stop offset="0.67" stop-color="#EB1D24"/>
<stop offset="1" stop-color="#C61024"/>
</linearGradient>
<radialGradient id="paint9_radial_2001_81" cx="0" cy="0" r="1" gradientUnits="userSpaceOnUse" gradientTransform="translate(40.4518 21.0275) scale(12.6982 12.7527)">
<stop stop-color="white"/>
<stop offset="0.03" stop-color="#F4F4F4"/>
<stop offset="0.14" stop-color="#BBBBBB"/>
<stop offset="0.26" stop-color="#898989"/>
<stop offset="0.38" stop-color="#5F5F5F"/>
<stop offset="0.5" stop-color="#3C3C3C"/>
<stop offset="0.62" stop-color="#222222"/>
<stop offset="0.74" stop-color="#0F0F0F"/>
<stop offset="0.87" stop-color="#030303"/>
<stop offset="1"/>
</radialGradient>
<clipPath id="clip0_2001_81">
<rect width="29.0635" height="24.5922" fill="white" transform="translate(25.3375 4.72607)"/>
</clipPath>
</defs>
</svg>
