<svg width="923" height="648" viewBox="0 0 923 648" fill="none" xmlns="http://www.w3.org/2000/svg">
<g opacity="0.2" clip-path="url(#clip0_218_2672)">
<path d="M289.317 566.3V518.393H260.356C258.977 513.961 257.223 509.715 255.146 505.657L276.258 484.599L242.292 450.72L221.708 471.251C217.706 469.06 213.484 467.209 209.091 465.715V436.047H161.062V464.272C156.363 465.562 151.817 467.26 147.492 469.332L127.181 449.073L93.2142 482.952L112.3 501.989C109.729 506.421 107.584 511.125 105.898 516.05H78.5039V563.956H104.451C105.915 569.22 107.89 574.264 110.325 579.036L91.5627 597.75L125.529 631.629L143.764 613.442C148.48 616.023 153.485 618.146 158.712 619.759V646.302H206.742V619.759C211.747 618.214 216.532 616.21 221.061 613.781L240.606 633.277L274.572 599.397L254.806 579.681C257.019 575.419 258.892 570.953 260.339 566.3H289.3H289.317ZM185.085 600.739C152.753 600.739 126.534 574.604 126.534 542.355C126.534 510.106 152.736 483.954 185.085 483.954C217.434 483.954 243.637 510.089 243.637 542.355C243.637 574.621 217.434 600.739 185.085 600.739Z" fill="#DCDCDC"/>
<path d="M208.465 648H157.03V620.999C152.586 619.555 148.245 617.721 144.09 615.531L125.549 634.024L89.1824 597.75L108.268 578.714C106.208 574.519 104.506 570.138 103.178 565.671H76.8047V514.369H104.71C106.208 510.208 108.047 506.166 110.209 502.294L90.8339 482.969L127.201 446.695L147.87 467.311C151.531 465.613 155.396 464.17 159.38 463.015V434.383H210.814V464.543C214.492 465.868 218.05 467.413 221.404 469.196L242.295 448.359L278.662 484.633L257.227 506.013C258.946 509.529 260.427 513.112 261.602 516.712H291.023V568.015H261.602C260.342 571.853 258.759 575.674 256.903 579.376L277.01 599.432L240.643 635.705L220.774 615.887C216.807 617.925 212.687 619.657 208.465 621.033V648.034V648ZM160.435 644.604H205.06V618.502L206.268 618.129C211.087 616.651 215.803 614.681 220.298 612.27L221.404 611.676L240.643 630.865L272.192 599.398L252.732 579.987L253.311 578.883C255.524 574.638 257.346 570.223 258.725 565.79L259.099 564.584H287.618V520.075H259.099L258.725 518.886C257.414 514.674 255.711 510.48 253.634 506.421L253.072 505.317L273.844 484.599L242.295 453.131L222.017 473.357L220.894 472.746C217.012 470.623 212.857 468.806 208.55 467.328L207.409 466.938V437.746H162.785V465.562L161.542 465.902C156.911 467.176 152.433 468.84 148.262 470.861L147.172 471.387L127.218 451.484L95.6692 482.952L114.483 501.717L113.836 502.838C111.316 507.202 109.205 511.838 107.57 516.61L107.179 517.765H80.2609V562.275H105.8L106.14 563.515C107.553 568.592 109.477 573.568 111.895 578.272L112.457 579.376L94.0347 597.75L125.583 629.218L143.512 611.336L144.635 611.947C149.3 614.495 154.221 616.583 159.277 618.129L160.486 618.502V644.604H160.435ZM185.088 602.437C151.871 602.437 124.834 575.487 124.834 542.355C124.834 509.223 151.854 482.273 185.088 482.273C218.323 482.273 245.326 509.223 245.326 542.355C245.326 575.487 218.306 602.437 185.088 602.437ZM185.088 485.652C153.744 485.652 128.239 511.091 128.239 542.338C128.239 573.585 153.744 599.024 185.088 599.024C216.433 599.024 241.92 573.585 241.92 542.338C241.92 511.091 216.416 485.652 185.088 485.652Z" fill="#CACACA"/>
<path d="M632.642 623.903H339.102V641.411H632.642V623.903Z" fill="#DCDCDC"/>
<path d="M567.041 623.903H408.055L418.662 581.125H556.417L567.041 623.903Z" fill="#EDEDED"/>
<path d="M556.422 581.125L560.865 599.041H414.223L418.666 581.125H556.422Z" fill="#E8E8E8"/>
<path d="M786.829 581.125H185.462C173.153 581.125 163.176 571.173 163.176 558.895V528.345H809.116V558.895C809.116 571.173 799.139 581.125 786.829 581.125Z" fill="#DCDCDC"/>
<path d="M808.588 528.328H163.176V150.579C163.176 141.494 170.548 134.141 179.657 134.141H792.09C801.199 134.141 808.571 141.494 808.571 150.579V528.345L808.588 528.328Z" fill="#BBBBBB"/>
<path d="M781.428 528.328H190.328V175.594C190.328 166.509 197.7 159.156 206.809 159.156H764.964C774.073 159.156 781.445 166.509 781.445 175.594V528.328H781.428Z" fill="#FAFAFA"/>
<path d="M786.825 582.823H185.458C172.229 582.823 161.469 572.09 161.469 558.895V526.646H810.814V558.895C810.814 572.09 800.054 582.823 786.825 582.823ZM164.874 530.026V558.878C164.874 570.205 174.102 579.41 185.458 579.41H786.808C798.164 579.41 807.392 570.205 807.392 558.878V530.026H164.874Z" fill="#CACACA"/>
<path d="M569.22 625.601H405.875L417.333 579.427H557.745L569.203 625.601H569.22ZM410.217 622.204H564.861L555.089 582.823H420.006L410.234 622.204H410.217Z" fill="#CACACA"/>
<path d="M634.36 643.109H337.414V622.204H634.36V643.109ZM340.802 639.713H630.938V625.601H340.802V639.713Z" fill="#CACACA"/>
<path d="M810.286 530.026H161.469V150.58C161.469 140.577 169.624 132.443 179.652 132.443H792.086C802.114 132.443 810.269 140.577 810.269 150.58V530.043L810.286 530.026ZM164.874 526.63H806.881V150.58C806.881 142.445 800.258 135.839 792.103 135.839H179.652C171.497 135.839 164.874 142.445 164.874 150.58V526.647V526.63Z" fill="#CACACA"/>
<path d="M783.134 530.026H188.629V175.594C188.629 165.592 196.784 157.458 206.812 157.458H764.968C774.996 157.458 783.151 165.592 783.151 175.594V530.026H783.134ZM192.034 526.63H779.746V175.594C779.746 167.46 773.123 160.854 764.968 160.854H206.812C198.657 160.854 192.034 167.46 192.034 175.594V526.63Z" fill="#CACACA"/>
<path d="M497.608 562.809C503.166 557.265 503.166 548.276 497.608 542.732C492.049 537.187 483.037 537.187 477.479 542.732C471.92 548.276 471.92 557.265 477.479 562.809C483.037 568.354 492.049 568.354 497.608 562.809Z" fill="#BBBBBB"/>
<path d="M487.549 568.677C478.764 568.677 471.613 561.545 471.613 552.782C471.613 544.019 478.764 536.887 487.549 536.887C496.335 536.887 503.485 544.019 503.485 552.782C503.485 561.545 496.335 568.677 487.549 568.677ZM487.549 540.283C480.637 540.283 475.018 545.887 475.018 552.782C475.018 559.677 480.637 565.281 487.549 565.281C494.462 565.281 500.08 559.677 500.08 552.782C500.08 545.887 494.462 540.283 487.549 540.283Z" fill="#CACACA"/>
<path d="M729.754 184.917H245.32V502.549H729.754V184.917Z" fill="white"/>
<path d="M731.46 504.264H243.621V183.219H731.46V504.247V504.264ZM247.026 500.867H728.055V186.615H247.026V500.85V500.867Z" fill="#CACACA"/>
<path d="M729.754 184.917H245.32V212.632H729.754V184.917Z" fill="#BBBBBB"/>
<path d="M731.46 214.347H243.621V183.236H731.46V214.347ZM247.026 210.951H728.055V186.632H247.026V210.951Z" fill="#CACACA"/>
<path d="M345.693 368.493V379.344L302.227 357.285V347.639L345.693 325.63V336.431L314.723 352.462L345.693 368.493Z" fill="#CACACA"/>
<path d="M352.574 395.749L381.297 318.719H389.793L361.019 395.749H352.574Z" fill="#CACACA"/>
<path d="M444.015 346.705L434.123 352.122C432.267 350.186 430.429 348.845 428.607 348.081C426.785 347.333 424.657 346.96 422.222 346.96C417.778 346.96 414.186 348.284 411.445 350.917C408.704 353.549 407.325 356.945 407.325 361.072C407.325 365.198 408.653 368.374 411.292 370.904C413.931 373.452 417.404 374.708 421.694 374.708C427.006 374.708 431.144 372.908 434.106 369.291L443.47 375.693C438.397 382.282 431.229 385.577 421.984 385.577C413.658 385.577 407.137 383.115 402.421 378.207C397.705 373.282 395.355 367.525 395.355 360.936C395.355 356.368 396.496 352.156 398.795 348.301C401.093 344.463 404.277 341.424 408.38 339.233C412.483 337.042 417.08 335.938 422.154 335.938C426.853 335.938 431.075 336.872 434.821 338.74C438.567 340.609 441.614 343.258 443.998 346.705H444.015Z" fill="#CACACA"/>
<path d="M476.946 335.955C481.406 335.955 485.612 337.076 489.545 339.301C493.478 341.525 496.542 344.548 498.739 348.369C500.935 352.19 502.042 356.317 502.042 360.732C502.042 365.147 500.935 369.359 498.722 373.231C496.508 377.103 493.478 380.143 489.647 382.316C485.816 384.507 481.594 385.594 476.98 385.594C470.186 385.594 464.398 383.182 459.596 378.376C454.795 373.554 452.395 367.712 452.395 360.817C452.395 353.447 455.102 347.299 460.533 342.375C465.283 338.095 470.765 335.955 476.929 335.955H476.946ZM477.15 347.096C473.455 347.096 470.391 348.369 467.939 350.933C465.487 353.498 464.261 356.775 464.261 360.766C464.261 364.757 465.47 368.204 467.905 370.751C470.323 373.299 473.404 374.572 477.116 374.572C480.828 374.572 483.926 373.282 486.395 370.718C488.864 368.136 490.107 364.825 490.107 360.783C490.107 356.741 488.898 353.447 486.463 350.916C484.028 348.386 480.93 347.112 477.15 347.112V347.096Z" fill="#CACACA"/>
<path d="M546.683 318.939H558.567V384.371H546.683V379.378C544.367 381.586 542.034 383.165 539.702 384.133C537.369 385.101 534.85 385.594 532.126 385.594C526.013 385.594 520.735 383.233 516.258 378.495C511.797 373.757 509.566 367.881 509.566 360.851C509.566 353.82 511.729 347.588 516.036 342.935C520.361 338.282 525.605 335.955 531.768 335.955C534.611 335.955 537.267 336.499 539.77 337.568C542.256 338.638 544.571 340.252 546.683 342.391V318.956V318.939ZM534.203 346.892C530.525 346.892 527.478 348.182 525.06 350.781C522.625 353.362 521.416 356.69 521.416 360.732C521.416 364.774 522.659 368.17 525.128 370.802C527.597 373.435 530.644 374.759 534.254 374.759C537.863 374.759 541.081 373.468 543.533 370.87C545.984 368.289 547.21 364.893 547.21 360.698C547.21 356.503 545.984 353.26 543.533 350.713C541.081 348.165 537.965 346.892 534.203 346.892Z" fill="#CACACA"/>
<path d="M617.989 364.196H579.835C580.38 367.559 581.861 370.225 584.244 372.195C586.645 374.182 589.693 375.167 593.404 375.167C597.848 375.167 601.662 373.621 604.846 370.531L614.857 375.218C612.354 378.75 609.374 381.365 605.901 383.047C602.428 384.745 598.291 385.577 593.506 385.577C586.083 385.577 580.039 383.233 575.357 378.563C570.692 373.893 568.359 368.034 568.359 361.004C568.359 353.973 570.692 347.826 575.34 343.054C579.988 338.282 585.828 335.921 592.859 335.921C600.317 335.921 606.378 338.299 611.043 343.054C615.708 347.809 618.041 354.092 618.041 361.904L617.989 364.163V364.196ZM606.122 354.873C605.339 352.241 603.79 350.101 601.474 348.454C599.159 346.807 596.486 345.975 593.438 345.975C590.118 345.975 587.224 346.909 584.721 348.743C583.155 349.898 581.691 351.935 580.363 354.856H606.122V354.873Z" fill="#CACACA"/>
<path d="M626.602 336.431V325.613L670.068 347.639V357.268L626.602 379.344V368.493L657.622 352.462L626.602 336.431Z" fill="#CACACA"/>
<path d="M632.642 623.903H339.102V641.411H632.642V623.903Z" fill="#DCDCDC"/>
<path d="M567.041 623.903H408.055L418.662 581.125H556.417L567.041 623.903Z" fill="#EDEDED"/>
<path d="M556.422 581.125L560.865 599.041H414.223L418.666 581.125H556.422Z" fill="#E8E8E8"/>
<path d="M786.829 581.125H185.462C173.153 581.125 163.176 571.173 163.176 558.895V528.345H809.116V558.895C809.116 571.173 799.139 581.125 786.829 581.125Z" fill="#DCDCDC"/>
<path d="M808.588 528.328H163.176V150.579C163.176 141.494 170.548 134.141 179.657 134.141H792.09C801.199 134.141 808.571 141.494 808.571 150.579V528.345L808.588 528.328Z" fill="#BBBBBB"/>
<path d="M781.428 528.328H190.328V175.594C190.328 166.509 197.7 159.156 206.809 159.156H764.964C774.073 159.156 781.445 166.509 781.445 175.594V528.328H781.428Z" fill="#FAFAFA"/>
<path d="M786.825 582.823H185.458C172.229 582.823 161.469 572.09 161.469 558.895V526.646H810.814V558.895C810.814 572.09 800.054 582.823 786.825 582.823ZM164.874 530.026V558.878C164.874 570.205 174.102 579.41 185.458 579.41H786.808C798.164 579.41 807.392 570.205 807.392 558.878V530.026H164.874Z" fill="#CACACA"/>
<path d="M569.22 625.601H405.875L417.333 579.427H557.745L569.203 625.601H569.22ZM410.217 622.204H564.861L555.089 582.823H420.006L410.234 622.204H410.217Z" fill="#CACACA"/>
<path d="M634.36 643.109H337.414V622.204H634.36V643.109ZM340.802 639.713H630.938V625.601H340.802V639.713Z" fill="#CACACA"/>
<path d="M810.286 530.026H161.469V150.58C161.469 140.577 169.624 132.443 179.652 132.443H792.086C802.114 132.443 810.269 140.577 810.269 150.58V530.043L810.286 530.026ZM164.874 526.63H806.881V150.58C806.881 142.445 800.258 135.839 792.103 135.839H179.652C171.497 135.839 164.874 142.445 164.874 150.58V526.647V526.63Z" fill="#CACACA"/>
<path d="M783.134 530.026H188.629V175.594C188.629 165.592 196.784 157.458 206.812 157.458H764.968C774.996 157.458 783.151 165.592 783.151 175.594V530.026H783.134ZM192.034 526.63H779.746V175.594C779.746 167.46 773.123 160.854 764.968 160.854H206.812C198.657 160.854 192.034 167.46 192.034 175.594V526.63Z" fill="#CACACA"/>
<path d="M497.608 562.809C503.166 557.265 503.166 548.276 497.608 542.732C492.049 537.187 483.037 537.187 477.479 542.732C471.92 548.276 471.92 557.265 477.479 562.809C483.037 568.354 492.049 568.354 497.608 562.809Z" fill="#BBBBBB"/>
<path d="M487.549 568.677C478.764 568.677 471.613 561.545 471.613 552.782C471.613 544.019 478.764 536.887 487.549 536.887C496.335 536.887 503.485 544.019 503.485 552.782C503.485 561.545 496.335 568.677 487.549 568.677ZM487.549 540.283C480.637 540.283 475.018 545.887 475.018 552.782C475.018 559.677 480.637 565.281 487.549 565.281C494.462 565.281 500.08 559.677 500.08 552.782C500.08 545.887 494.462 540.283 487.549 540.283Z" fill="#CACACA"/>
<path d="M729.754 184.917H245.32V502.549H729.754V184.917Z" fill="white"/>
<path d="M731.46 504.264H243.621V183.219H731.46V504.247V504.264ZM247.026 500.867H728.055V186.615H247.026V500.85V500.867Z" fill="#CACACA"/>
<path d="M729.754 184.917H245.32V212.632H729.754V184.917Z" fill="#BBBBBB"/>
<path d="M731.46 214.347H243.621V183.236H731.46V214.347ZM247.026 210.951H728.055V186.632H247.026V210.951Z" fill="#CACACA"/>
<path d="M345.693 368.493V379.344L302.227 357.285V347.639L345.693 325.63V336.431L314.723 352.462L345.693 368.493Z" fill="#CACACA"/>
<path d="M352.574 395.749L381.297 318.719H389.793L361.019 395.749H352.574Z" fill="#CACACA"/>
<path d="M444.015 346.705L434.123 352.122C432.267 350.186 430.429 348.845 428.607 348.081C426.785 347.333 424.657 346.96 422.222 346.96C417.778 346.96 414.186 348.284 411.445 350.917C408.704 353.549 407.325 356.945 407.325 361.072C407.325 365.198 408.653 368.374 411.292 370.904C413.931 373.452 417.404 374.708 421.694 374.708C427.006 374.708 431.144 372.908 434.106 369.291L443.47 375.693C438.397 382.282 431.229 385.577 421.984 385.577C413.658 385.577 407.137 383.115 402.421 378.207C397.705 373.282 395.355 367.525 395.355 360.936C395.355 356.368 396.496 352.156 398.795 348.301C401.093 344.463 404.277 341.424 408.38 339.233C412.483 337.042 417.08 335.938 422.154 335.938C426.853 335.938 431.075 336.872 434.821 338.74C438.567 340.609 441.614 343.258 443.998 346.705H444.015Z" fill="#CACACA"/>
<path d="M476.946 335.955C481.406 335.955 485.612 337.076 489.545 339.301C493.478 341.525 496.542 344.548 498.739 348.369C500.935 352.19 502.042 356.317 502.042 360.732C502.042 365.147 500.935 369.359 498.722 373.231C496.508 377.103 493.478 380.143 489.647 382.316C485.816 384.507 481.594 385.594 476.98 385.594C470.186 385.594 464.398 383.182 459.596 378.376C454.795 373.554 452.395 367.712 452.395 360.817C452.395 353.447 455.102 347.299 460.533 342.375C465.283 338.095 470.765 335.955 476.929 335.955H476.946ZM477.15 347.096C473.455 347.096 470.391 348.369 467.939 350.933C465.487 353.498 464.261 356.775 464.261 360.766C464.261 364.757 465.47 368.204 467.905 370.751C470.323 373.299 473.404 374.572 477.116 374.572C480.828 374.572 483.926 373.282 486.395 370.718C488.864 368.136 490.107 364.825 490.107 360.783C490.107 356.741 488.898 353.447 486.463 350.916C484.028 348.386 480.93 347.112 477.15 347.112V347.096Z" fill="#CACACA"/>
<path d="M546.683 318.939H558.567V384.371H546.683V379.378C544.367 381.586 542.034 383.165 539.702 384.133C537.369 385.101 534.85 385.594 532.126 385.594C526.013 385.594 520.735 383.233 516.258 378.495C511.797 373.757 509.566 367.881 509.566 360.851C509.566 353.82 511.729 347.588 516.036 342.935C520.361 338.282 525.605 335.955 531.768 335.955C534.611 335.955 537.267 336.499 539.77 337.568C542.256 338.638 544.571 340.252 546.683 342.391V318.956V318.939ZM534.203 346.892C530.525 346.892 527.478 348.182 525.06 350.781C522.625 353.362 521.416 356.69 521.416 360.732C521.416 364.774 522.659 368.17 525.128 370.802C527.597 373.435 530.644 374.759 534.254 374.759C537.863 374.759 541.081 373.468 543.533 370.87C545.984 368.289 547.21 364.893 547.21 360.698C547.21 356.503 545.984 353.26 543.533 350.713C541.081 348.165 537.965 346.892 534.203 346.892Z" fill="#CACACA"/>
<path d="M617.989 364.196H579.835C580.38 367.559 581.861 370.225 584.244 372.195C586.645 374.182 589.693 375.167 593.404 375.167C597.848 375.167 601.662 373.621 604.846 370.531L614.857 375.218C612.354 378.75 609.374 381.365 605.901 383.047C602.428 384.745 598.291 385.577 593.506 385.577C586.083 385.577 580.039 383.233 575.357 378.563C570.692 373.893 568.359 368.034 568.359 361.004C568.359 353.973 570.692 347.826 575.34 343.054C579.988 338.282 585.828 335.921 592.859 335.921C600.317 335.921 606.378 338.299 611.043 343.054C615.708 347.809 618.041 354.092 618.041 361.904L617.989 364.163V364.196ZM606.122 354.873C605.339 352.241 603.79 350.101 601.474 348.454C599.159 346.807 596.486 345.975 593.438 345.975C590.118 345.975 587.224 346.909 584.721 348.743C583.155 349.898 581.691 351.935 580.363 354.856H606.122V354.873Z" fill="#CACACA"/>
<path d="M626.602 336.431V325.613L670.068 347.639V357.268L626.602 379.344V368.493L657.622 352.462L626.602 336.431Z" fill="#CACACA"/>
<path d="M632.642 623.903H339.102V641.411H632.642V623.903Z" fill="#DCDCDC"/>
<path d="M567.041 623.903H408.055L418.662 581.125H556.417L567.041 623.903Z" fill="#EDEDED"/>
<path d="M556.422 581.125L560.865 599.041H414.223L418.666 581.125H556.422Z" fill="#E8E8E8"/>
<path d="M786.829 581.125H185.462C173.153 581.125 163.176 571.173 163.176 558.895V528.345H809.116V558.895C809.116 571.173 799.139 581.125 786.829 581.125Z" fill="#DCDCDC"/>
<path d="M808.588 528.328H163.176V150.579C163.176 141.494 170.548 134.141 179.657 134.141H792.09C801.199 134.141 808.571 141.494 808.571 150.579V528.345L808.588 528.328Z" fill="#BBBBBB"/>
<path d="M781.428 528.328H190.328V175.594C190.328 166.509 197.7 159.156 206.809 159.156H764.964C774.073 159.156 781.445 166.509 781.445 175.594V528.328H781.428Z" fill="#FAFAFA"/>
<path d="M786.825 582.823H185.458C172.229 582.823 161.469 572.09 161.469 558.895V526.646H810.814V558.895C810.814 572.09 800.054 582.823 786.825 582.823ZM164.874 530.026V558.878C164.874 570.205 174.102 579.41 185.458 579.41H786.808C798.164 579.41 807.392 570.205 807.392 558.878V530.026H164.874Z" fill="#CACACA"/>
<path d="M569.22 625.601H405.875L417.333 579.427H557.745L569.203 625.601H569.22ZM410.217 622.204H564.861L555.089 582.823H420.006L410.234 622.204H410.217Z" fill="#CACACA"/>
<path d="M634.36 643.109H337.414V622.204H634.36V643.109ZM340.802 639.713H630.938V625.601H340.802V639.713Z" fill="#CACACA"/>
<path d="M810.286 530.026H161.469V150.58C161.469 140.577 169.624 132.443 179.652 132.443H792.086C802.114 132.443 810.269 140.577 810.269 150.58V530.043L810.286 530.026ZM164.874 526.63H806.881V150.58C806.881 142.445 800.258 135.839 792.103 135.839H179.652C171.497 135.839 164.874 142.445 164.874 150.58V526.647V526.63Z" fill="#CACACA"/>
<path d="M783.134 530.026H188.629V175.594C188.629 165.592 196.784 157.458 206.812 157.458H764.968C774.996 157.458 783.151 165.592 783.151 175.594V530.026H783.134ZM192.034 526.63H779.746V175.594C779.746 167.46 773.123 160.854 764.968 160.854H206.812C198.657 160.854 192.034 167.46 192.034 175.594V526.63Z" fill="#CACACA"/>
<path d="M497.608 562.809C503.166 557.265 503.166 548.276 497.608 542.732C492.049 537.187 483.037 537.187 477.479 542.732C471.92 548.276 471.92 557.265 477.479 562.809C483.037 568.354 492.049 568.354 497.608 562.809Z" fill="#BBBBBB"/>
<path d="M487.549 568.677C478.764 568.677 471.613 561.545 471.613 552.782C471.613 544.019 478.764 536.887 487.549 536.887C496.335 536.887 503.485 544.019 503.485 552.782C503.485 561.545 496.335 568.677 487.549 568.677ZM487.549 540.283C480.637 540.283 475.018 545.887 475.018 552.782C475.018 559.677 480.637 565.281 487.549 565.281C494.462 565.281 500.08 559.677 500.08 552.782C500.08 545.887 494.462 540.283 487.549 540.283Z" fill="#CACACA"/>
<path d="M729.754 184.917H245.32V502.549H729.754V184.917Z" fill="white"/>
<path d="M731.46 504.264H243.621V183.219H731.46V504.247V504.264ZM247.026 500.867H728.055V186.615H247.026V500.85V500.867Z" fill="#CACACA"/>
<path d="M729.754 184.917H245.32V212.632H729.754V184.917Z" fill="#BBBBBB"/>
<path d="M731.46 214.347H243.621V183.236H731.46V214.347ZM247.026 210.951H728.055V186.632H247.026V210.951Z" fill="#CACACA"/>
<path d="M632.642 623.903H339.102V641.411H632.642V623.903Z" fill="#DCDCDC"/>
<path d="M567.041 623.903H408.055L418.662 581.125H556.417L567.041 623.903Z" fill="#EDEDED"/>
<path d="M556.422 581.125L560.865 599.041H414.223L418.666 581.125H556.422Z" fill="#E8E8E8"/>
<path d="M786.829 581.125H185.462C173.153 581.125 163.176 571.173 163.176 558.895V528.345H809.116V558.895C809.116 571.173 799.139 581.125 786.829 581.125Z" fill="#DCDCDC"/>
<path d="M786.947 554.48H141.535V176.715C141.535 167.63 148.907 160.276 158.016 160.276H770.449C779.558 160.276 786.93 167.63 786.93 176.715V554.48H786.947Z" fill="#BBBBBB"/>
<path d="M774.023 532.59H182.906V179.84C182.906 170.754 190.278 163.401 199.387 163.401H757.542C766.651 163.401 774.023 170.754 774.023 179.84V532.573V532.59Z" fill="#FAFAFA"/>
<path d="M786.825 582.823H185.458C172.229 582.823 161.469 572.09 161.469 558.895V526.646H810.814V558.895C810.814 572.09 800.054 582.823 786.825 582.823ZM164.874 530.026V558.878C164.874 570.205 174.102 579.41 185.458 579.41H786.808C798.164 579.41 807.392 570.205 807.392 558.878V530.026H164.874Z" fill="#CACACA"/>
<path d="M569.22 625.601H405.875L417.333 579.427H557.745L569.203 625.601H569.22ZM410.217 622.204H564.861L555.089 582.823H420.006L410.234 622.204H410.217Z" fill="#CACACA"/>
<path d="M634.36 643.109H337.414V622.204H634.36V643.109ZM340.802 639.713H630.938V625.601H340.802V639.713Z" fill="#CACACA"/>
<path d="M810.286 530.026H161.469V150.58C161.469 140.577 169.624 132.443 179.652 132.443H792.086C802.114 132.443 810.269 140.577 810.269 150.58V530.043L810.286 530.026ZM164.874 526.63H806.881V150.58C806.881 142.445 800.258 135.839 792.103 135.839H179.652C171.497 135.839 164.874 142.445 164.874 150.58V526.647V526.63Z" fill="#CACACA"/>
<path d="M783.134 530.026H188.629V175.594C188.629 165.592 196.784 157.458 206.812 157.458H764.968C774.996 157.458 783.151 165.592 783.151 175.594V530.026H783.134ZM192.034 526.63H779.746V175.594C779.746 167.46 773.123 160.854 764.968 160.854H206.812C198.657 160.854 192.034 167.46 192.034 175.594V526.63Z" fill="#CACACA"/>
<path d="M497.608 562.809C503.166 557.265 503.166 548.276 497.608 542.732C492.049 537.187 483.037 537.187 477.479 542.732C471.92 548.276 471.92 557.265 477.479 562.809C483.037 568.354 492.049 568.354 497.608 562.809Z" fill="#BBBBBB"/>
<path d="M487.549 568.677C478.764 568.677 471.613 561.545 471.613 552.782C471.613 544.019 478.764 536.887 487.549 536.887C496.335 536.887 503.485 544.019 503.485 552.782C503.485 561.545 496.335 568.677 487.549 568.677ZM487.549 540.283C480.637 540.283 475.018 545.887 475.018 552.782C475.018 559.677 480.637 565.281 487.549 565.281C494.462 565.281 500.08 559.677 500.08 552.782C500.08 545.887 494.462 540.283 487.549 540.283Z" fill="#CACACA"/>
<path d="M720.68 189.18H236.246V506.812H720.68V189.18Z" fill="white"/>
<path d="M722.403 508.51H234.547V187.482H722.386V508.51H722.403ZM237.952 505.113H718.981V190.878H237.952V505.113Z" fill="#CACACA"/>
<path d="M729.754 184.917H245.32V212.632H729.754V184.917Z" fill="#BBBBBB"/>
<path d="M731.46 214.347H243.621V183.236H731.46V214.347ZM247.026 210.951H728.055V186.632H247.026V210.951Z" fill="#CACACA"/>
<path d="M692.776 341.22H452.406V366.676H692.776V341.22Z" fill="#DCDCDC"/>
<path d="M692.776 395.375H452.406V420.832H692.776V395.375Z" fill="#DCDCDC"/>
<path d="M692.782 449.531H278.988V474.987H692.782V449.531Z" fill="#DCDCDC"/>
<path d="M146.384 353.192V320.315H126.498C125.562 317.275 124.353 314.354 122.923 311.569L137.411 297.117L114.103 273.869L99.9719 287.964C97.2137 286.453 94.3193 285.196 91.3228 284.16V263.799H58.3609V283.175C55.126 284.058 52.0103 285.23 49.0478 286.656L35.1037 272.748L11.7955 295.997L24.9053 309.073C23.1517 312.112 21.6704 315.356 20.5127 318.718H1.69922V351.596H19.5082C20.5127 355.213 21.8577 358.677 23.5433 361.955L10.6718 374.793L33.98 398.041L46.494 385.56C49.7289 387.326 53.1681 388.786 56.7605 389.89V408.112H89.7224V389.89C93.1616 388.837 96.4475 387.445 99.5462 385.78L112.963 399.162L136.271 375.914L122.701 362.379C124.234 359.458 125.51 356.385 126.498 353.192H146.384ZM74.8418 376.831C52.6573 376.831 34.6611 358.881 34.6611 336.753C34.6611 314.626 52.6573 296.676 74.8418 296.676C97.0264 296.676 115.023 314.626 115.023 336.753C115.023 358.881 97.0264 376.831 74.8418 376.831Z" fill="#DCDCDC"/>
<path d="M91.4283 409.81H55.0613V391.13C52.235 390.196 49.4598 389.024 46.8038 387.649L33.9834 400.436L8.25749 374.776L21.4695 361.598C20.1755 358.915 19.0859 356.13 18.2346 353.277H0V317.003H19.3072C20.2777 314.371 21.4354 311.807 22.7975 309.344L9.39822 295.98L35.1241 270.32L49.4258 284.585C51.7413 283.532 54.1759 282.615 56.6787 281.868V262.083H93.0457V282.954C95.3442 283.787 97.5576 284.771 99.6858 285.858L114.124 271.458L139.85 297.117L125.02 311.909C126.093 314.116 127.012 316.358 127.761 318.617H148.107V354.89H127.761C126.944 357.302 125.957 359.713 124.799 362.04L138.709 375.914L112.983 401.574L99.2431 387.869C96.7233 389.143 94.1013 390.247 91.4283 391.13V409.81ZM58.4664 406.414H88.0231V388.634L89.2149 388.26C92.4839 387.258 95.6847 385.916 98.7494 384.286L99.856 383.692L112.966 396.768L133.873 375.914L120.627 362.702L121.206 361.598C122.722 358.711 123.947 355.705 124.884 352.7L125.258 351.494H144.685V322.013H125.258L124.884 320.807C123.999 317.954 122.824 315.101 121.428 312.333L120.866 311.229L135.014 297.117L114.107 276.263L100.282 290.053L99.158 289.442C96.519 287.998 93.6927 286.758 90.7643 285.756L89.6065 285.366V265.48H60.0498V284.449L58.8069 284.788C55.6572 285.655 52.6266 286.792 49.7833 288.151L48.6937 288.677L35.1071 275.126L14.1995 295.98L27.0199 308.767L26.3729 309.888C24.6533 312.86 23.2231 316.001 22.1165 319.245L21.7249 320.4H3.40515V349.881H20.8055L21.146 351.12C22.0994 354.568 23.4104 357.947 25.0449 361.157L25.6067 362.26L13.0588 374.776L33.9664 395.63L46.1738 383.454L47.2975 384.065C50.4643 385.798 53.8184 387.207 57.2406 388.277L58.4324 388.651V406.431L58.4664 406.414ZM74.8452 378.529C51.7583 378.529 32.9619 359.781 32.9619 336.753C32.9619 313.726 51.7583 294.978 74.8452 294.978C97.9321 294.978 116.729 313.726 116.729 336.753C116.729 359.781 97.9321 378.529 74.8452 378.529ZM74.8452 298.374C53.6311 298.374 36.367 315.594 36.367 336.753C36.367 357.913 53.6311 375.133 74.8452 375.133C96.0593 375.133 113.323 357.913 113.323 336.753C113.323 315.594 96.0593 298.374 74.8452 298.374Z" fill="#CACACA"/>
<path d="M74.0417 355.688C84.9681 355.688 93.8256 346.854 93.8256 335.955C93.8256 325.057 84.9681 316.222 74.0417 316.222C63.1154 316.222 54.2578 325.057 54.2578 335.955C54.2578 346.854 63.1154 355.688 74.0417 355.688Z" fill="#DCDCDC"/>
<path d="M74.0451 357.37C62.1952 357.37 52.5586 347.758 52.5586 335.938C52.5586 324.119 62.1952 314.507 74.0451 314.507C85.895 314.507 95.5316 324.119 95.5316 335.938C95.5316 347.758 85.895 357.37 74.0451 357.37ZM74.0451 317.92C64.085 317.92 55.9637 326.004 55.9637 335.955C55.9637 345.907 64.068 353.99 74.0451 353.99C84.0222 353.99 92.1264 345.907 92.1264 335.955C92.1264 326.004 84.0222 317.92 74.0451 317.92Z" fill="#CACACA"/>
<path d="M692.782 232.552H278.988V310.499H692.782V232.552Z" fill="#DCDCDC"/>
<path d="M421.997 341.05H281.824V418.998H421.997V341.05Z" fill="#EDEDED"/>
<path d="M136.512 94.1143H11.5938V198.774H136.512V94.1143Z" fill="white"/>
<path d="M138.218 200.489H9.89453V92.4329H138.218V200.489ZM13.2997 197.093H134.812V95.8293H13.2997V197.093Z" fill="#CACACA"/>
<path d="M37.8665 134.735H53.9728L67.7807 151.802L88.5351 121.252H110.413C111.23 121.252 111.673 122.186 111.179 122.814L70.6921 174.711L37.1344 136.332C36.5895 135.703 37.0322 134.718 37.8665 134.718V134.735Z" fill="#BBBBBB"/>
<path d="M70.7577 177.394L35.8379 137.469C35.1398 136.671 34.9866 135.567 35.4122 134.616C35.8549 133.649 36.7913 133.054 37.8469 133.054H54.7705L67.642 148.983L87.6132 119.587H110.394C111.432 119.587 112.352 120.165 112.794 121.082C113.237 121.999 113.135 123.086 112.505 123.884L70.7407 177.411L70.7577 177.394ZM39.4814 136.434L70.6215 172.045L108.929 122.95H89.452L67.9144 154.655L53.1701 136.434H39.4814Z" fill="#CACACA"/>
<path d="M921.276 418.573H817.453V505.572H921.276V418.573Z" fill="#FAFAFA"/>
<path d="M922.998 507.253H815.77V416.857H922.998V507.253ZM819.158 503.856H919.575V420.254H819.158V503.856Z" fill="#CACACA"/>
<path d="M840.598 451.043H853.98L865.455 465.24L882.703 439.852H900.886C901.55 439.852 901.942 440.616 901.516 441.159L867.856 484.293L839.968 452.401C839.508 451.875 839.883 451.06 840.581 451.06L840.598 451.043Z" fill="#BBBBBB"/>
<path d="M867.938 486.943L838.688 453.488C838.041 452.741 837.888 451.705 838.297 450.805C838.705 449.905 839.591 449.344 840.578 449.344H854.777L865.316 462.387L881.78 438.153H900.866C901.837 438.153 902.688 438.697 903.114 439.563C903.539 440.429 903.437 441.448 902.841 442.195L867.921 486.96L867.938 486.943ZM842.553 452.741L867.785 481.61L899.044 441.55H883.585L865.555 468.093L853.143 452.741H842.536H842.553Z" fill="#CACACA"/>
<path d="M351.762 1.69775H226.844V106.358H351.762V1.69775Z" fill="white"/>
<path d="M353.468 108.057H225.145V0H353.468V108.057ZM228.55 104.66H350.062V3.3964H228.55V104.66Z" fill="#CACACA"/>
<path d="M321.025 37.3601L306.025 22.3989L289.323 39.0753L272.604 22.3989L257.621 37.3601L274.323 54.0364L257.621 70.6958L272.604 85.657L289.323 68.9806L306.025 85.657L321.025 70.6958L304.323 54.0364L321.025 37.3601Z" fill="#BBBBBB"/>
<path d="M306.024 88.0515L289.321 71.3921L272.619 88.0515L255.219 70.6958L271.921 54.0365L255.219 37.3771L272.619 20.0215L289.321 36.6809L306.024 20.0215L323.424 37.3771L306.722 54.0365L323.424 70.6958L306.024 88.0515ZM260.02 70.6958L272.619 83.2625L289.321 66.6032L306.024 83.2625L318.606 70.6958L301.903 54.0365L318.606 37.3771L306.024 24.8104L289.321 41.4698L272.619 24.8104L260.02 37.3771L276.722 54.0365L260.02 70.6958Z" fill="#CACACA"/>
<path d="M711.265 263.782C737.509 263.782 758.784 242.561 758.784 216.385C758.784 190.208 737.509 168.988 711.265 168.988C685.021 168.988 663.746 190.208 663.746 216.385C663.746 242.561 685.021 263.782 711.265 263.782Z" fill="#FAFAFA"/>
<path d="M711.268 265.48C684.129 265.48 662.047 243.454 662.047 216.385C662.047 189.315 684.129 167.29 711.268 167.29C738.407 167.29 760.49 189.315 760.49 216.385C760.49 243.454 738.407 265.48 711.268 265.48ZM711.268 170.686C686.002 170.686 665.452 191.183 665.452 216.385C665.452 241.586 686.002 262.083 711.268 262.083C736.535 262.083 757.085 241.586 757.085 216.385C757.085 191.183 736.535 170.686 711.268 170.686Z" fill="#CACACA"/>
<path d="M710.873 236.305C712.882 236.305 714.584 237.018 716.014 238.411C717.445 239.82 718.143 241.518 718.143 243.522C718.143 245.526 717.428 247.19 716.014 248.6C714.601 250.009 712.882 250.74 710.873 250.74C708.864 250.74 707.161 250.043 705.748 248.634C704.335 247.224 703.637 245.526 703.637 243.522C703.637 241.518 704.335 239.82 705.748 238.411C707.161 237.001 708.864 236.305 710.873 236.305ZM705.033 185.919H716.712V231.278H705.033V185.919Z" fill="#BBBBBB"/>
<path d="M710.876 252.438C708.407 252.438 706.279 251.555 704.559 249.822C702.823 248.09 701.938 245.968 701.938 243.522C701.938 241.077 702.823 238.954 704.559 237.222C706.296 235.49 708.424 234.607 710.876 234.607C713.328 234.607 715.473 235.49 717.21 237.205C718.963 238.937 719.849 241.06 719.849 243.522C719.849 245.985 718.963 248.056 717.21 249.806C715.456 251.555 713.328 252.438 710.859 252.438H710.876ZM710.876 238.003C709.327 238.003 708.05 238.529 706.96 239.616C705.87 240.703 705.343 241.977 705.343 243.522C705.343 245.068 705.87 246.341 706.96 247.428C708.05 248.515 709.327 249.041 710.876 249.041C712.425 249.041 713.702 248.498 714.809 247.411C715.916 246.307 716.443 245.051 716.443 243.522C716.443 241.994 715.916 240.703 714.809 239.616C713.702 238.529 712.425 238.003 710.876 238.003ZM718.418 232.976H703.334V184.221H718.418V232.976ZM706.739 229.58H715.013V187.617H706.739V229.58Z" fill="#CACACA"/>
</g>
<defs>
<clipPath id="clip0_218_2672">
<rect width="923" height="648" fill="white"/>
</clipPath>
</defs>
</svg>
