<svg width="45" height="44" viewBox="0 0 45 44" fill="none" xmlns="http://www.w3.org/2000/svg">
<g clip-path="url(#clip0_251_3022)">
<path fill-rule="evenodd" clip-rule="evenodd" d="M22.5 44C10.3691 44 0.5 34.1309 0.5 22C0.5 9.86915 10.3691 0 22.5 0C34.6309 0 44.5 9.86915 44.5 22C44.5 34.1309 34.6309 44 22.5 44ZM33.9089 29.7284C34.1801 29.7284 34.4009 29.5078 34.4009 29.2365V15.4248L23.2075 24.3135C23.0004 24.4781 22.7501 24.5603 22.4999 24.5603C22.2498 24.5603 21.9995 24.478 21.7923 24.3135L10.599 15.4248V29.2365C10.599 29.5078 10.8198 29.7284 11.091 29.7284H33.9089ZM32.1936 14.2716L22.5 21.9694L12.8063 14.2716H32.1936ZM36.6768 14.7635V29.2366C36.6768 30.7628 35.4351 32.0045 33.9089 32.0045H11.091C9.56477 32.0045 8.32323 30.7628 8.32323 29.2366V14.7635C8.32323 13.2374 9.56486 11.9958 11.091 11.9958H33.9089C35.4351 11.9957 36.6768 13.2374 36.6768 14.7635Z" fill="#ED9A4C"/>
</g>
<defs>
<clipPath id="clip0_251_3022">
<rect width="44" height="44" fill="white" transform="translate(0.5)"/>
</clipPath>
</defs>
</svg>
