<svg width="44" height="44" viewBox="0 0 44 44" fill="none" xmlns="http://www.w3.org/2000/svg">
<g clip-path="url(#clip0_251_3039)">
<path fill-rule="evenodd" clip-rule="evenodd" d="M22 44C9.86915 44 0 34.1309 0 22C0 9.86915 9.86915 0 22 0C34.1309 0 44 9.86915 44 22C44 34.1309 34.1309 44 22 44Z" fill="#ED9A4C"/>
<g clip-path="url(#clip1_251_3039)">
<path d="M23.8242 16.741L23.8281 16.7488L23.832 16.7556L23.833 16.7566V16.7576C23.8335 16.7584 23.8343 16.7595 23.835 16.7605C23.8362 16.7625 23.8381 16.7646 23.8398 16.7673C23.8436 16.7731 23.8483 16.7812 23.8545 16.7898C23.8667 16.8068 23.8842 16.829 23.9062 16.8542C23.9502 16.9046 24.0175 16.9705 24.1074 17.0271C24.2742 17.1319 24.5093 17.1973 24.7881 17.1062L24.9102 17.0574C25.0875 16.9732 25.2575 16.8864 25.4043 16.8132L24.7451 20.5447L24.7402 20.5681C24.736 20.5878 24.7303 20.6153 24.7256 20.6482C24.7162 20.7132 24.7085 20.8045 24.7148 20.907C24.7257 21.0829 24.7822 21.3234 24.9805 21.5027L25.0742 21.575C25.345 21.7542 25.6238 21.7185 25.8105 21.6531C25.9041 21.6203 25.9817 21.578 26.0352 21.5447C26.0619 21.528 26.084 21.5131 26.0996 21.5017C26.1074 21.496 26.1134 21.4908 26.1182 21.4871C26.1206 21.4852 26.1234 21.4835 26.125 21.4822L26.127 21.4812L26.1279 21.4802V21.4792L26.1445 21.4666L26.1572 21.4509L27.624 19.7771L27.6973 20.0378L27.7012 20.0535L27.707 20.0671L27.9385 19.9714C27.7297 20.0586 27.7098 20.0672 27.708 20.0681V20.0691L27.709 20.0701C27.7093 20.0709 27.7095 20.072 27.71 20.073C27.7111 20.0755 27.7122 20.0792 27.7139 20.0828C27.7172 20.0899 27.7219 20.0993 27.7275 20.1101C27.7388 20.1317 27.7547 20.1604 27.7764 20.1931C27.8195 20.2583 27.8873 20.3427 27.9844 20.4207C28.1818 20.5793 28.4807 20.6898 28.8877 20.5964H28.8965L28.9277 20.5886C29.2696 20.5006 29.7304 20.3985 30.1084 20.3181C30.2101 20.2965 30.3055 20.2762 30.3906 20.2585L30.1436 21.2761L28.748 22.699L28.7129 22.7341L28.6943 22.781V22.782L28.6934 22.783L28.6924 22.7859C28.6917 22.7878 28.6913 22.7902 28.6904 22.7927C28.6886 22.7979 28.6859 22.8044 28.6836 22.8123C28.6812 22.8205 28.6787 22.8332 28.6758 22.8484C28.5965 22.9107 28.4765 22.9986 28.3086 23.0935L28.3008 23.0984L28.2939 23.1033C27.7248 23.481 26.9397 23.9846 26.3828 24.2751L26.375 24.2791L26.3682 24.283C25.9916 24.513 25.5462 24.7628 25.0244 25.0232L24.4766 25.2869C24.1981 25.4163 23.9006 25.5483 23.584 25.6804L23.5771 25.6833L23.5693 25.6863C23.3639 25.7882 23.154 25.8905 22.9395 25.991L22.2822 26.2888C21.1802 26.7721 19.9828 27.2122 18.7432 27.5378C18.7549 27.3337 18.7243 27.0633 18.5391 26.8308L18.4482 26.7312C18.2462 26.5406 17.2289 25.6703 16.2725 24.8552C15.792 24.4458 15.3236 24.0472 14.9756 23.7517C14.8735 23.665 14.7818 23.587 14.7031 23.5203L14.9531 23.4099C14.9598 23.4072 14.9686 23.4036 14.9785 23.3992C14.9985 23.3902 15.0247 23.3768 15.0547 23.3591C15.1141 23.324 15.1924 23.2685 15.2646 23.1853C15.3988 23.0306 15.4944 22.802 15.4561 22.4949L15.4316 22.3582C15.359 22.0543 15.1881 21.4345 15.0371 20.8962C14.9738 20.6705 14.9129 20.458 14.8643 20.2869L16.5518 20.6335L16.5664 20.6365L16.5811 20.6375L16.582 20.6384H16.5947C16.6014 20.6388 16.6106 20.6392 16.6211 20.6394C16.6424 20.6399 16.6714 20.6403 16.7061 20.6384C16.7752 20.6347 16.8716 20.6234 16.9756 20.5925C17.1596 20.5378 17.3851 20.4138 17.5078 20.1521L17.5537 20.031C17.5862 19.9223 17.6133 19.8227 17.6367 19.7341L19.1318 21.4812L19.1592 21.5134L19.1953 21.5349L19.3213 21.3191L19.1963 21.5349V21.5359H19.1982C19.1991 21.5364 19.2 21.5372 19.2012 21.5378C19.2038 21.5393 19.2077 21.5414 19.2119 21.5437C19.2206 21.5484 19.2325 21.555 19.2471 21.5623C19.2762 21.5767 19.317 21.5961 19.3662 21.615C19.4619 21.6517 19.6034 21.6928 19.7578 21.6941C19.916 21.6953 20.1017 21.6533 20.2559 21.5056C20.4071 21.3606 20.4958 21.1448 20.5264 20.866L20.5303 20.8318L20.5244 20.7976L19.8398 16.7546L20.4062 17.0369L20.4199 17.0437L20.4336 17.0486H20.4346L20.4355 17.0496L20.4473 17.0535C20.4537 17.0555 20.4625 17.0575 20.4727 17.0603C20.4931 17.066 20.521 17.0736 20.5547 17.0798C20.6214 17.0921 20.7154 17.1024 20.8223 17.0925C21.0183 17.0744 21.2516 16.9873 21.4248 16.7488L21.4951 16.6375C21.6272 16.3949 21.9615 15.728 22.2598 15.1277C22.3886 14.8685 22.5102 14.6195 22.6084 14.4207L23.8242 16.741ZM29.0205 22.7L29.0508 22.7468L29.0488 22.7498L29.0127 22.697C29.0153 22.6979 29.0179 22.6989 29.0205 22.7ZM29.0703 22.7273L29.0674 22.7302L29.0615 22.7214C29.0645 22.7234 29.0674 22.7253 29.0703 22.7273Z" stroke="white" stroke-width="0.5"/>
<path d="M32.5883 20.0285C29.0672 24.4917 19.6623 29.7118 12.972 29.7429C9.11525 29.7429 8.34082 26.1547 10.0914 24.166C10.0914 24.166 8.20329 30.9733 19.7478 27.3478C20.3957 27.1365 21.2444 26.8333 22.2268 26.4205C22.3397 26.3733 22.4548 26.3249 22.5725 26.2738C23.4273 25.9047 24.3716 25.4548 25.3663 24.9153C25.4134 24.8905 25.4592 24.8644 25.5063 24.8383C25.5521 24.8147 25.5968 24.7899 25.6414 24.7638C25.8272 24.6619 26.0131 24.5563 26.2014 24.4481C26.4504 24.3013 26.6895 24.1548 26.9213 24.0081C27.0204 23.9471 27.1171 23.885 27.2125 23.8242C27.2757 23.7819 27.3388 23.7409 27.4007 23.6999C27.4019 23.6986 27.4032 23.6986 27.4032 23.6975C27.418 23.6887 27.4317 23.6788 27.4454 23.6702C27.4503 23.6664 27.4566 23.6628 27.4615 23.659C27.4678 23.6552 27.4739 23.6515 27.4801 23.6466C27.4826 23.6453 27.4839 23.6441 27.4864 23.6416C27.6834 23.5124 27.8729 23.3819 28.0562 23.2514C28.1343 23.1942 28.2111 23.1357 28.288 23.0799C36.7288 16.761 33.1608 14.3821 33.0356 14.3013C33.1521 14.351 36.0401 15.6523 32.5883 20.0285Z" fill="white"/>
<path d="M36.3789 16.5891C36.3789 16.5891 33.6236 22.4338 25.4281 27.0382C17.8028 31.1415 10.9141 31.5947 10.9141 31.5947C10.9141 31.5947 19.8931 31.9287 27.0908 27.1574C34.0508 22.5532 36.3786 16.5891 36.3786 16.5891H36.3789Z" fill="white"/>
<path d="M22.2229 32.4295C22.3175 32.4321 22.4123 32.4337 22.5074 32.4337C22.6538 32.4337 22.7991 32.4286 22.944 32.4227L22.8358 29.5479C22.5404 29.6111 22.3267 29.7429 22.3267 29.7429L22.2227 32.4295H22.2229Z" fill="white"/>
</g>
<path d="M22.3948 38.7896C31.4494 38.7896 38.7896 31.4494 38.7896 22.3948C38.7896 13.3402 31.4494 6 22.3948 6C13.3402 6 6 13.3402 6 22.3948C6 31.4494 13.3402 38.7896 22.3948 38.7896Z" stroke="white" stroke-dasharray="2.98 2.98"/>
</g>
<defs>
<clipPath id="clip0_251_3039">
<rect width="44" height="44" fill="white"/>
</clipPath>
<clipPath id="clip1_251_3039">
<rect width="29.0635" height="24.5922" fill="white" transform="translate(7.49219 9.72607)"/>
</clipPath>
</defs>
</svg>
