<svg width="44" height="44" viewBox="0 0 44 44" fill="none" xmlns="http://www.w3.org/2000/svg">
<g clip-path="url(#clip0_251_3069)">
<path fill-rule="evenodd" clip-rule="evenodd" d="M22 44C9.86915 44 0 34.1309 0 22C0 9.86915 9.86915 0 22 0C34.1309 0 44 9.86915 44 22C44 34.1309 34.1309 44 22 44Z" fill="#ED9A4C"/>
<path d="M13.1654 30.8334V16.2501C13.1654 15.9738 13.2751 15.7089 13.4705 15.5135C13.6658 15.3182 13.9308 15.2084 14.207 15.2084H15.4362C15.6511 15.8163 16.0488 16.3428 16.5747 16.7158C17.1006 17.0887 17.729 17.2899 18.3737 17.2917H22.5404C23.1851 17.2899 23.8135 17.0887 24.3394 16.7158C24.8653 16.3428 25.263 15.8163 25.4779 15.2084H26.707C26.9833 15.2084 27.2483 15.3182 27.4436 15.5135C27.639 15.7089 27.7487 15.9738 27.7487 16.2501V21.4584H29.832V16.2501C29.832 15.4213 29.5028 14.6264 28.9167 14.0404C28.3307 13.4543 27.5358 13.1251 26.707 13.1251H25.4779C25.263 12.5172 24.8653 11.9907 24.3394 11.6177C23.8135 11.2447 23.1851 11.0436 22.5404 11.0417H18.3737C17.729 11.0436 17.1006 11.2447 16.5747 11.6177C16.0488 11.9907 15.6511 12.5172 15.4362 13.1251H14.207C13.3782 13.1251 12.5834 13.4543 11.9973 14.0404C11.4113 14.6264 11.082 15.4213 11.082 16.2501V30.8334C11.082 31.6622 11.4113 32.4571 11.9973 33.0431C12.5834 33.6292 13.3782 33.9584 14.207 33.9584H19.4154V31.8751H14.207C13.9308 31.8751 13.6658 31.7653 13.4705 31.57C13.2751 31.3746 13.1654 31.1097 13.1654 30.8334ZM18.3737 13.1251H22.5404C22.8166 13.1251 23.0816 13.2348 23.2769 13.4302C23.4723 13.6255 23.582 13.8905 23.582 14.1667C23.582 14.443 23.4723 14.708 23.2769 14.9033C23.0816 15.0987 22.8166 15.2084 22.5404 15.2084H18.3737C18.0974 15.2084 17.8325 15.0987 17.6371 14.9033C17.4418 14.708 17.332 14.443 17.332 14.1667C17.332 13.8905 17.4418 13.6255 17.6371 13.4302C17.8325 13.2348 18.0974 13.1251 18.3737 13.1251ZM31.0924 24.3647C30.4723 23.7725 29.6478 23.442 28.7904 23.442C27.9329 23.442 27.1084 23.7725 26.4883 24.3647L21.8008 29.0522C21.7042 29.1495 21.6279 29.2649 21.576 29.3918C21.5242 29.5188 21.4979 29.6547 21.4987 29.7917V32.9167C21.4987 33.193 21.6084 33.458 21.8038 33.6533C21.9991 33.8487 22.2641 33.9584 22.5404 33.9584H25.6654C25.8025 33.9592 25.9384 33.9329 26.0653 33.8811C26.1922 33.8293 26.3076 33.7529 26.4049 33.6563L31.0924 28.9688C31.6993 28.3563 32.0398 27.529 32.0398 26.6667C32.0398 25.8045 31.6993 24.9772 31.0924 24.3647ZM29.6133 27.4897L25.2383 31.8751H23.582V30.2188L27.9674 25.8438C28.1874 25.6288 28.4828 25.5084 28.7904 25.5084C29.098 25.5084 29.3933 25.6288 29.6133 25.8438C29.7223 25.9514 29.8088 26.0795 29.8678 26.2208C29.9269 26.362 29.9573 26.5136 29.9573 26.6667C29.9573 26.8199 29.9269 26.9714 29.8678 27.1127C29.8088 27.254 29.7223 27.3821 29.6133 27.4897ZM24.6237 21.4584H16.2904V19.3751H24.6237V21.4584ZM16.2904 23.5417H22.5404V25.6251H16.2904V23.5417Z" fill="white"/>
</g>
<defs>
<clipPath id="clip0_251_3069">
<rect width="44" height="44" fill="white"/>
</clipPath>
</defs>
</svg>
