<svg width="64" height="64" viewBox="0 0 64 64" fill="none" xmlns="http://www.w3.org/2000/svg">
<path d="M62.2032 10.4281C62.2032 8.01175 61.7911 5.64038 60.9781 3.3795C60.6946 2.5915 59.8211 2.15938 59.0309 2.41738C57.9083 2.78375 56.4961 2.12262 55.0013 1.42262C53.5776 0.75575 51.9636 0 50.2643 0C48.5651 0 46.9509 0.75575 45.5271 1.4225C44.0324 2.12238 42.6207 2.7835 41.4974 2.41725C40.7071 2.15975 39.8336 2.5915 39.5504 3.37963C38.7376 5.64013 38.3253 8.01163 38.3253 10.4281C38.3253 10.7812 38.3372 11.1306 38.3549 11.4777C35.3277 10.2446 32.0196 9.5625 28.5546 9.5625C14.1837 9.5625 2.49206 21.2541 2.49206 35.625C2.49206 38.911 3.10606 42.0554 4.22106 44.9534L2.33444 46.84C1.61769 47.5569 1.61769 48.7234 2.33444 49.4404L16.3556 63.4614C16.7028 63.8088 17.1647 64 17.6558 64C18.1469 64 18.6087 63.8088 18.9561 63.4614L21.6582 60.7593C23.8557 61.3633 26.1678 61.6875 28.5544 61.6875C30.9411 61.6875 33.2532 61.3633 35.4507 60.7593L38.1528 63.4613C38.5001 63.8086 38.9619 63.9999 39.4531 63.9999C39.9442 63.9999 40.4059 63.8086 40.7533 63.4613L46.1228 58.0918C46.4889 57.7256 46.4889 57.132 46.1228 56.766C45.7566 56.3999 45.1631 56.3999 44.7969 56.766L39.4531 62.1099L34.5632 57.22L48.5332 43.2501L53.4229 48.14L47.8904 53.6724C47.5243 54.0385 47.5243 54.6321 47.8904 54.9981C48.2567 55.3642 48.8502 55.3642 49.2163 54.9981L54.7743 49.4401C55.1216 49.0928 55.3129 48.631 55.3129 48.1399C55.3129 47.6486 55.1217 47.1869 54.7743 46.8396L52.8878 44.9531C54.0028 42.0551 54.6168 38.9107 54.6168 35.6247C54.6168 32.4617 54.0474 29.4301 53.0106 26.623C58.9587 22.8325 62.2032 17.1566 62.2032 10.4281ZM17.6559 62.11L3.68594 48.1401L8.57569 43.2504L22.5457 57.2202L17.6559 62.11ZM27.3176 25.5959H29.1679L30.9144 27.3424C31.2577 27.6857 31.4409 28.1423 31.4302 28.6279C31.4196 29.113 31.2156 29.5616 30.8559 29.8909C30.1712 30.5175 29.0524 30.4656 28.3621 29.775L22.1648 23.5777C21.4777 22.8905 21.4777 21.7725 22.1647 21.0853C22.4233 20.8268 22.7429 20.667 23.0774 20.6035C23.0751 20.6476 23.0707 20.6912 23.0707 20.7359V21.349C23.0707 23.6908 24.9758 25.5959 27.3176 25.5959ZM24.9457 21.349V20.7359C24.9457 20.4382 25.1879 20.1961 25.4854 20.1961H30.3063C30.9357 20.1961 31.5033 20.5303 31.8158 21.0492L29.1439 23.7211H27.3176C26.0097 23.7209 24.9457 22.6569 24.9457 21.349ZM27.8034 31.868C28.1399 32.2045 28.3232 32.652 28.3196 33.128C28.3158 33.604 28.1254 34.0486 27.7837 34.3799C27.0967 35.0456 25.9873 35.037 25.3111 34.3605L18.3466 27.396H18.3464C18.0136 27.0631 17.8302 26.6205 17.8302 26.1497C17.8302 25.679 18.0136 25.2364 18.3466 24.9035C18.6793 24.5706 19.1219 24.3874 19.5928 24.3874C20.0636 24.3874 20.5062 24.5706 20.8389 24.9035L27.8034 31.868ZM22.7386 34.4398C23.0752 34.7764 23.2584 35.2239 23.2547 35.6999C23.2511 36.1759 23.0607 36.6204 22.7188 36.9518C22.0318 37.6176 20.9226 37.6088 20.2462 36.9324L15.6968 32.383L14.5282 31.2144C14.1953 30.8815 14.0121 30.4389 14.0121 29.9681C14.0121 29.4974 14.1953 29.0547 14.5282 28.7219C14.8718 28.3783 15.3232 28.2065 15.7746 28.2065C16.2257 28.2065 16.6769 28.3781 17.0204 28.7215L17.0208 28.7219L22.7386 34.4398ZM14.3697 33.7075L17.4166 36.7544C17.7527 37.0909 17.9358 37.5381 17.9321 38.0136C17.9283 38.4896 17.7379 38.9342 17.3962 39.2655C16.7091 39.9312 15.5999 39.9226 14.9236 39.2461L11.8784 36.201C11.1913 35.5138 11.1913 34.3957 11.8783 33.7085C12.2219 33.3649 12.6733 33.1931 13.1247 33.1931C13.5754 33.1934 14.0262 33.3647 14.3697 33.7075ZM16.1703 41.631C17.0847 41.631 17.9997 41.2919 18.7012 40.612C19.2046 40.1241 19.5477 39.5169 19.7064 38.8522C20.2579 39.1612 20.8752 39.317 21.4929 39.317C22.4073 39.317 23.3222 38.9779 24.0237 38.298C24.5559 37.7822 24.9099 37.1332 25.0551 36.4239C25.5306 36.6376 26.0439 36.7453 26.5577 36.7453C27.4721 36.7453 28.3871 36.4061 29.0886 35.7262C29.7941 35.0425 30.1868 34.125 30.1944 33.1426C30.1969 32.8174 30.1563 32.4987 30.0767 32.1926C30.8177 32.1149 31.5359 31.8104 32.1219 31.2739C32.8626 30.5959 33.2826 29.6709 33.3047 28.6694C33.3267 27.6674 32.9486 26.7253 32.2401 26.0168L30.8699 24.6466L33.8626 21.654C34.5501 20.967 35.6681 20.9669 36.3551 21.654C37.0414 22.3404 37.0422 23.4568 36.3576 24.1441C36.3568 24.1449 36.3561 24.1456 36.3552 24.1465C35.9891 24.5126 35.9891 25.1063 36.3553 25.4722C36.7213 25.8384 37.3149 25.8382 37.6811 25.4722C38.3681 24.7851 39.4863 24.7851 40.1733 25.4722C40.8597 26.1586 40.8604 27.275 40.1757 27.9624C40.1749 27.9631 40.1742 27.9639 40.1734 27.9648H40.1733C39.8072 28.3309 39.8072 28.9245 40.1733 29.2905C40.5394 29.6566 41.1331 29.6566 41.4991 29.2905C41.8321 28.9575 42.2746 28.7743 42.7454 28.7743C43.2162 28.7743 43.6588 28.9575 43.9916 29.2904C44.6788 29.9776 44.6788 31.0958 43.9916 31.7829C43.6254 32.149 43.6254 32.7426 43.9916 33.1086C44.3577 33.4747 44.9513 33.4747 45.3173 33.1086C45.6583 32.7677 46.1081 32.584 46.5934 32.5928C47.0751 32.6007 47.5222 32.7996 47.8523 33.1526C48.4936 33.838 48.4521 34.9589 47.7598 35.6511L41.0333 42.3776C40.6672 42.7437 40.6672 43.3374 41.0333 43.7034C41.3996 44.0695 41.9931 44.0695 42.3592 43.7034L44.0001 42.0631L45.5344 43.5975L35.5853 53.5466L30.2048 48.1661C30.9701 47.8981 31.7848 47.7695 32.6072 47.8001L34.3913 47.866C35.9629 47.9251 37.5138 47.542 38.8808 46.7609C39.3304 46.504 39.4867 45.9313 39.2297 45.4818C38.9728 45.0321 38.3999 44.876 37.9507 45.1328C36.8877 45.7401 35.6796 46.0376 34.4607 45.9921L32.6766 45.9263C30.3444 45.8387 28.0599 46.737 26.4097 48.3872L21.3872 53.4098L11.7468 43.7695L14.3623 41.154C14.9192 41.4714 15.5444 41.631 16.1703 41.631ZM28.5546 59.8125C26.7166 59.8125 24.9273 59.6024 23.2058 59.2118L23.8972 58.5204C24.2444 58.1731 24.4358 57.7112 24.4358 57.2201C24.4358 56.7289 24.2446 56.2671 23.8972 55.9199L22.7131 54.7357L27.7357 49.7131C27.9652 49.4835 28.2112 49.2736 28.4698 49.0825L34.2596 54.8722L33.2119 55.9199C32.4953 56.6367 32.4953 57.8032 33.2121 58.5202L33.9034 59.2116C32.1818 59.6024 30.3926 59.8125 28.5546 59.8125ZM52.7421 35.625C52.7421 38.3783 52.2788 41.0251 51.4274 43.4929L49.8336 41.899C49.4863 41.5516 49.0244 41.3604 48.5333 41.3604C48.0422 41.3604 47.5803 41.5516 47.2331 41.899L46.8603 42.2718L45.3259 40.7374L49.0862 36.9771C50.4853 35.5779 50.5464 33.2876 49.2222 31.872C48.5418 31.1445 47.6194 30.7347 46.6252 30.7181C46.5422 30.7166 46.4593 30.7181 46.3769 30.7222C46.4271 29.73 46.0741 28.7209 45.3179 27.9646C44.6309 27.2776 43.7174 26.8993 42.7459 26.8993C42.6832 26.8993 42.6207 26.9009 42.5586 26.904C42.6087 25.9117 42.2558 24.9025 41.4996 24.1464C40.7428 23.3896 39.7338 23.0373 38.7402 23.0875C38.7909 22.0946 38.4379 21.0847 37.6812 20.3281C36.4739 19.1209 34.6226 18.942 33.2234 19.7903C32.5522 18.8883 31.4827 18.3211 30.3066 18.3211H25.4857C24.9683 18.3211 24.4896 18.4861 24.0961 18.7642C22.9519 18.546 21.7232 18.8755 20.8391 19.7594C20.0828 20.5156 19.7302 21.5247 19.7804 22.5171C19.7182 22.514 19.6557 22.5123 19.5929 22.5123C18.6213 22.5123 17.7078 22.8906 17.0209 23.5776C16.3338 24.2646 15.9554 25.1781 15.9554 26.1497C15.9554 26.2125 15.9572 26.275 15.9603 26.3372C14.9681 26.287 13.9589 26.6397 13.2027 27.396C12.5156 28.083 12.1373 28.9965 12.1373 29.9681C12.1373 30.4637 12.2363 30.944 12.4239 31.387C11.7379 31.5208 11.0832 31.8526 10.5528 32.3829C9.13469 33.8011 9.13469 36.1087 10.5528 37.527L12.9456 39.9198L10.4213 42.444L9.87631 41.899C9.52906 41.5516 9.06719 41.3604 8.57606 41.3604C8.08494 41.3604 7.62319 41.5516 7.27594 41.899L5.68206 43.4929C4.83081 41.0251 4.36756 38.3783 4.36756 35.625C4.36756 22.288 15.2181 11.4375 28.5551 11.4375C32.1304 11.4375 35.5257 12.2199 38.5824 13.6185C39.5657 19.6408 43.3718 24.6009 49.5489 27.7909C49.7731 27.9066 50.0189 27.9646 50.2648 27.9646C50.5106 27.9646 50.7564 27.9067 50.9803 27.791C51.1109 27.7235 51.2382 27.6536 51.3666 27.5846C52.2559 30.1014 52.7421 32.8073 52.7421 35.625ZM50.2643 26.0495C47.1618 24.4221 44.7208 22.324 43.0073 19.8113C41.1447 17.0795 40.2002 13.9226 40.2002 10.4281C40.2002 8.32525 40.5428 6.2605 41.2193 4.28587C42.9448 4.70212 44.6603 3.89887 46.3221 3.12063C47.6299 2.50825 48.9822 1.875 50.2643 1.875C51.5463 1.875 52.8986 2.50825 54.2063 3.12063C55.8682 3.899 57.5838 4.70225 59.3092 4.28587C59.9856 6.26038 60.3282 8.32538 60.3282 10.4281C60.3282 13.9226 59.3837 17.0795 57.5211 19.8113C55.8077 22.3239 53.3667 24.4221 50.2643 26.0495Z" fill="#ED4C5C"/>
<path d="M56.7356 11.6447C57.2298 11.4901 57.5049 10.9641 57.3503 10.47C56.3763 7.35796 53.5294 5.26709 50.2661 5.26709C46.1735 5.26709 42.8438 8.59671 42.8438 12.6893C42.8438 16.782 46.1735 20.1116 50.2661 20.1116C53.3028 20.1116 56.0029 18.2926 57.1449 15.4773C57.3395 14.9976 57.1084 14.4508 56.6285 14.2562C56.1485 14.0613 55.6019 14.2927 55.4073 14.7725C54.5536 16.8767 52.5355 18.2365 50.266 18.2365C47.2071 18.2365 44.7186 15.748 44.7186 12.6892C44.7186 9.63046 47.2071 7.14196 50.266 7.14196C52.7051 7.14196 54.8329 8.70446 55.5608 11.03C55.7155 11.5242 56.242 11.7993 56.7356 11.6447Z" fill="#ED4C5C"/>
<path d="M52.7207 10.4098L49.8257 13.305L47.8075 11.2867C47.4412 10.9206 46.8477 10.9206 46.4816 11.2867C46.1155 11.6528 46.1155 12.2465 46.4816 12.6125L49.1628 15.2936C49.3459 15.4766 49.5859 15.5682 49.8257 15.5682C50.0656 15.5682 50.3056 15.4767 50.4888 15.2936L54.0467 11.7356C54.4129 11.3695 54.4129 10.7758 54.0467 10.4098C53.6805 10.0437 53.087 10.0437 52.7207 10.4098Z" fill="#ED4C5C"/>
</svg>
