<svg width="64" height="64" viewBox="0 0 64 64" fill="none" xmlns="http://www.w3.org/2000/svg">
<path fill-rule="evenodd" clip-rule="evenodd" d="M25.875 54.355L27.375 52.625C27.5257 52.449 27.6208 52.2323 27.6485 52.0022C27.6762 51.7722 27.6353 51.5391 27.5307 51.3324C27.4262 51.1256 27.2628 50.9544 27.0612 50.8403C26.8595 50.7262 26.6286 50.6743 26.3975 50.6912C26.0125 50.7212 25.7988 50.8775 25.555 51.1425L22.2875 54.9313C22.0625 55.2125 21.9388 55.4512 21.9675 55.835C21.9784 55.988 22.0195 56.1373 22.0883 56.2743C22.1571 56.4114 22.2523 56.5335 22.3685 56.6336C22.4846 56.7338 22.6195 56.81 22.7652 56.8578C22.9109 56.9057 23.0646 56.9243 23.2175 56.9125C23.6025 56.8837 23.8163 56.7275 24.06 56.4625L25.875 54.355ZM25.3988 57.6925L27.2563 55.53C27.4596 55.2982 27.7462 55.1558 28.0538 55.1338C29.12 55.0537 29.6938 56.2962 29.0313 57.0675L27.18 59.225C27.0794 59.3418 26.9567 59.4376 26.8191 59.507C26.6814 59.5764 26.5314 59.618 26.3777 59.6295C26.224 59.6409 26.0695 59.6219 25.9231 59.5737C25.7767 59.5254 25.6412 59.4487 25.5244 59.3481C25.4076 59.2475 25.3118 59.1249 25.2424 58.9872C25.173 58.8495 25.1314 58.6996 25.1199 58.5458C25.1085 58.3921 25.1275 58.2376 25.1757 58.0912C25.224 57.9448 25.3006 57.8093 25.4013 57.6925H25.3988ZM29.1125 33.0675C29.0863 33.0925 29.0575 33.1175 29.0288 33.14L24.7363 36.8587C24.5104 37.0484 24.332 37.2881 24.215 37.5588C24.1276 37.7738 24.0892 38.0057 24.1025 38.2375C24.4027 39.1214 24.5823 40.0418 24.6363 40.9738C24.7138 42.1702 24.6996 43.3708 24.5938 44.565C25.6063 44.6483 26.3813 44.3567 26.9188 43.69C27.5413 42.9158 27.9163 41.6413 28.0438 39.8662C28.1017 39.2681 28.2922 38.6904 28.6013 38.175C28.7772 37.9043 29.0089 37.6742 29.2809 37.5003C29.5529 37.3264 29.8589 37.2126 30.1785 37.1666C30.4981 37.1205 30.8238 37.1433 31.1338 37.2333C31.4439 37.3234 31.7311 37.4787 31.9763 37.6888L44.2775 48.25C45.9025 48.0962 47.1313 47.1163 48.0975 45.7125C48.42 45.2316 48.8924 44.8708 49.4413 44.6862L50.5088 44.3112L46.105 31.7563L43.625 32.625C42.8806 32.8964 42.0761 32.9587 41.2988 32.805L32.7988 31.2337C32.3953 31.1525 31.9785 31.1667 31.5816 31.2753C31.1846 31.3838 30.8185 31.5836 30.5125 31.8587L29.1138 33.0713L29.1125 33.0675ZM15.5775 47.1925C14.9525 46.5025 15.2025 46.005 14.6313 45.2912C14.2663 44.8412 13.8625 44.6888 13.3575 44.445L19.125 32.445L21.7675 33.715C21.91 33.7829 22.0676 33.8127 22.225 33.8013L25.8075 33.53L23.5475 35.4875C22.655 36.2612 22.1725 37.355 22.305 38.54C22.3133 38.6166 22.3313 38.6918 22.3588 38.7637C22.9588 40.325 22.93 42.6387 22.77 44.5537C22.7643 44.6246 22.7668 44.6959 22.7775 44.7663C22.8193 45.1857 23.0077 45.5769 23.3095 45.8712C23.6113 46.1654 24.0072 46.3438 24.4275 46.375C26.0892 46.5225 27.3917 46.01 28.335 44.8375C29.1925 43.77 29.7008 42.1637 29.86 40.0187C29.8937 39.7216 29.9845 39.4338 30.1275 39.1712C30.1628 39.1161 30.2097 39.0692 30.2649 39.0339C30.32 38.9986 30.3822 38.9757 30.4471 38.9668C30.512 38.9579 30.5781 38.9632 30.6407 38.9823C30.7034 39.0014 30.7611 39.0339 30.81 39.0775L45.06 51.3275C45.325 51.57 45.4813 51.785 45.51 52.17C45.5273 52.4011 45.4757 52.6321 45.3618 52.8339C45.2479 53.0356 45.0768 53.1991 44.87 53.3037C44.6632 53.4083 44.4301 53.4493 44.2001 53.4215C43.97 53.3937 43.7534 53.2983 43.5775 53.1475L37.6088 48.0225C37.4251 47.8772 37.1923 47.8086 36.9592 47.8311C36.7262 47.8537 36.5108 47.9656 36.3584 48.1434C36.206 48.3212 36.1283 48.551 36.1417 48.7849C36.155 49.0187 36.2584 49.2382 36.43 49.3975L41.555 53.8037C41.6717 53.9045 41.7675 54.0272 41.8367 54.1649C41.906 54.3026 41.9475 54.4526 41.9588 54.6063C41.9702 54.7601 41.9511 54.9145 41.9027 55.0609C41.8543 55.2073 41.7776 55.3427 41.6769 55.4594C41.5762 55.5761 41.4535 55.6718 41.3158 55.7411C41.1781 55.8104 41.0281 55.8519 40.8743 55.8632C40.7206 55.8745 40.5661 55.8554 40.4197 55.8071C40.2734 55.7587 40.138 55.682 40.0213 55.5812L34.8963 51.1763C34.7126 51.0309 34.4798 50.9624 34.2467 50.9849C34.0137 51.0074 33.7983 51.1193 33.6459 51.2971C33.4935 51.4749 33.4158 51.7048 33.4292 51.9386C33.4425 52.1724 33.5458 52.392 33.7175 52.5513L37.875 56.1162C38.1388 56.36 38.2963 56.5738 38.325 56.9588C38.3422 57.1899 38.2905 57.421 38.1766 57.6229C38.0626 57.8247 37.8914 57.9883 37.6845 58.093C37.4777 58.1977 37.2445 58.2388 37.0144 58.2111C36.7842 58.1835 36.5674 58.0882 36.3913 57.9375L32.9425 54.9725C32.8531 54.8895 32.7478 54.8254 32.633 54.7841C32.5182 54.7428 32.3962 54.7251 32.2744 54.732C32.1526 54.739 32.0335 54.7705 31.9241 54.8246C31.8148 54.8787 31.7175 54.9543 31.6381 55.047C31.5586 55.1396 31.4988 55.2473 31.462 55.3637C31.4252 55.48 31.4123 55.6026 31.424 55.724C31.4358 55.8454 31.4719 55.9633 31.5303 56.0704C31.5887 56.1775 31.6681 56.2718 31.7638 56.3475L33.8275 58.125C34.0603 58.3277 34.2033 58.6145 34.225 58.9225C34.305 59.9888 33.0625 60.5625 32.2913 59.9L30.3925 58.2675C30.721 57.8919 30.9503 57.4401 31.0595 56.9532C31.1687 56.4663 31.1543 55.9598 31.0176 55.4799C30.8809 55 30.6263 54.5619 30.2769 54.2056C29.9276 53.8493 29.4946 53.5861 29.0175 53.44C29.3881 52.8446 29.5383 52.1382 29.4422 51.4436C29.346 50.7489 29.0096 50.1099 28.4913 49.6375V49.6312C28.0664 49.2492 27.541 48.9969 26.9771 48.9043C26.4133 48.8117 25.8347 48.8826 25.31 49.1087C25.1421 48.6418 24.8607 48.224 24.4911 47.893C24.1215 47.562 23.6753 47.3281 23.1928 47.2126C22.7103 47.097 22.2066 47.1033 21.7271 47.2309C21.2476 47.3586 20.8074 47.6035 20.4463 47.9437C20.2351 47.5098 19.9221 47.1334 19.5339 46.8466C19.1457 46.5599 18.6939 46.3713 18.2171 46.297C17.7402 46.2227 17.2524 46.2649 16.7954 46.4199C16.3384 46.575 15.9257 46.8384 15.5925 47.1875L15.5775 47.1925ZM16.91 51.4912C17.2179 51.4693 17.5046 51.3264 17.7075 51.0938L18.635 50.0125C18.8332 49.7757 18.9302 49.4704 18.9048 49.1626C18.8794 48.8548 18.7338 48.5695 18.4994 48.3684C18.2651 48.1672 17.961 48.0666 17.6529 48.0882C17.3449 48.1098 17.0577 48.2519 16.8538 48.4837L15.9 49.595C15.525 50.0263 15.5838 50.8125 16.0175 51.1813C16.1365 51.2923 16.2773 51.3772 16.431 51.4306C16.5847 51.484 16.7479 51.5046 16.91 51.4912ZM19.0888 52.2675L21.5888 49.3525C21.7917 49.1156 22.0803 48.9691 22.3913 48.945C22.7022 48.921 23.01 49.0215 23.2469 49.2244C23.4838 49.4273 23.6303 49.7159 23.6544 50.0269C23.6784 50.3379 23.5779 50.6456 23.375 50.8825L20.8675 53.8013C20.7666 53.9179 20.6438 54.0135 20.506 54.0826C20.3681 54.1518 20.218 54.1931 20.0642 54.2043C19.9104 54.2154 19.756 54.1962 19.6096 54.1476C19.4632 54.099 19.3279 54.0221 19.2113 53.9212C19.0946 53.8204 18.999 53.6975 18.9299 53.5597C18.8607 53.4219 18.8194 53.2718 18.8082 53.118C18.7971 52.9642 18.8164 52.8097 18.8649 52.6633C18.9135 52.517 18.9904 52.3816 19.0913 52.265L19.0888 52.2675ZM22.3388 5.11125C21.7231 4.49557 20.9386 4.0763 20.0846 3.90645C19.2306 3.7366 18.3454 3.8238 17.541 4.15702C16.7366 4.49024 16.049 5.05452 15.5653 5.7785C15.0815 6.50248 14.8233 7.35365 14.8233 8.22437C14.8233 9.0951 15.0815 9.94627 15.5653 10.6702C16.049 11.3942 16.7366 11.9585 17.541 12.2917C18.3454 12.625 19.2306 12.7122 20.0846 12.5423C20.9386 12.3724 21.7231 11.9532 22.3388 11.3375C22.7476 10.9287 23.0719 10.4433 23.2932 9.9092C23.5144 9.37504 23.6283 8.80254 23.6283 8.22437C23.6283 7.64621 23.5144 7.07371 23.2932 6.53955C23.0719 6.0054 22.7476 5.52006 22.3388 5.11125ZM19.2288 2C20.4593 2 21.6621 2.3649 22.6852 3.04856C23.7083 3.73221 24.5057 4.70391 24.9766 5.84077C25.4474 6.97763 25.5705 8.22858 25.3304 9.43542C25.0902 10.6423 24.4976 11.7508 23.6274 12.6208C22.7572 13.4908 21.6486 14.0832 20.4417 14.3231C19.2348 14.563 17.9839 14.4396 16.8471 13.9686C15.7104 13.4975 14.7388 12.6999 14.0554 11.6767C13.3719 10.6534 13.0073 9.4505 13.0075 8.22C13.0078 6.57024 13.6634 4.98816 14.8301 3.82172C15.9968 2.65528 17.579 2 19.2288 2ZM13.4413 27.4625C13.3163 27.4263 13.18 27.4137 13.105 27.57L5.79626 42.7725C5.76902 42.8309 5.76538 42.8976 5.78611 42.9586C5.80684 43.0196 5.85033 43.0703 5.90751 43.1L10.5588 45.3363C10.6563 45.3775 10.7113 45.4188 10.8213 45.38C10.9313 45.3413 10.9463 45.275 10.9963 45.1825L18.2325 30.1313C18.2775 30.025 18.3575 29.8575 18.18 29.7463L13.4413 27.4638V27.4625ZM12.7925 23.35V25.6938C12.743 25.7061 12.6942 25.7211 12.6463 25.7388C11.7625 26.0475 11.5375 26.6525 11.185 27.385C10.3313 26.7738 9.76501 25.8425 9.47126 24.775C8.87501 22.6038 9.39501 19.9175 10.8025 18.125C11.7 16.9812 12.9813 16.175 14.6088 16.0575C15.9431 17.0451 17.5593 17.5782 19.2194 17.5782C20.8795 17.5782 22.4957 17.0451 23.83 16.0575C26.2863 16.235 27.9613 17.9925 28.7313 20.1187C29.8088 23.0925 29.2125 27.3475 25.665 28.0637V23.3512C25.6563 23.1159 25.5567 22.8931 25.3871 22.7297C25.2175 22.5663 24.9911 22.475 24.7556 22.475C24.5201 22.475 24.2938 22.5663 24.1242 22.7297C23.9546 22.8931 23.855 23.1159 23.8463 23.3512V28.1562H19.05L14.61 26.0175V23.3512C14.61 23.1102 14.5143 22.8791 14.3438 22.7087C14.1734 22.5382 13.9423 22.4425 13.7013 22.4425C13.4602 22.4425 13.2291 22.5382 13.0587 22.7087C12.8883 22.8791 12.7925 23.1102 12.7925 23.3512V23.35ZM47.8925 5.10875C47.2768 4.49307 46.4924 4.0738 45.6384 3.90395C44.7844 3.7341 43.8992 3.8213 43.0947 4.15452C42.2903 4.48774 41.6027 5.05202 41.119 5.776C40.6353 6.49998 40.3771 7.35115 40.3771 8.22188C40.3771 9.0926 40.6353 9.94377 41.119 10.6677C41.6027 11.3917 42.2903 11.956 43.0947 12.2892C43.8992 12.6225 44.7844 12.7097 45.6384 12.5398C46.4924 12.3699 47.2768 11.9507 47.8925 11.335C48.3015 10.9263 48.6259 10.441 48.8473 9.9068C49.0686 9.37263 49.1826 8.80009 49.1826 8.22188C49.1826 7.64366 49.0686 7.07112 48.8473 6.53695C48.6259 6.00279 48.3015 5.51748 47.8925 5.10875ZM44.78 2C46.0105 2 47.2134 2.3649 48.2365 3.04856C49.2596 3.73221 50.057 4.70391 50.5278 5.84077C50.9987 6.97763 51.1218 8.22858 50.8816 9.43542C50.6415 10.6423 50.0488 11.7508 49.1787 12.6208C48.3085 13.4908 47.1998 14.0832 45.993 14.3231C44.7861 14.563 43.5351 14.4396 42.3984 13.9686C41.2616 13.4975 40.2901 12.6999 39.6066 11.6767C38.9232 10.6534 38.5585 9.4505 38.5588 8.22C38.5591 6.57024 39.2147 4.98816 40.3814 3.82172C41.548 2.65528 43.1302 2 44.78 2ZM50.6763 28.01L52.3213 27.4325C52.3822 27.4125 52.4484 27.4166 52.5063 27.4441C52.5643 27.4715 52.6094 27.5202 52.6325 27.58L58.2125 43.5C58.2326 43.5607 58.2286 43.6269 58.2014 43.6848C58.1742 43.7427 58.1258 43.7879 58.0663 43.8112L53.1913 45.5213C52.9475 45.5963 52.8775 45.5562 52.7875 45.3275L47.2275 29.48C47.2074 29.4193 47.2114 29.3531 47.2386 29.2952C47.2658 29.2373 47.3142 29.1921 47.3738 29.1688L50.5375 28.06C50.585 28.0475 50.6314 28.0312 50.6763 28.0112V28.01ZM39.325 29.9713H39.1475C36.1725 29.885 34.3138 28.1675 33.4725 25.8775C32.7388 23.8775 32.8325 21.51 33.5625 19.495C34.5925 16.65 36.9225 14.3175 40.3938 14.2362C40.6199 14.2235 40.8426 14.2952 41.0188 14.4375C42.0786 15.2964 43.4014 15.7651 44.7656 15.7651C46.1298 15.7651 47.4526 15.2964 48.5125 14.4375C48.6776 14.3031 48.8847 14.231 49.0975 14.2338C56.175 14.3588 58.6325 23.9237 54.7313 28.1087L59.925 42.9012C60.1049 43.4168 60.073 43.9826 59.8364 44.4747C59.5997 44.9668 59.1776 45.3449 58.6625 45.5262L53.715 47.2612C53.2062 47.4371 52.6487 47.407 52.1617 47.1775C51.6748 46.9479 51.2969 46.537 51.1088 46.0325C50.8238 46.1325 49.975 46.395 49.785 46.5412C49.7085 46.6005 49.6422 46.6719 49.5888 46.7525C48.63 48.145 47.445 49.2 45.9825 49.725C46.1075 49.83 46.2263 49.9338 46.3475 50.04L46.3538 50.0462C46.9391 50.5774 47.2903 51.3187 47.3306 52.1081C47.3709 52.8975 47.097 53.6708 46.5688 54.2588L46.5625 54.265C45.79 55.0675 44.7863 55.4013 43.7388 55.185C43.6707 55.5893 43.5203 55.9753 43.2968 56.3189C43.0732 56.6626 42.7814 56.9567 42.4395 57.1828C42.0975 57.4089 41.7127 57.5623 41.309 57.6334C40.9052 57.7046 40.4912 57.6919 40.0925 57.5962C39.993 58.137 39.7445 58.6391 39.375 59.0462V59.0525C38.9519 59.5172 38.3936 59.8372 37.7789 59.9675C37.1641 60.0978 36.524 60.0318 35.9488 59.7788C35.818 60.2668 35.5658 60.7137 35.2156 61.0779C34.8654 61.4421 34.4287 61.7116 33.9462 61.8614C33.4636 62.0112 32.951 62.0363 32.4562 61.9344C31.9613 61.8325 31.5004 61.607 31.1163 61.2788L29.2138 59.6437L28.515 60.4562C28.0012 61.0256 27.2884 61.3759 26.5238 61.4348C25.7591 61.4936 25.0011 61.2565 24.4063 60.7725C24.3666 60.7444 24.3294 60.7131 24.295 60.6787C23.7347 60.1751 23.3859 59.4779 23.3188 58.7275C22.9232 58.7505 22.5269 58.6951 22.1528 58.5644C21.7787 58.4338 21.4341 58.2305 21.1388 57.9663L21.1325 57.96C20.576 57.4563 20.2296 56.7614 20.1625 56.0137C19.4138 56.0601 18.6752 55.8227 18.0938 55.3488C18.0544 55.3198 18.0172 55.2881 17.9825 55.2537C17.4226 54.7499 17.0742 54.0528 17.0075 53.3025C16.6118 53.3254 16.2155 53.2701 15.8412 53.1397C15.4669 53.0093 15.122 52.8063 14.8263 52.5425C14.2828 52.0494 13.9396 51.3737 13.862 50.644C13.7843 49.9143 13.9776 49.1815 14.405 48.585C13.4188 47.6225 13.405 46.6562 13.2338 46.435C13.13 46.31 12.7738 46.1662 12.5888 46.0775C12.3454 46.5603 11.9216 46.9278 11.4093 47.1004C10.8969 47.2731 10.3372 47.237 9.85126 47L5.20126 44.7637C4.94142 44.6499 4.7078 44.4838 4.51496 44.2758C4.32212 44.0677 4.17418 43.8222 4.08037 43.5544C3.98655 43.2867 3.94887 43.0026 3.96967 42.7196C3.99047 42.4367 4.06931 42.1611 4.20126 41.91L10.3938 29.035C7.76376 27.375 7.02501 23.925 7.59876 20.9825C7.87017 19.534 8.47866 18.1697 9.37501 17C10.6363 15.3938 12.4775 14.2863 14.8463 14.2312C15.0724 14.2181 15.2953 14.2899 15.4713 14.4325C16.5311 15.2914 17.8539 15.7601 19.2181 15.7601C20.5823 15.7601 21.9051 15.2914 22.965 14.4325C23.1305 14.2979 23.338 14.2258 23.5513 14.2288C29.5263 14.33 32.2463 21.1987 30.5275 25.88C29.6875 28.1662 27.8313 29.88 24.8588 29.9662H24.6425H20.1038C20.1009 30.2552 20.0366 30.5403 19.915 30.8025L22.3313 31.965L28.115 31.5275L29.3275 30.4762C29.8378 30.0218 30.4466 29.6919 31.1059 29.5125C31.7653 29.3331 32.4573 29.3092 33.1275 29.4425L41.6275 31.015C42.0966 31.1068 42.5819 31.0692 43.0313 30.9062L45.5 30.0462L45.4775 29.975H39.365L39.325 29.9713ZM38.3438 23.3463C38.3438 23.1052 38.4395 22.8741 38.6099 22.7037C38.7804 22.5332 39.0115 22.4375 39.2525 22.4375C39.4935 22.4375 39.7247 22.5332 39.8951 22.7037C40.0655 22.8741 40.1613 23.1052 40.1613 23.3463V28.1513H45.82C46.0636 27.8293 46.3966 27.5862 46.7775 27.4525L49.4025 26.5338V23.3463C49.4112 23.1109 49.5109 22.8881 49.6805 22.7247C49.85 22.5613 50.0764 22.47 50.3119 22.47C50.5474 22.47 50.7737 22.5613 50.9433 22.7247C51.1129 22.8881 51.2125 23.1109 51.2213 23.3463V25.8962L51.7288 25.7175C52.1024 25.59 52.5047 25.5724 52.8881 25.6668C53.2714 25.7612 53.6196 25.9636 53.8913 26.25C55.4113 23.875 54.8775 20.0737 53.0163 17.9112C52.5665 17.3737 52.0129 16.9325 51.3884 16.6141C50.764 16.2958 50.0817 16.1069 49.3825 16.0588C48.0482 17.0464 46.432 17.5794 44.7719 17.5794C43.1118 17.5794 41.4956 17.0464 40.1613 16.0588C37.7075 16.235 36.0363 17.9875 35.2688 20.11C34.19 23.0888 34.795 27.3463 38.345 28.0625L38.3438 23.3463Z" fill="#ED9A4C"/>
</svg>
