<svg width="64" height="64" viewBox="0 0 64 64" fill="none" xmlns="http://www.w3.org/2000/svg">
<g clip-path="url(#clip0_175_3357)">
<path d="M19.8801 33.5811H48.2597C49.3392 34.4309 50.5865 35.0423 51.9194 35.375C53.2523 35.7077 54.6406 35.7543 55.9928 35.5115C57.3449 35.2688 58.6304 34.7423 59.7643 33.9668C60.8983 33.1912 61.855 32.1842 62.5716 31.012C63.2881 29.8399 63.7481 28.5292 63.9214 27.1664C64.0946 25.8035 63.9771 24.4195 63.5766 23.1053C63.1761 21.7912 62.5017 20.5768 61.5979 19.5422C60.694 18.5076 59.5812 17.6763 58.3327 17.103V1.17025C58.3327 0.938605 58.2406 0.716459 58.0768 0.552673C57.913 0.388887 57.6909 0.296875 57.4592 0.296875H26.8077C26.693 0.296847 26.5795 0.319407 26.4735 0.363268C26.3676 0.407128 26.2713 0.471429 26.1902 0.5525L19.2626 7.4765C19.0987 7.64033 19.0066 7.86253 19.0066 8.09425V32.7076C19.0066 32.9393 19.0986 33.1615 19.2624 33.3253C19.4262 33.4891 19.6484 33.5811 19.8801 33.5811ZM62.252 25.9395C62.252 27.5182 61.7839 29.0614 60.9068 30.374C60.0298 31.6867 58.7832 32.7097 57.3247 33.3139C55.8662 33.918 54.2613 34.0761 52.713 33.7681C51.1646 33.4602 49.7424 32.7 48.6261 31.5837C47.5098 30.4674 46.7496 29.0452 46.4416 27.4969C46.1336 25.9485 46.2917 24.3436 46.8958 22.8851C47.4999 21.4266 48.523 20.18 49.8356 19.3029C51.1482 18.4259 52.6914 17.9577 54.2701 17.9577C56.3863 17.9601 58.4151 18.8018 59.9115 20.2982C61.4078 21.7945 62.2495 23.8233 62.252 25.9395ZM56.5863 16.4915C54.8777 16.0714 53.0871 16.1233 51.4057 16.6415V8.45625L56.5863 3.27838V16.4915ZM55.3497 2.04375L50.17 7.22088H40.5613L45.7411 2.04375H55.3497ZM43.2698 2.04375L38.0901 7.22088H34.0731L39.2528 2.04375H43.2698ZM37.5783 8.96775V15.3816H32.8371V8.96775H37.5783ZM27.1693 2.04375H36.7818L31.6018 7.22088H21.9893L27.1693 2.04375ZM20.7536 8.96775H31.0901V16.2552C31.0901 16.4869 31.1821 16.7091 31.3459 16.8729C31.5097 17.0367 31.7319 17.1287 31.9636 17.1287H38.4517C38.6834 17.1287 38.9056 17.0367 39.0694 16.8729C39.2332 16.7091 39.3252 16.4869 39.3252 16.2552V8.96775H49.6582V17.3756C48.4194 18.0414 47.3398 18.9682 46.4941 20.092C45.6484 21.2158 45.0568 22.5097 44.7601 23.8845C44.4633 25.2593 44.4686 26.6821 44.7755 28.0546C45.0823 29.4272 45.6835 30.7167 46.5375 31.8342H20.7536V8.96775ZM59.592 41.3154C59.1562 41.0257 58.6627 40.8339 58.1457 40.7534C57.6286 40.6728 57.1002 40.7054 56.597 40.8489C56.5822 40.8531 56.5675 40.8579 56.553 40.863L39.2427 46.9505C38.9312 45.2934 37.9741 43.588 36.2566 42.8172L24.6268 37.6222C21.8226 36.3695 19.4018 36.8611 17.4037 37.5072L10.1055 39.8671L9.74359 38.6302C9.58827 38.1016 9.22955 37.6562 8.74617 37.3918C8.26278 37.1274 7.69424 37.0656 7.16534 37.22L1.49221 38.8784C0.963643 39.0339 0.518429 39.3929 0.25436 39.8765C-0.00970984 40.3601 -0.0710403 40.9287 0.0838391 41.4575L6.15346 62.2067C6.30771 62.7358 6.66578 63.1819 7.14891 63.4469C7.63205 63.7119 8.20067 63.7742 8.72971 63.62L14.401 61.9585C14.9293 61.8033 15.3746 61.4452 15.6395 60.9624C15.9044 60.4796 15.9672 59.9116 15.8142 59.3826L15.3392 57.7576L17.6437 57.1541L27.6697 60.8197C29.1602 61.3657 30.711 61.862 32.2936 61.8619C33.3681 61.8691 34.4283 61.6161 35.3837 61.1244L57.6372 49.7567L57.6583 49.7455C57.8597 49.6356 58.0708 49.5277 58.2937 49.4136C59.9553 48.5636 62.4663 47.2792 61.4623 43.8511C61.1665 42.8073 60.5019 41.9062 59.592 41.3154ZM14.1076 60.1226C14.0871 60.1607 14.0592 60.1944 14.0256 60.2216C13.9919 60.2489 13.9532 60.2692 13.9117 60.2814L8.24046 61.9429C8.15629 61.9663 8.0663 61.9559 7.98971 61.9138C7.91312 61.8718 7.85601 61.8015 7.83059 61.7179L1.76009 40.9655C1.7479 40.9235 1.74412 40.8796 1.74897 40.8362C1.75382 40.7928 1.7672 40.7507 1.78834 40.7125C1.80855 40.675 1.83596 40.6418 1.86902 40.6149C1.90207 40.5879 1.94012 40.5678 1.98096 40.5556H1.98234L7.65734 38.8967C7.68694 38.8879 7.71768 38.8834 7.74859 38.8834C7.82034 38.8838 7.89004 38.9073 7.94743 38.9504C8.00482 38.9935 8.04685 39.0539 8.06734 39.1226L8.68509 41.2344C8.68609 41.2375 8.68671 41.2407 8.68771 41.2439L8.68871 41.2465L14.1371 59.8715C14.1609 59.9558 14.1503 60.0461 14.1076 60.1226ZM57.4978 47.859C57.2778 47.9715 57.0506 48.0879 56.8318 48.2071L34.5882 59.5696C32.7457 60.5126 30.9463 60.16 28.27 59.1795L17.9863 55.4199C17.8192 55.3587 17.6373 55.35 17.4651 55.3949L14.8488 56.0806L10.5961 41.5445L17.9413 39.1695C20.3583 38.3877 22.0888 38.4017 23.9143 39.2174L35.5428 44.4116C36.7568 44.9564 37.607 46.4916 37.6102 48.145V48.1465C37.6102 48.1472 37.6102 48.1479 37.6102 48.1486C37.6148 48.6313 37.5307 49.1107 37.3621 49.563C36.5737 51.6426 34.5406 51.723 33.0395 51.1596L25.2153 48.2221C24.9984 48.1407 24.7581 48.1488 24.5471 48.2446C24.3362 48.3404 24.1719 48.516 24.0905 48.7329C24.0091 48.9498 24.0172 49.1902 24.113 49.4011C24.2088 49.6121 24.3844 49.7763 24.6013 49.8577L32.4256 52.7952C33.122 53.0636 33.861 53.2044 34.6072 53.2109C36.5912 53.2109 38.2617 52.1182 38.9966 50.1799C39.166 49.7271 39.2765 49.2544 39.3252 48.7734L57.1083 42.5195C57.3702 42.452 57.6434 42.4411 57.9097 42.4875C58.1761 42.5339 58.4295 42.6365 58.6531 42.7886C59.2061 43.1523 59.6084 43.7043 59.7853 44.3421C60.3555 46.2885 59.3406 46.9165 57.4978 47.859ZM52.4378 27.8124L58.0321 22.215C58.1129 22.1325 58.2092 22.0668 58.3155 22.0218C58.4218 21.9767 58.536 21.9532 58.6515 21.9526C58.767 21.952 58.8814 21.9742 58.9882 22.0181C59.095 22.062 59.1921 22.1266 59.2737 22.2082C59.3554 22.2899 59.4201 22.3869 59.464 22.4936C59.508 22.6004 59.5303 22.7148 59.5298 22.8303C59.5292 22.9458 59.5057 23.06 59.4608 23.1663C59.4158 23.2727 59.3502 23.369 59.2677 23.4499L53.0558 29.6652C52.9747 29.7464 52.8784 29.8108 52.7724 29.8547C52.6664 29.8986 52.5528 29.9212 52.4381 29.9212C52.3234 29.9212 52.2098 29.8986 52.1038 29.8547C51.9978 29.8108 51.9015 29.7464 51.8203 29.6652L49.2726 27.117C49.1912 27.0359 49.1266 26.9396 49.0824 26.8336C49.0383 26.7275 49.0155 26.6138 49.0154 26.4989C49.0153 26.3841 49.0378 26.2703 49.0817 26.1641C49.1256 26.058 49.19 25.9615 49.2713 25.8803C49.3525 25.7991 49.449 25.7347 49.5551 25.6908C49.6613 25.6469 49.775 25.6244 49.8899 25.6245C50.0048 25.6246 50.1185 25.6474 50.2246 25.6916C50.3306 25.7357 50.4269 25.8003 50.508 25.8817L52.4378 27.8124Z" fill="#ED4C5C"/>
</g>
<defs>
<clipPath id="clip0_175_3357">
<rect width="64" height="64" fill="white"/>
</clipPath>
</defs>
</svg>
