<svg width="64" height="64" viewBox="0 0 64 64" fill="none" xmlns="http://www.w3.org/2000/svg">
<path fill-rule="evenodd" clip-rule="evenodd" d="M29.5076 10.1138V6.72625H26.2226C26.0643 6.72619 25.9088 6.68472 25.7714 6.60597C25.6341 6.52722 25.5198 6.41392 25.4398 6.27732C25.3598 6.14072 25.317 5.98558 25.3155 5.82729C25.314 5.669 25.3539 5.51308 25.4313 5.375L26.1138 3.865C26.1138 3.825 26.0876 3.825 26.0701 3.825H20.6713L20.6526 3.88625L21.3326 5.375C21.4115 5.51316 21.4526 5.66963 21.452 5.82873C21.4513 5.98782 21.4089 6.14395 21.3288 6.28146C21.2488 6.41896 21.1341 6.53302 20.9961 6.61218C20.8581 6.69135 20.7017 6.73284 20.5426 6.7325H17.2576V10.12L29.5076 10.1138ZM28.1988 15.3888C28.0497 15.2398 27.8597 15.1383 27.6529 15.0973C27.4461 15.0562 27.2317 15.0774 27.037 15.1582C26.8422 15.2389 26.6758 15.3756 26.5587 15.5509C26.4415 15.7262 26.379 15.9323 26.379 16.1431C26.379 16.354 26.4415 16.5601 26.5587 16.7354C26.6758 16.9107 26.8422 17.0474 27.037 17.1281C27.2317 17.2088 27.4461 17.23 27.6529 17.189C27.8597 17.1479 28.0497 17.0465 28.1988 16.8975C28.3987 16.6973 28.511 16.426 28.511 16.1431C28.511 15.8602 28.3987 15.5889 28.1988 15.3888ZM27.4488 13.2638C30.0101 13.2638 31.3013 16.375 29.4888 18.1875C27.6763 20 24.5651 18.7087 24.5651 16.1488C24.5649 15.7699 24.6394 15.3948 24.7842 15.0448C24.9291 14.6948 25.1415 14.3767 25.4093 14.1088C25.6771 13.8409 25.995 13.6284 26.345 13.4834C26.6949 13.3384 27.07 13.2638 27.4488 13.2638ZM29.7738 34.75C29.6899 34.8366 29.5897 34.9057 29.4788 34.9532C29.368 35.0006 29.2489 35.0256 29.1283 35.0266C29.0077 35.0275 28.8882 35.0045 28.7766 34.9588C28.665 34.9131 28.5636 34.8457 28.4784 34.7604C28.3931 34.6752 28.3257 34.5738 28.28 34.4622C28.2343 34.3507 28.2113 34.2311 28.2123 34.1105C28.2132 33.99 28.2382 33.8708 28.2857 33.76C28.3331 33.6491 28.4022 33.5489 28.4888 33.465L29.4113 32.5425L28.4888 31.6187C28.3229 31.4474 28.231 31.2178 28.2329 30.9793C28.2349 30.7408 28.3304 30.5126 28.4991 30.344C28.6677 30.1754 28.8959 30.0798 29.1343 30.0779C29.3728 30.076 29.6025 30.1679 29.7738 30.3337L30.6976 31.2563L31.6201 30.3337C31.7914 30.1679 32.0211 30.076 32.2595 30.0779C32.498 30.0798 32.7262 30.1754 32.8948 30.344C33.0634 30.5126 33.159 30.7408 33.1609 30.9793C33.1629 31.2178 33.071 31.4474 32.9051 31.6187L31.9826 32.5425L32.9051 33.465C32.9986 33.5469 33.0743 33.647 33.1276 33.7593C33.1808 33.8715 33.2105 33.9936 33.2147 34.1177C33.219 34.2419 33.1977 34.3657 33.1522 34.4813C33.1067 34.597 33.038 34.7021 32.9503 34.7901C32.8626 34.8781 32.7578 34.9473 32.6424 34.9932C32.5269 35.0391 32.4032 35.0609 32.279 35.0571C32.1548 35.0533 32.0327 35.0242 31.9202 34.9713C31.8077 34.9185 31.7073 34.8432 31.6251 34.75L30.7026 33.8275L29.7738 34.75ZM19.2976 27.9662C19.127 28.1367 18.8957 28.2323 18.6546 28.2322C18.4135 28.2321 18.1823 28.1362 18.0119 27.9656C17.8415 27.7951 17.7459 27.5638 17.746 27.3227C17.7461 27.0816 17.842 26.8504 18.0126 26.68L18.9351 25.7575L18.0126 24.835C17.842 24.6646 17.7461 24.4334 17.746 24.1923C17.7459 23.9512 17.8415 23.7199 18.0119 23.5494C18.1823 23.3788 18.4135 23.2829 18.6546 23.2828C18.8957 23.2827 19.127 23.3783 19.2976 23.5487L20.2201 24.4725L21.1438 23.5487C21.3144 23.3783 21.5457 23.2827 21.7868 23.2828C22.0279 23.2829 22.259 23.3788 22.4294 23.5494C22.5998 23.7199 22.6955 23.9512 22.6954 24.1923C22.6953 24.4334 22.5994 24.6646 22.4288 24.835L21.5063 25.7575L22.4288 26.68C22.5133 26.7644 22.5803 26.8646 22.626 26.9748C22.6718 27.0851 22.6953 27.2033 22.6954 27.3227C22.6954 27.4421 22.672 27.5603 22.6264 27.6706C22.5807 27.7809 22.5138 27.8812 22.4294 27.9656C22.3451 28.0501 22.2449 28.1171 22.1346 28.1628C22.0243 28.2086 21.9061 28.2321 21.7868 28.2322C21.6674 28.2323 21.5492 28.2088 21.4388 28.1632C21.3285 28.1175 21.2283 28.0506 21.1438 27.9662L20.2201 27.0438L19.2976 27.9662ZM17.2301 33.6662C17.081 33.5171 16.891 33.4155 16.6841 33.3743C16.4773 33.3331 16.2629 33.3542 16.068 33.4349C15.8731 33.5155 15.7066 33.6522 15.5894 33.8276C15.4722 34.0029 15.4097 34.2091 15.4097 34.42C15.4097 34.6309 15.4722 34.8371 15.5894 35.0124C15.7066 35.1878 15.8731 35.3245 16.068 35.4051C16.2629 35.4858 16.4773 35.5069 16.6841 35.4657C16.891 35.4245 17.081 35.3229 17.2301 35.1738C17.4296 34.9736 17.5416 34.7026 17.5416 34.42C17.5416 34.1374 17.4296 33.8664 17.2301 33.6662ZM16.4801 31.5413C13.9201 31.5413 12.6288 34.6512 14.4413 36.465C16.0538 38.0775 18.8026 37.2575 19.2951 35.0575C21.8605 34.4833 24.1547 33.0544 25.8013 31.0051C27.448 28.9557 28.3493 26.4077 28.3576 23.7787V23.2138L29.0188 23.9387C29.1816 24.1135 29.4067 24.217 29.6453 24.2269C29.8839 24.2367 30.1168 24.1521 30.2935 23.9914C30.4701 23.8307 30.5763 23.6069 30.589 23.3684C30.6017 23.1299 30.5199 22.8961 30.3613 22.7175C29.6251 21.9088 28.8938 21.0925 28.1526 20.2913C28.0676 20.1861 27.9602 20.1012 27.8382 20.043C27.7162 19.9847 27.5828 19.9544 27.4476 19.9544C27.3124 19.9544 27.1789 19.9847 27.0569 20.043C26.9349 20.1012 26.8275 20.1861 26.7426 20.2913L24.5376 22.7138C24.3973 22.8941 24.3302 23.1207 24.3497 23.3483C24.3692 23.5759 24.4738 23.7878 24.6427 23.9417C24.8115 24.0956 25.0322 24.1801 25.2607 24.1784C25.4891 24.1767 25.7085 24.0889 25.8751 23.9325L26.5351 23.2075V23.7725C26.5285 25.952 25.7939 28.0669 24.448 29.7813C23.1021 31.4956 21.222 32.7112 19.1063 33.235C18.8781 32.7283 18.5083 32.2983 18.0415 31.9968C17.5747 31.6952 17.0308 31.5348 16.4751 31.535L16.4801 31.5413ZM40.8063 38.2625C41.2702 37.9536 41.8179 37.7952 42.3751 37.8088V8.58C42.3738 8.32978 42.2738 8.09017 42.0968 7.91324C41.9199 7.7363 41.6803 7.63631 41.4301 7.635H31.3251V9.205H39.8976C40.1386 9.205 40.3697 9.30074 40.5402 9.47117C40.7106 9.64159 40.8063 9.87274 40.8063 10.1138V38.2625ZM34.0001 49.8162H7.77632V11.0225H15.4388C15.4388 11.1419 15.4624 11.2602 15.5081 11.3706C15.5539 11.4809 15.6209 11.5811 15.7054 11.6655C15.7899 11.7499 15.8903 11.8168 16.0007 11.8624C16.1111 11.908 16.2294 11.9314 16.3488 11.9312H30.4163C30.6573 11.9312 30.8885 11.8355 31.0589 11.6651C31.2293 11.4947 31.3251 11.2635 31.3251 11.0225H38.9876V36.5725L38.5313 35.7825C38.1812 35.1536 37.5957 34.6895 36.9034 34.4924C36.2112 34.2952 35.469 34.3812 34.8401 34.7313C34.2112 35.0813 33.7471 35.6669 33.55 36.3592C33.3528 37.0514 33.4387 37.7936 33.7888 38.4225L39.7776 48.7975L37.2588 48.125C36.6026 47.9504 35.9048 48.027 35.3021 48.3398C34.6993 48.6526 34.235 49.1791 34.0001 49.8162ZM35.4051 53.205H5.33382C5.08359 53.2037 4.84399 53.1037 4.66705 52.9268C4.49012 52.7498 4.39013 52.5102 4.38882 52.26V8.58C4.38981 8.32967 4.48969 8.08988 4.66669 7.91288C4.8437 7.73587 5.08349 7.63599 5.33382 7.635H15.4388V9.205H6.86757C6.74818 9.20484 6.62994 9.22823 6.51961 9.27384C6.40928 9.31945 6.30904 9.38638 6.22462 9.4708C6.1402 9.55522 6.07327 9.65546 6.02766 9.76579C5.98205 9.87612 5.95865 9.99437 5.95882 10.1138V50.725C5.95865 50.8444 5.98204 50.9627 6.02763 51.0731C6.07323 51.1835 6.14014 51.2839 6.22454 51.3684C6.30894 51.4529 6.40918 51.52 6.51952 51.5657C6.62985 51.6115 6.74812 51.635 6.86757 51.635H34.0001C34.1195 51.9773 34.3059 52.2925 34.5484 52.562C34.7909 52.8316 35.0847 53.0502 35.4126 53.205H35.4051ZM57.3313 50.25C57.3313 50.25 59.4201 53.875 59.6151 54.2075L49.2688 60.1825L46.9851 56.2262L57.3313 50.25ZM57.3201 48.4362C57.6395 48.4342 57.9538 48.5169 58.2309 48.6759C58.508 48.8349 58.7381 49.0644 58.8976 49.3413L61.1838 53.3013C61.4241 53.7174 61.4895 54.2119 61.3655 54.6762C61.2415 55.1404 60.9383 55.5365 60.5226 55.7775L50.1726 61.7537C49.9624 61.8743 49.7302 61.9515 49.4897 61.9808C49.2492 62.0102 49.0053 61.9911 48.7723 61.9247C48.5393 61.8583 48.322 61.7459 48.1331 61.5942C47.9442 61.4425 47.7876 61.2545 47.6726 61.0412L45.4126 57.125C45.1889 56.7409 45.1154 56.2876 45.2063 55.8525L42.0738 55.0175H5.33382C4.60145 55.0162 3.89943 54.7247 3.38145 54.207C2.86347 53.6893 2.57172 52.9874 2.57007 52.255V8.58C2.57139 7.84741 2.86299 7.14521 3.38101 6.62719C3.89903 6.10918 4.60123 5.81757 5.33382 5.81625H15.4388C15.4391 5.57512 15.5352 5.34398 15.7058 5.17359C15.8764 5.0032 16.1077 4.9075 16.3488 4.9075H19.1251C18.9538 4.5325 18.8263 4.2825 18.8263 3.85875C18.8286 3.36498 19.0264 2.89222 19.3764 2.54388C19.7264 2.19555 20.2 1.99999 20.6938 2H26.0688C26.3803 1.99989 26.6867 2.0781 26.9601 2.22742C27.2334 2.37675 27.4648 2.5924 27.6329 2.85454C27.8011 3.11669 27.9006 3.41691 27.9224 3.7276C27.9442 4.03828 27.8875 4.34946 27.7576 4.6325L27.6326 4.90625H30.4151C30.656 4.90658 30.8869 5.00243 31.0573 5.17278C31.2276 5.34313 31.3235 5.57409 31.3238 5.815H41.4301C42.1624 5.81665 42.8643 6.1084 43.3821 6.62638C43.8998 7.14437 44.1912 7.84638 44.1926 8.57875V38.565C44.2226 38.5925 44.2501 38.6213 44.2788 38.6512C44.7172 38.1091 45.3471 37.7562 46.0383 37.6655C46.7295 37.5747 47.4292 37.7531 47.9926 38.1637C48.2564 37.7932 48.609 37.4947 49.018 37.2957C49.4271 37.0967 49.8795 37.0034 50.3339 37.0244C50.7883 37.0454 51.2302 37.18 51.6191 37.416C52.008 37.652 52.3315 37.9817 52.5601 38.375L56.3013 44.8537C56.4596 45.1273 56.5782 45.4219 56.6538 45.7287L57.3226 48.44L57.3201 48.4362ZM46.6013 54.35L42.4763 53.2513C42.4356 53.2371 42.3938 53.2263 42.3513 53.2188L36.3513 51.6213C36.2341 51.5952 36.1233 51.546 36.0254 51.4766C35.9275 51.4071 35.8445 51.3188 35.7812 51.2168C35.7178 51.1148 35.6755 51.0012 35.6567 50.8827C35.6379 50.7641 35.643 50.643 35.6716 50.5264C35.7003 50.4098 35.7519 50.3002 35.8235 50.2038C35.8951 50.1075 35.9853 50.0264 36.0887 49.9654C36.192 49.9044 36.3065 49.8646 36.4255 49.8484C36.5444 49.8323 36.6654 49.84 36.7813 49.8713L41.4126 51.1113C41.5852 51.1568 41.7674 51.1504 41.9364 51.0928C42.1054 51.0352 42.2536 50.929 42.3624 50.7874C42.4713 50.6459 42.5359 50.4754 42.5481 50.2972C42.5604 50.1191 42.5197 49.9414 42.4313 49.7863L35.3476 37.5137C35.2357 37.3069 35.2088 37.0646 35.2728 36.8382C35.3367 36.6119 35.4863 36.4194 35.6898 36.3016C35.8934 36.1838 36.1348 36.15 36.3629 36.2073C36.591 36.2647 36.7877 36.4087 36.9113 36.6087L39.0626 40.3338C39.0862 40.3859 39.1147 40.4357 39.1476 40.4825L39.9063 41.795L40.9388 43.5875C41.0619 43.7908 41.2599 43.9376 41.4901 43.9965C41.7204 44.0554 41.9645 44.0217 42.1701 43.9025C42.3757 43.7833 42.5264 43.5883 42.5897 43.3592C42.6531 43.1301 42.624 42.8854 42.5088 42.6775L41.5551 41.0275C41.4238 40.7775 41.3551 40.59 41.4363 40.2875C41.483 40.116 41.5793 39.9622 41.7132 39.8453C41.8471 39.7284 42.0125 39.6537 42.1887 39.6306C42.3649 39.6075 42.544 39.637 42.7035 39.7154C42.863 39.7938 42.9957 39.9176 43.0851 40.0713L45.3101 43.92C45.4333 44.1205 45.6298 44.2652 45.858 44.3232C46.0861 44.3812 46.3278 44.3481 46.5319 44.2309C46.736 44.1136 46.8864 43.9214 46.9512 43.6952C47.0159 43.4689 46.99 43.2262 46.8788 43.0187L45.6288 40.8563C45.5602 40.7554 45.5127 40.6418 45.4892 40.5222C45.4657 40.4025 45.4666 40.2794 45.492 40.1601C45.5173 40.0408 45.5665 39.9279 45.6366 39.8281C45.7067 39.7284 45.7963 39.6439 45.8999 39.5796C46.0036 39.5154 46.1191 39.4728 46.2397 39.4544C46.3602 39.436 46.4832 39.4422 46.6013 39.4726C46.7194 39.503 46.8301 39.557 46.9268 39.6313C47.0234 39.7056 47.1041 39.7987 47.1638 39.905L48.9588 43C49.0163 43.1072 49.0948 43.2018 49.1895 43.2781C49.2843 43.3544 49.3934 43.4109 49.5105 43.4441C49.6275 43.4774 49.75 43.4868 49.8707 43.4718C49.9915 43.4567 50.108 43.4176 50.2132 43.3566C50.3185 43.2957 50.4105 43.2142 50.4837 43.117C50.5569 43.0198 50.6097 42.9089 50.6392 42.7908C50.6686 42.6728 50.674 42.55 50.6551 42.4298C50.6361 42.3096 50.5932 42.1945 50.5288 42.0913L49.4613 40.2438C49.3301 39.9938 49.2613 39.805 49.3363 39.5037C49.3831 39.3323 49.4795 39.1784 49.6134 39.0615C49.7473 38.9446 49.9128 38.8698 50.089 38.8466C50.2653 38.8234 50.4444 38.8527 50.6041 38.9309C50.7637 39.0091 50.8967 39.1327 50.9863 39.2863L54.7263 45.765L54.8213 45.9562C54.9076 46.17 55.5151 48.7062 55.6226 49.145L46.5988 54.355L46.6013 54.35ZM13.8051 38.1975C13.971 38.0302 14.1954 37.9339 14.431 37.9291C14.6666 37.9243 14.8948 38.0113 15.0673 38.1717C15.2399 38.3321 15.3434 38.5534 15.3558 38.7887C15.3682 39.0239 15.2886 39.2548 15.1338 39.4325L12.3438 42.4325C12.2549 42.5284 12.1462 42.6039 12.0253 42.6537C11.9043 42.7036 11.774 42.7266 11.6434 42.7213C11.5127 42.7159 11.3847 42.6823 11.2682 42.6227C11.1518 42.5632 11.0496 42.4791 10.9688 42.3763L9.71882 40.99C9.56169 40.8114 9.48121 40.5781 9.49479 40.3406C9.50837 40.1031 9.61492 39.8805 9.79138 39.7209C9.96785 39.5614 10.2 39.4777 10.4377 39.4881C10.6754 39.4985 10.8994 39.602 11.0613 39.7762L11.6863 40.475L13.8038 38.1975H13.8051ZM13.8051 43.7912L11.6876 46.0687L11.0626 45.37C10.9014 45.192 10.6762 45.0852 10.4364 45.0733C10.1966 45.0613 9.96184 45.1451 9.78382 45.3063C9.60579 45.4674 9.49906 45.6926 9.48711 45.9324C9.47515 46.1722 9.55895 46.407 9.72007 46.585L10.9701 47.9712C11.051 48.0739 11.1532 48.1578 11.2697 48.2173C11.3861 48.2767 11.514 48.3102 11.6446 48.3156C11.7753 48.3209 11.9055 48.2979 12.0264 48.2482C12.1473 48.1985 12.256 48.1232 12.3451 48.0275L15.1351 45.0275C15.2962 44.8508 15.381 44.6177 15.3712 44.3788C15.3614 44.1399 15.2577 43.9145 15.0826 43.7517C14.9076 43.5888 14.6753 43.5016 14.4363 43.509C14.1973 43.5164 13.9709 43.6178 13.8063 43.7912H13.8051ZM16.9438 41.2238H32.2001C32.4411 41.2238 32.6722 41.128 32.8427 40.9576C33.0131 40.7872 33.1088 40.556 33.1088 40.315C33.1088 40.074 33.0131 39.8428 32.8427 39.6724C32.6722 39.502 32.4411 39.4062 32.2001 39.4062H16.9501C16.7091 39.4062 16.4779 39.502 16.3075 39.6724C16.1371 39.8428 16.0413 40.074 16.0413 40.315C16.0413 40.556 16.1371 40.7872 16.3075 40.9576C16.4779 41.128 16.7091 41.2238 16.9501 41.2238H16.9438ZM16.9438 46.8187H35.3751C35.6104 46.81 35.8332 46.7104 35.9966 46.5408C36.16 46.3712 36.2513 46.1449 36.2513 45.9094C36.2513 45.6739 36.16 45.4475 35.9966 45.2779C35.8332 45.1084 35.6104 45.0087 35.3751 45H16.9438C16.8216 44.9955 16.6996 45.0156 16.5854 45.0593C16.4711 45.103 16.3668 45.1692 16.2787 45.2541C16.1906 45.339 16.1205 45.4408 16.0726 45.5534C16.0248 45.6659 16.0001 45.787 16.0001 45.9094C16.0001 46.0317 16.0248 46.1528 16.0726 46.2654C16.1205 46.378 16.1906 46.4798 16.2787 46.5647C16.3668 46.6495 16.4711 46.7158 16.5854 46.7595C16.6996 46.8031 16.8216 46.8233 16.9438 46.8187Z" fill="#ED9A4C"/>
</svg>
