<svg width="64" height="64" viewBox="0 0 64 64" fill="none" xmlns="http://www.w3.org/2000/svg">
<g clip-path="url(#clip0_175_3367)">
<path d="M19.1484 21.2239H26.1244C26.6423 21.2239 27.0619 20.8041 27.0619 20.2864C27.0619 19.7686 26.6423 19.3489 26.1244 19.3489H19.1484C18.6306 19.3489 18.2109 19.7686 18.2109 20.2864C18.2109 20.8041 18.6306 21.2239 19.1484 21.2239Z" fill="#ED4C5C"/>
<path d="M19.1484 25.3127H34.9994C35.5173 25.3127 35.9369 24.893 35.9369 24.3752C35.9369 23.8575 35.5173 23.4377 34.9994 23.4377H19.1484C18.6306 23.4377 18.2109 23.8575 18.2109 24.3752C18.2109 24.893 18.6306 25.3127 19.1484 25.3127Z" fill="#ED4C5C"/>
<path d="M43.9993 32.9578H19.1484C18.6306 32.9578 18.2109 33.3775 18.2109 33.8953C18.2109 34.413 18.6306 34.8328 19.1484 34.8328H43.9994C44.5173 34.8328 44.9369 34.413 44.9369 33.8953C44.9369 33.3775 44.5172 32.9578 43.9993 32.9578Z" fill="#ED4C5C"/>
<path d="M44 37.0464H36.75C36.2321 37.0464 35.8125 37.4661 35.8125 37.9839C35.8125 38.5016 36.2321 38.9214 36.75 38.9214H44C44.5179 38.9214 44.9375 38.5016 44.9375 37.9839C44.9375 37.4661 44.5179 37.0464 44 37.0464Z" fill="#ED4C5C"/>
<path d="M19.1484 37.0464C18.6306 37.0464 18.2109 37.4661 18.2109 37.9839C18.2109 38.5016 18.6306 38.9214 19.1484 38.9214H33.8744C34.3923 38.9214 34.8119 38.5016 34.8119 37.9839C34.8119 37.4661 34.3923 37.0464 33.8744 37.0464H19.1484Z" fill="#ED4C5C"/>
<path d="M44 45.2239H32.125C31.6071 45.2239 31.1875 45.6436 31.1875 46.1614C31.1875 46.6791 31.6071 47.0989 32.125 47.0989H44C44.5179 47.0989 44.9375 46.6791 44.9375 46.1614C44.9375 45.6436 44.5179 45.2239 44 45.2239Z" fill="#ED4C5C"/>
<path d="M58.7194 12.2218L60.0782 9.4357C60.3927 8.79083 60.1428 8.02195 59.5094 7.68545L56.7727 6.23008L56.2342 3.17733C56.1097 2.47108 55.4561 1.99608 54.7453 2.09558L51.6757 2.52695L49.4462 0.374078C48.9298 -0.124672 48.1213 -0.124672 47.6054 0.373953L45.3757 2.52708L42.3059 2.0957C41.5956 1.99658 40.9417 2.47108 40.8171 3.17745L40.3497 5.82733H13.7434C12.8818 5.82733 12.1809 6.5282 12.1809 7.38983V40.4875C7.32006 42.0361 3.78906 46.5937 3.78906 51.9611C3.78906 58.5993 9.18969 64.0001 15.8281 64.0001C18.2336 64.0001 20.5559 63.2925 22.5442 61.9538C22.9737 61.6647 23.0873 61.0821 22.7981 60.6526C22.5089 60.2231 21.9264 60.1092 21.4968 60.3986C19.8193 61.528 17.8591 62.125 15.8279 62.125C10.2236 62.125 5.66394 57.5655 5.66394 51.961C5.66394 46.3566 10.2236 41.7971 15.8279 41.7971C21.4323 41.7971 25.9919 46.3566 25.9919 51.961C25.9919 53.9581 25.4127 55.8911 24.3169 57.5513C24.0318 57.9835 24.1508 58.565 24.5829 58.8502C25.0151 59.1353 25.5964 59.0165 25.8819 58.5842C26.1747 58.1407 26.4346 57.6801 26.6642 57.2067H49.4072C50.2688 57.2067 50.9697 56.5058 50.9697 55.6442V43.875C50.9697 43.3572 50.5501 42.9375 50.0322 42.9375C49.5143 42.9375 49.0947 43.3572 49.0947 43.875V55.3317H27.3866C27.7031 54.2448 27.8669 53.112 27.8669 51.961C27.8669 51.7011 27.8577 51.4433 27.8414 51.1875H44.0008C44.5187 51.1875 44.9383 50.7677 44.9383 50.25C44.9383 49.7322 44.5187 49.3125 44.0008 49.3125H27.5727C27.3996 48.5443 27.1527 47.804 26.8402 47.0988H29.2507C29.7686 47.0988 30.1882 46.6791 30.1882 46.1613C30.1882 45.6436 29.7686 45.2238 29.2507 45.2238H25.8004C25.2484 44.4093 24.5991 43.6662 23.8697 43.0102H44.0006C44.5184 43.0102 44.9381 42.5905 44.9381 42.0727C44.9381 41.555 44.5184 41.1352 44.0006 41.1352H21.0911C19.5002 40.3587 17.7142 39.9222 15.8281 39.9222C15.2261 39.9222 14.6344 39.9672 14.0559 40.053V7.70233H37.5137C36.9018 8.04683 36.6637 8.80095 36.9732 9.43583L38.3319 12.222L38.0038 12.8948H24.0563C23.5384 12.8948 23.1188 13.3146 23.1188 13.8323C23.1188 14.3501 23.5384 14.7698 24.0563 14.7698H37.0894L36.9732 15.0081C36.6588 15.6527 36.9086 16.4216 37.5419 16.7583L40.2789 18.2137L40.4792 19.3491H29.0009C28.4831 19.3491 28.0634 19.7688 28.0634 20.2866C28.0634 20.8043 28.4831 21.2241 29.0009 21.2241H40.8099L40.8174 21.2663C40.9422 21.973 41.5983 22.448 42.3063 22.3481L43.4133 22.1926V23.4378H38.0009C37.4831 23.4378 37.0634 23.8576 37.0634 24.3753C37.0634 24.8931 37.4831 25.3128 38.0009 25.3128H43.4133V27.5265H19.1498C18.6319 27.5265 18.2123 27.9462 18.2123 28.464C18.2123 28.9817 18.6319 29.4015 19.1498 29.4015H43.4131V31.696C43.4131 32.2152 43.7052 32.6748 44.1753 32.8953C44.6457 33.1158 45.1856 33.0465 45.5849 32.7145L48.5256 30.2687L49.0946 30.742V39.5C49.0946 40.0177 49.5142 40.4375 50.0321 40.4375C50.5499 40.4375 50.9696 40.0177 50.9696 39.5V32.3012L51.4664 32.7145C51.7111 32.9178 52.0084 33.0227 52.3103 33.0227C52.5012 33.0227 52.6939 32.9807 52.8761 32.8953C53.3462 32.6748 53.6383 32.2152 53.6383 31.696V22.1925L54.7452 22.348C55.4561 22.4477 56.1096 21.9728 56.2342 21.2662L56.7727 18.2136L59.5096 16.7582C60.1428 16.4215 60.3926 15.6526 60.0783 15.008L58.7194 12.2218ZM51.7633 30.5226L49.3731 28.5347C49.1276 28.3305 48.8267 28.2282 48.5258 28.2282C48.2251 28.2282 47.9242 28.3303 47.6787 28.5345L45.2882 30.5226V21.9291L45.3758 21.9167L47.6056 24.0698C47.8636 24.3191 48.1947 24.4437 48.5258 24.4437C48.8568 24.4437 49.1881 24.3191 49.4459 24.07L51.6758 21.9167L51.7633 21.929V30.5226ZM56.9166 12.8026L58.1599 15.3522L55.6557 16.684C55.2928 16.8767 55.0437 17.2195 54.9728 17.6237L54.4801 20.4173L51.6711 20.0227C51.2647 19.9655 50.8616 20.0963 50.5663 20.3816L48.5257 22.3521L46.4848 20.3815C46.2349 20.1402 45.9086 20.0096 45.5678 20.0096C45.5057 20.0096 45.4432 20.014 45.3806 20.0227L42.5712 20.4173L42.0786 17.6235C42.0071 17.2191 41.7582 16.8767 41.3959 16.6842L38.8913 15.3523L40.1347 12.8027C40.3146 12.4336 40.3146 12.0103 40.1347 11.6412L38.8913 9.09158L41.3961 7.75958C41.7582 7.56683 42.0071 7.22458 42.0786 6.82008L42.5712 4.02645L45.3808 4.4212C45.7878 4.47833 46.1894 4.34745 46.4851 4.06233L48.5257 2.09183L50.5663 4.0622C50.8614 4.34733 51.2641 4.47795 51.6709 4.4212L54.4801 4.02645L54.9727 6.81958C55.0437 7.22408 55.2926 7.5667 55.6553 7.7597L58.1599 9.09158L56.9166 11.6412C56.7367 12.0102 56.7367 12.4336 56.9166 12.8026Z" fill="#ED4C5C"/>
<path d="M54.1075 10.9974C54.5881 10.8049 54.8217 10.2591 54.6291 9.77848C53.6236 7.26836 51.2275 5.64648 48.5247 5.64648C44.899 5.64648 41.9492 8.59623 41.9492 12.222C41.9492 15.8476 44.899 18.7974 48.5247 18.7974C51.1241 18.7974 53.4845 17.2605 54.538 14.8817C54.7477 14.4084 54.5338 13.8546 54.0605 13.6449C53.5872 13.4352 53.0333 13.649 52.8236 14.1224C52.0702 15.8232 50.3828 16.9222 48.5246 16.9222C45.9328 16.9222 43.8241 14.8136 43.8241 12.2219C43.8241 9.62998 45.9327 7.52136 48.5246 7.52136C50.4566 7.52136 52.1695 8.68098 52.8885 10.4756C53.0813 10.9564 53.6273 11.1899 54.1075 10.9974Z" fill="#ED4C5C"/>
<path d="M50.4099 10.247L48.1667 12.4904L46.6394 10.9633C46.2734 10.5971 45.6798 10.597 45.3137 10.9633C44.9475 11.3294 44.9475 11.923 45.3137 12.289L47.5038 14.479C47.6868 14.662 47.9268 14.7536 48.1667 14.7536C48.4065 14.7536 48.6465 14.6621 48.8297 14.479L51.7359 11.5728C52.102 11.2066 52.102 10.613 51.7359 10.247C51.3697 9.88088 50.7762 9.88088 50.4099 10.247Z" fill="#ED4C5C"/>
<path d="M17.4392 53.8359C17.4392 54.7239 16.717 55.4462 15.829 55.4462C14.941 55.4462 14.2188 54.7238 14.2188 53.8359C14.2188 53.3182 13.7991 52.8984 13.2812 52.8984C12.7634 52.8984 12.3438 53.3182 12.3438 53.8359C12.3438 55.7578 13.9072 57.3212 15.829 57.3212C17.7507 57.3212 19.3142 55.7577 19.3142 53.8359C19.3142 53.3182 18.8946 52.8984 18.3767 52.8984C17.8589 52.8984 17.4392 53.3182 17.4392 53.8359Z" fill="#ED4C5C"/>
<path d="M10.0781 49.4075V51.4837C10.0781 52.0015 10.4977 52.4212 11.0156 52.4212C11.5335 52.4212 11.9531 52.0015 11.9531 51.4837V49.4075C11.9531 48.8897 11.5335 48.47 11.0156 48.47C10.4977 48.47 10.0781 48.8897 10.0781 49.4075Z" fill="#ED4C5C"/>
<path d="M19.7031 49.4075V51.4837C19.7031 52.0015 20.1227 52.4212 20.6406 52.4212C21.1585 52.4212 21.5781 52.0015 21.5781 51.4837V49.4075C21.5781 48.8897 21.1585 48.47 20.6406 48.47C20.1227 48.47 19.7031 48.8897 19.7031 49.4075Z" fill="#ED4C5C"/>
</g>
<defs>
<clipPath id="clip0_175_3367">
<rect width="64" height="64" fill="white"/>
</clipPath>
</defs>
</svg>
