<svg width="64" height="64" viewBox="0 0 64 64" fill="none" xmlns="http://www.w3.org/2000/svg">
<path fill-rule="evenodd" clip-rule="evenodd" d="M18.0588 10.8975V11H31.8088V7.05502H28.0763C27.917 7.05558 27.7605 7.01425 27.6223 6.93517C27.4841 6.8561 27.3692 6.74206 27.289 6.60452C27.2089 6.46698 27.1663 6.31076 27.1656 6.15156C27.1649 5.99236 27.2061 5.83577 27.285 5.69752L28.0413 4.04377C28.0521 4.02161 28.057 3.99701 28.0555 3.97239C28.054 3.94776 28.0461 3.92395 28.0326 3.90329C28.0191 3.88263 28.0005 3.86582 27.9786 3.85451C27.9566 3.8432 27.9322 3.83778 27.9075 3.83877L21.8937 3.84752C21.8598 3.86568 21.8339 3.89592 21.8212 3.93226C21.8084 3.9686 21.8098 4.00839 21.825 4.04377L22.5825 5.69752C22.6614 5.83577 22.7026 5.99236 22.7019 6.15156C22.7012 6.31076 22.6586 6.46698 22.5785 6.60452C22.4983 6.74206 22.3834 6.8561 22.2452 6.93517C22.107 7.01425 21.9505 7.05558 21.7913 7.05502H18.0588V10.8975ZM15.3912 46.8638C15.5574 46.6969 15.7818 46.6011 16.0172 46.5967C16.2526 46.5922 16.4806 46.6794 16.6529 46.8399C16.8252 47.0004 16.9284 47.2215 16.9407 47.4566C16.953 47.6918 16.8734 47.9225 16.7188 48.1L13.375 51.6938C13.2859 51.7895 13.1772 51.8648 13.0563 51.9145C12.9354 51.9642 12.8052 51.9872 12.6746 51.9818C12.5439 51.9765 12.416 51.943 12.2996 51.8835C12.1832 51.8241 12.0809 51.7402 12 51.6375L10.4913 49.9688C10.3296 49.7909 10.2453 49.5561 10.2568 49.3161C10.2683 49.076 10.3746 48.8504 10.5525 48.6888C10.7304 48.5272 10.9651 48.4428 11.2052 48.4543C11.4452 48.4658 11.6709 48.5722 11.8325 48.75L12.7212 49.7313L15.3912 46.8563V46.8638ZM20.2563 41.895C20.0152 41.895 19.7841 41.7993 19.6137 41.6289C19.4432 41.4584 19.3475 41.2273 19.3475 40.9863C19.3475 40.7453 19.4432 40.5141 19.6137 40.3437C19.7841 40.1733 20.0152 40.0775 20.2563 40.0775H31.2838C31.5248 40.0775 31.7559 40.1733 31.9263 40.3437C32.0968 40.5141 32.1925 40.7453 32.1925 40.9863C32.1925 41.2273 32.0968 41.4584 31.9263 41.6289C31.7559 41.7993 31.5248 41.895 31.2838 41.895H20.2563ZM18.57 25.875L22.9175 30.2225C23.0505 30.3544 23.2302 30.4284 23.4175 30.4284C23.6048 30.4284 23.7845 30.3544 23.9175 30.2225L31.2925 22.8475C31.4344 22.6981 31.5123 22.4991 31.5096 22.2931C31.5069 22.087 31.4238 21.8902 31.278 21.7445C31.1322 21.5989 30.9353 21.516 30.7292 21.5135C30.5231 21.511 30.3243 21.5892 30.175 21.7313L24.435 27.4713C24.1634 27.7426 23.7952 27.8949 23.4112 27.8949C23.0273 27.8949 22.6591 27.7426 22.3875 27.4713L19.6863 24.75C19.5382 24.602 19.3375 24.5188 19.1281 24.5188C18.9188 24.5188 18.718 24.602 18.57 24.75C18.422 24.898 18.3388 25.0988 18.3388 25.3081C18.3388 25.5175 18.422 25.7182 18.57 25.8663V25.875ZM21.6313 31.5L17.285 27.1538C15.66 25.5288 16.7987 22.7038 19.1287 22.7038C19.4711 22.7034 19.8102 22.7706 20.1266 22.9014C20.4429 23.0323 20.7304 23.2242 20.9725 23.4663L23.4163 25.91L28.895 20.4313C30.52 18.8063 33.3438 19.9463 33.3438 22.275C33.3454 22.6184 33.2789 22.9587 33.1483 23.2762C33.0176 23.5937 32.8253 23.8822 32.5825 24.125L25.2013 31.5C24.7276 31.973 24.0856 32.2386 23.4163 32.2386C22.7469 32.2386 22.1049 31.973 21.6313 31.5ZM19.9237 15.68C21.5109 15.2362 23.0452 14.6218 24.5 13.8475C24.6319 13.7771 24.7792 13.7402 24.9287 13.7402C25.0783 13.7402 25.2256 13.7771 25.3575 13.8475C26.8145 14.6233 28.3514 15.2386 29.9412 15.6825C31.5402 16.1274 33.1811 16.4043 34.8375 16.5088C34.9571 16.5081 35.0757 16.5311 35.1864 16.5766C35.2971 16.622 35.3977 16.6888 35.4824 16.7733C35.5672 16.8578 35.6343 16.9582 35.68 17.0688C35.7257 17.1794 35.7491 17.2979 35.7487 17.4175V23.4388V23.4463C35.7113 27.2338 34.8237 30.3075 33.0662 32.7438C31.3088 35.18 28.6963 36.9525 25.225 38.125C25.0361 38.1887 24.8314 38.1887 24.6425 38.125C21.1712 36.9513 18.5637 35.1813 16.8025 32.74C15.0525 30.3225 14.17 27.2763 14.1213 23.5275C14.1193 23.4967 14.1193 23.4658 14.1213 23.435V17.415C14.1215 17.1837 14.2099 16.9611 14.3685 16.7927C14.5272 16.6243 14.7441 16.5228 14.975 16.5088C16.6504 16.4078 18.3105 16.13 19.9275 15.68H19.9237ZM24.9338 15.665C27.7436 17.088 30.7973 17.9664 33.9338 18.2538V23.4363C33.9 26.8325 33.125 29.5613 31.5925 31.6863C30.1112 33.74 27.895 35.2613 24.9312 36.3113C21.9675 35.2625 19.7513 33.7413 18.27 31.6863C16.7638 29.6 15.9312 26.78 15.9312 23.4363V18.25C19.0677 17.9626 22.1214 17.0843 24.9312 15.6613L24.9338 15.665ZM20.2563 50.1888C20.0209 50.18 19.7981 50.0804 19.6347 49.9108C19.4713 49.7412 19.38 49.5149 19.38 49.2794C19.38 49.0439 19.4713 48.8175 19.6347 48.648C19.7981 48.4784 20.0209 48.3787 20.2563 48.37H33.3237C33.5591 48.3787 33.7819 48.4784 33.9453 48.648C34.1087 48.8175 34.2 49.0439 34.2 49.2794C34.2 49.5149 34.1087 49.7412 33.9453 49.9108C33.7819 50.0804 33.5591 50.18 33.3237 50.1888H20.2563ZM15.3912 38.5713L12.7212 41.4463L11.8325 40.465C11.6692 40.2967 11.4468 40.1983 11.2124 40.1907C10.9779 40.1831 10.7497 40.2668 10.5757 40.4242C10.4018 40.5816 10.2958 40.8004 10.28 41.0344C10.2643 41.2685 10.34 41.4995 10.4913 41.6788L12 43.345C12.0809 43.4477 12.1832 43.5316 12.2996 43.591C12.416 43.6505 12.5439 43.684 12.6746 43.6894C12.8052 43.6947 12.9354 43.6717 13.0563 43.622C13.1772 43.5723 13.2859 43.497 13.375 43.4013L16.7162 39.8075C16.8021 39.7213 16.8698 39.6186 16.9152 39.5057C16.9605 39.3927 16.9827 39.2718 16.9804 39.1501C16.9781 39.0284 16.9514 38.9084 16.9017 38.7973C16.8521 38.6861 16.7806 38.5861 16.6916 38.5032C16.6025 38.4202 16.4976 38.356 16.3833 38.3144C16.2689 38.2728 16.1473 38.2547 16.0257 38.261C15.9042 38.2674 15.7851 38.2981 15.6757 38.3514C15.5663 38.4047 15.4687 38.4795 15.3888 38.5713H15.3912ZM38.375 58.6788H4.9625C4.6599 58.6775 4.37006 58.5567 4.15608 58.3427C3.94211 58.1287 3.82132 57.8389 3.82 57.5363V9.20252C3.82132 8.89992 3.94211 8.61008 4.15608 8.3961C4.37006 8.18213 4.6599 8.06134 4.9625 8.06002H16.2412V9.99127H6.65875C6.41773 9.99127 6.18659 10.087 6.01617 10.2574C5.84574 10.4279 5.75 10.659 5.75 10.9V55.8388C5.74984 55.9583 5.77321 56.0766 5.81879 56.1871C5.86437 56.2976 5.93126 56.398 6.01565 56.4826C6.10003 56.5672 6.20026 56.6344 6.3106 56.6803C6.42095 56.7262 6.53925 56.7499 6.65875 56.75H31.9613C32.0205 56.9315 32.1355 57.0896 32.29 57.2019C32.4444 57.3141 32.6303 57.3747 32.8213 57.375H37.625L38.375 58.6788ZM42.3037 44.75C43.224 45.6701 44.3965 46.2967 45.6728 46.5505C46.9492 46.8043 48.2722 46.674 49.4744 46.1759C50.6767 45.6779 51.7043 44.8345 52.4273 43.7524C53.1503 42.6704 53.5362 41.3983 53.5362 40.0969C53.5362 38.7955 53.1503 37.5234 52.4273 36.4413C51.7043 35.3593 50.6767 34.5159 49.4744 34.0179C48.2722 33.5198 46.9492 33.3894 45.6728 33.6433C44.3965 33.8971 43.224 34.5236 42.3037 35.4438C41.0702 36.6781 40.3772 38.3518 40.3772 40.0969C40.3772 41.842 41.0702 43.5157 42.3037 44.75ZM46.9562 48.5C45.2951 48.5 43.6713 48.0074 42.2902 47.0846C40.909 46.1617 39.8325 44.85 39.1968 43.3153C38.5611 41.7807 38.3948 40.0919 38.7189 38.4628C39.0429 36.8336 39.8428 35.337 41.0174 34.1625C42.192 32.9879 43.6885 32.188 45.3177 31.8639C46.9469 31.5398 48.6356 31.7062 50.1703 32.3418C51.705 32.9775 53.0167 34.054 53.9396 35.4352C54.8624 36.8163 55.355 38.4402 55.355 40.1013C55.355 42.3288 54.4701 44.465 52.8951 46.0401C51.32 47.6152 49.1837 48.5 46.9562 48.5ZM47.9375 28.1525C47.5625 27.8375 47.2038 27.5425 46.9562 27.5338C46.4325 27.5338 45.5163 28.845 44.3662 29.115C43.2162 29.385 41.805 28.6225 41.4275 28.8075C41.05 28.9925 40.8025 30.5675 39.8988 31.2938C38.995 32.02 37.4087 31.9188 37.1488 32.24C36.8888 32.5613 37.3275 34.0963 36.8175 35.1375C36.3075 36.1788 34.8262 36.7713 34.7212 37.2175C34.6162 37.6638 35.6738 38.9063 35.6738 40.1013C35.6738 41.2963 34.6162 42.5338 34.7212 42.985C34.8262 43.4363 36.3013 44.0138 36.8162 45.0663C37.3312 46.1188 36.8875 47.6375 37.1488 47.9625C37.41 48.2875 39.015 48.2 39.8988 48.91C40.8037 49.635 41.0513 51.2113 41.4275 51.395C41.8038 51.5788 43.235 50.8225 44.3662 51.0888C45.4975 51.355 46.4287 52.6688 46.9562 52.6688C47.5012 52.6563 48.4 51.3575 49.5475 51.0888C50.695 50.82 52.1088 51.58 52.4863 51.395C52.8638 51.21 53.1112 49.635 54.015 48.91C54.8988 48.2 56.515 48.275 56.765 47.9625C57.015 47.65 56.5863 46.1075 57.0962 45.0663C57.6062 44.025 59.0875 43.4325 59.1925 42.985C59.2975 42.5375 58.24 41.295 58.24 40.1013C58.24 38.9075 59.2975 37.6688 59.1925 37.2175C59.0875 36.7663 57.6125 36.1888 57.0962 35.1375C56.58 34.0863 57.0262 32.5663 56.765 32.24C56.5037 31.9138 54.9175 32.0188 54.015 31.2938C53.1125 30.5688 52.8625 28.9925 52.4863 28.8075C52.11 28.6225 50.6787 29.38 49.5475 29.115C48.9225 28.9675 48.43 28.5625 47.9375 28.1525ZM44.1162 27.2775C44.6237 27.0113 45.2612 26.26 46.0475 25.9113V9.20252C46.0459 8.90002 45.925 8.61037 45.7111 8.39646C45.4972 8.18256 45.2075 8.06166 44.905 8.06002H33.625V9.99127H43.2062C43.3256 9.99111 43.4439 10.0145 43.5542 10.0601C43.6645 10.1057 43.7648 10.1727 43.8492 10.2571C43.9336 10.3415 44.0005 10.4417 44.0462 10.5521C44.0918 10.6624 44.1152 10.7806 44.115 10.9V27.275L44.1162 27.2775ZM35.9188 49.2888C34.7938 48.2225 35.4775 46.4388 35.1888 45.85C34.9212 45.3038 33.2687 44.7375 32.9512 43.3863C32.6337 42.035 33.855 40.8038 33.855 40.09C33.855 39.3763 32.635 38.1475 32.9512 36.795C33.2675 35.4425 34.9212 34.8763 35.1888 34.33C35.4563 33.7838 34.8812 32.155 35.7337 31.0925C36.5863 30.03 38.2988 30.2413 38.7625 29.8688C39.405 29.3525 39.4475 26.4725 42.2988 27.0363V11.8088H33.625V11.9063C33.6247 12.1474 33.5286 12.3785 33.358 12.5489C33.1874 12.7193 32.9561 12.815 32.715 12.815H17.15C16.9091 12.8147 16.6781 12.7188 16.5078 12.5485C16.3374 12.3781 16.2416 12.1472 16.2412 11.9063V11.8088H7.56875V54.9338H32.6625L35.9188 49.2938V49.2888ZM44.375 53.0763C43.8937 52.7238 43.7325 52.7938 42.9137 53C42.15 53.1925 41.3925 53.3825 40.6325 53.01C39.395 52.4038 39.2262 50.6838 38.7575 50.3113C38.5675 50.16 37.9888 50.0713 37.5962 49.9963L34.3838 55.5588H38.1338C38.2926 55.5588 38.4487 55.6006 38.5862 55.68C38.7238 55.7594 38.8381 55.8737 38.9175 56.0113L40.7925 59.2613L44.375 53.0763ZM46.0475 54.2775V57.5363C46.0459 57.8388 45.925 58.1284 45.7111 58.3423C45.4972 58.5562 45.2075 58.6771 44.905 58.6788H43.2313L45.8338 54.1713C45.9038 54.2088 45.975 54.245 46.0475 54.2775ZM56.3125 50L59.5238 55.5625H55.7738C55.615 55.5629 55.4591 55.6049 55.3215 55.6843C55.184 55.7637 55.0697 55.8777 54.99 56.015L53.115 59.265L49.545 53.0825C49.6692 52.9807 49.8112 52.9028 49.9637 52.8525C50.595 52.7038 52.05 53.6225 53.2863 53.0163C54.0538 52.6413 54.365 51.9175 54.6738 51.1975C55.13 50.1388 55.0737 50.2413 56.3175 50.0025L56.3125 50ZM47.8662 25.9038C48.715 26.2788 49.5037 27.2275 49.9588 27.335C50.59 27.4825 52.045 26.5638 53.2812 27.17C54.5175 27.7763 54.6875 29.5 55.1512 29.875C55.615 30.25 57.3275 30.0375 58.1787 31.0988C59.03 32.16 58.455 33.7875 58.7238 34.3363C58.9925 34.885 60.645 35.4488 60.9613 36.8013C61.2775 38.1538 60.0588 39.3825 60.0588 40.0963C60.0588 40.81 61.2788 42.04 60.9613 43.3925C60.6437 44.745 58.9913 45.31 58.7238 45.8563C58.4338 46.4488 59.1162 48.2313 57.995 49.295L61.875 56.0125C61.9552 56.1502 61.9977 56.3066 61.9982 56.4659C61.9987 56.6253 61.9572 56.7819 61.8778 56.9201C61.7985 57.0583 61.6841 57.1731 61.5462 57.253C61.4083 57.3328 61.2518 57.3749 61.0925 57.375H56.295L53.8937 61.5338C53.8133 61.6719 53.6978 61.7864 53.559 61.8655C53.4201 61.9447 53.2628 61.9858 53.103 61.9847C52.9431 61.9835 52.7864 61.9402 52.6487 61.859C52.511 61.7779 52.3972 61.6618 52.3187 61.5225L48.0788 54.1788C48.0088 54.2163 47.9375 54.2513 47.8662 54.2838V57.5425C47.8636 58.3267 47.5507 59.078 46.9958 59.6322C46.4409 60.1864 45.6892 60.4984 44.905 60.5H42.1813L41.6162 61.4788C41.5437 61.6259 41.4325 61.7506 41.2946 61.8396C41.1567 61.9285 40.9972 61.9783 40.8332 61.9837C40.6692 61.9891 40.5068 61.9498 40.3634 61.8702C40.22 61.7905 40.1008 61.6734 40.0187 61.5313L39.4238 60.5H4.9625C4.17688 60.499 3.42375 60.1864 2.86835 59.6308C2.31295 59.0751 2.00066 58.3219 2 57.5363V9.20252C2.00165 8.41755 2.31438 7.66525 2.86967 7.11043C3.42496 6.55561 4.17753 6.24351 4.9625 6.24252H16.2412V6.14502C16.2416 5.90411 16.3374 5.67315 16.5078 5.5028C16.6781 5.33245 16.9091 5.2366 17.15 5.23627H20.375C20.1775 4.79502 20 4.47502 20 3.97877C20.0023 3.45912 20.2101 2.96149 20.578 2.59451C20.9459 2.22753 21.4441 2.02101 21.9638 2.02002H27.9125C28.241 2.01981 28.5643 2.10222 28.8526 2.25967C29.1409 2.41711 29.385 2.64454 29.5623 2.92102C29.7397 3.19751 29.8447 3.51416 29.8677 3.84185C29.8907 4.16955 29.8309 4.49775 29.6938 4.79627L29.4925 5.23627H32.7212C32.9613 5.23792 33.191 5.33435 33.3602 5.50456C33.5295 5.67477 33.6247 5.90497 33.625 6.14502V6.24252H44.9038C45.6884 6.24417 46.4405 6.55652 46.9954 7.11123C47.5504 7.66595 47.863 8.41787 47.865 9.20252V25.9038H47.8662ZM49.5 37.125C49.6638 36.949 49.8908 36.8452 50.131 36.8365C50.3713 36.8279 50.6052 36.915 50.7812 37.0788C50.9573 37.2425 51.0611 37.4695 51.0697 37.7098C51.0784 37.9501 50.9913 38.184 50.8275 38.36L46.4525 43.0663C46.3634 43.162 46.2547 43.2373 46.1338 43.287C46.0129 43.3367 45.8827 43.3597 45.7521 43.3543C45.6214 43.349 45.4935 43.3155 45.3771 43.256C45.2607 43.1966 45.1585 43.1127 45.0775 43.01L43.0875 40.81C43.0054 40.7224 42.9415 40.6192 42.8997 40.5066C42.8578 40.394 42.8388 40.2742 42.8437 40.1542C42.8486 40.0342 42.8774 39.9163 42.9283 39.8075C42.9792 39.6988 43.0513 39.6012 43.1403 39.5205C43.2294 39.4399 43.3336 39.3778 43.4468 39.3378C43.5601 39.2978 43.6802 39.2808 43.8002 39.2878C43.9201 39.2947 44.0374 39.3254 44.1453 39.3782C44.2533 39.4309 44.3496 39.5047 44.4287 39.595L45.7975 41.1075L49.5 37.125Z" fill="#ED9A4C"/>
</svg>
