<svg width="514" height="514" viewBox="0 0 514 514" fill="none" xmlns="http://www.w3.org/2000/svg">
<g clip-path="url(#clip0_16_5)">
<path d="M358.603 264.641C367.273 257.099 372.442 252.733 383.767 242.967C397.483 231.409 409.313 219.062 418.379 208.7C399.664 137.555 335.159 85.0986 258.438 85.0986C167.07 85.0986 92.9976 159.486 92.9976 251.249C92.9976 294.947 109.819 334.679 137.283 364.341L161.368 360.709L270.046 324.574C270.046 324.574 350.117 271.439 358.603 264.641ZM423.783 247.435L416.349 253.967L376.035 290.824L273.758 362.747L254.729 372.072C220.599 387.923 194.165 395.401 181.66 398.409C204.613 410.516 230.722 417.397 258.442 417.397C349.81 417.397 423.882 343.01 423.882 251.249C423.882 249.971 423.814 248.71 423.787 247.439L423.783 247.435Z" fill="#E6EEF4"/>
<path style="mix-blend-mode:screen" d="M380.503 216.712C379.745 225.988 377.743 234.905 374.651 243.31C373.116 247.512 371.314 251.579 369.243 255.492L352.398 269.998C355.936 267.674 359.341 265.327 362.634 262.98C364.036 261.952 365.415 260.9 366.797 259.896C347.102 293.443 308.689 315.974 264.868 317.314C264.622 317.314 264.377 317.334 264.135 317.334C259.306 317.447 254.386 317.314 249.446 316.909C241.301 316.238 233.423 314.874 225.834 312.862C170.596 298.268 131.985 250.171 136.346 196.639C141.307 135.756 199.974 90.8974 267.407 96.4418C334.839 101.962 385.471 155.827 380.506 216.709L380.503 216.712Z" fill="url(#paint0_linear_16_5)"/>
<path d="M361.861 263.52C361.827 263.544 361.783 263.575 361.739 263.606C361.814 263.551 361.861 263.52 361.861 263.52ZM357.535 224.73C346.685 227.523 343.068 218.863 343.068 218.863L340.007 207.829L312.328 239.4C312.328 239.4 306.207 244.43 300.506 240.657C294.804 236.885 297.029 228.643 297.029 228.643L308.712 162.57C308.712 162.57 301.758 166.202 294.108 169.834C286.458 173.466 282.285 166.62 282.285 166.62L259.752 123.594C259.752 123.594 243.06 157.539 239.027 164.944C234.994 172.349 227.204 169.553 227.204 169.553L211.488 161.73L223.451 232.413C221.783 247.638 208.523 239.91 208.523 239.91L180.149 206.757C180.149 206.757 179.405 211.225 177.18 218.678C174.955 226.132 166.053 225.384 166.053 225.384L133.414 218.678C133.414 218.678 141.759 247.733 143.984 257.044C146.209 266.354 138.791 268.965 138.791 268.965L129.148 273.249C129.148 273.249 186.082 321.49 192.203 327.264C198.325 333.038 194.428 342.352 194.428 342.352C216.19 337.105 237.188 329.477 256.323 321.082C263.348 318.001 270.118 314.815 276.587 311.604C281.579 309.52 286.264 307.447 290.658 305.405C302.734 299.792 312.615 294.391 320.586 289.526C329.484 284.882 341.894 276.915 350.776 271.021C353.908 269.25 356.112 267.636 357.484 266.519C359.422 265.203 360.817 264.243 361.459 263.801C360.916 264.168 360.06 264.692 359.227 264.973L359.238 264.963C359.207 264.977 359.183 264.983 359.156 264.997C359.009 265.042 358.866 265.083 358.726 265.11C358.122 265.124 358.497 264.195 358.497 264.195L381.047 241.216L386.613 218.305C386.613 218.305 368.392 221.937 357.542 224.73H357.535Z" fill="#B21010"/>
<path fill-rule="evenodd" clip-rule="evenodd" d="M189.08 343.751L191.076 339.31C191.076 339.31 193.202 333.721 189.08 329.996C184.959 326.271 121.532 272.071 121.532 272.071L134.883 265.738C134.883 265.738 140.912 263.689 138.776 255.588C136.644 247.488 127.462 212.936 127.462 212.936L164.923 221.225C164.923 221.225 171.321 222.438 172.713 218.433C174.105 214.43 177.998 198.41 177.998 198.41L211.102 237.245C211.102 237.245 216.295 239.945 218.799 234.73C220.748 228.678 205.632 154.733 205.632 154.733L226.497 166.004C226.497 166.004 232.062 167.683 234.563 164.143C237.068 160.603 259.785 115.436 259.785 115.436L285.655 164.606C285.655 164.606 288.713 168.053 294.186 165.445C299.659 162.838 314.122 154.456 314.122 154.456L300.211 229.597C300.211 229.597 299.955 234.38 301.556 236.478C303.156 238.571 308.093 238.434 311.71 234.103C315.327 229.771 341.477 199.041 341.477 199.041L346.414 216.363C346.414 216.363 347.874 222.37 354.064 221.112C360.253 219.855 391.829 213.011 391.829 213.011L383.762 242.975L352.331 270.076C352.331 270.076 348.755 272.533 342.238 276.601C318.974 291.13 258.253 326.247 189.074 343.754L189.08 343.751Z" fill="url(#paint1_linear_16_5)"/>
<path d="M361.816 263.926C361.762 263.964 361.7 264.009 361.635 264.05C361.707 264.002 361.765 263.961 361.816 263.926ZM357.657 225.02C346.807 227.812 343.19 219.153 343.19 219.153L340.129 208.119L312.451 239.689C312.451 239.689 306.329 244.72 300.628 240.947C294.926 237.174 297.151 228.933 297.151 228.933L308.834 162.859C308.834 162.859 301.88 166.491 294.23 170.124C286.58 173.756 282.407 166.909 282.407 166.909L259.874 123.884C259.874 123.884 243.182 157.829 239.149 165.234C235.116 172.639 227.326 169.843 227.326 169.843L211.61 162.02L223.573 232.702C221.905 247.927 208.645 240.2 208.645 240.2L180.271 207.046C180.271 207.046 179.527 211.515 177.302 218.968C175.077 226.421 166.175 225.674 166.175 225.674L133.536 218.968C133.536 218.968 141.881 248.023 144.106 257.333C146.331 266.644 138.913 269.255 138.913 269.255L129.271 273.538C129.271 273.538 186.204 321.779 192.325 327.553C198.447 333.327 194.55 342.641 194.55 342.641C216.312 337.395 237.31 329.767 256.445 321.375C263.47 318.294 270.24 315.108 276.709 311.897C281.701 309.813 286.386 307.74 290.781 305.698C302.856 300.085 312.737 294.684 320.708 289.815C329.606 285.172 342.016 277.205 350.898 271.311C354.03 269.539 356.234 267.925 357.606 266.808C359.544 265.492 360.939 264.533 361.581 264.091C361.038 264.457 360.182 264.982 359.349 265.263L359.36 265.252C359.329 265.266 359.305 265.273 359.278 265.287C359.131 265.331 358.988 265.372 358.848 265.4C358.244 265.414 358.619 264.485 358.619 264.485L381.17 241.505L386.735 218.594C386.735 218.594 368.514 222.227 357.664 225.02H357.657ZM361.983 263.81C361.946 263.837 361.895 263.872 361.844 263.909C361.932 263.848 361.983 263.81 361.983 263.81Z" fill="url(#paint2_linear_16_5)"/>
<g style="mix-blend-mode:screen" opacity="0.4">
<path d="M377.967 215.993C378.056 225.2 376.988 234.363 374.65 243.304C373.76 246.792 372.668 250.256 371.378 253.652L369.242 255.485L352.397 269.991C352.353 270.035 352.329 270.059 352.284 270.08C352.172 270.169 352.063 270.237 351.95 270.303C351.861 270.371 351.749 270.436 351.66 270.505C351.414 270.662 351.169 270.841 350.902 270.995C350.902 271.019 350.879 271.019 350.858 271.039C350.056 271.598 348.923 272.335 347.477 273.273C345.764 274.37 344.027 275.487 342.246 276.58C336.616 280.089 328.826 284.784 319.255 290.171C318.454 290.64 317.652 291.085 316.83 291.51C316.007 291.98 315.181 292.425 314.315 292.895C300.605 300.427 283.78 309.011 264.864 317.303C262.793 318.218 260.681 319.136 258.545 320.031C258.343 320.007 258.122 319.986 257.92 319.962C247.217 319.003 236.421 316.656 225.83 312.855C218.197 310.152 210.673 306.687 203.351 302.442C168.968 282.481 146.936 250.006 140.726 215.856L164.918 221.218C164.918 221.218 171.325 222.425 172.707 218.426C174.11 214.423 178.003 198.4 178.003 198.4L211.096 237.245C211.096 237.245 216.303 239.928 218.797 234.72C220.756 228.661 205.644 154.727 205.644 154.727L226.499 165.99C226.499 165.99 232.064 167.666 234.578 164.136C237.073 160.583 259.793 115.436 259.793 115.436L285.653 164.606C285.653 164.606 288.724 168.046 294.201 165.432C299.677 162.817 314.141 154.435 314.141 154.435L300.23 229.576C300.23 229.576 299.964 234.36 301.564 236.46C303.168 238.561 308.108 238.427 311.711 234.093C315.338 229.758 341.489 199.024 341.489 199.024L346.429 216.346C346.429 216.346 347.876 222.36 354.062 221.105C357.488 220.413 368.638 217.997 377.963 215.986L377.967 215.993Z" fill="url(#paint3_radial_16_5)"/>
</g>
<path d="M415.827 220.053C360.846 289.745 213.991 371.255 109.525 371.74C49.3026 371.74 37.2101 315.712 64.5451 284.659C64.5451 284.659 35.0627 390.953 215.326 334.341C225.443 331.041 238.696 326.307 254.036 319.863C255.798 319.125 257.595 318.369 259.434 317.571C272.781 311.808 287.525 304.783 303.058 296.359C303.794 295.972 304.509 295.565 305.244 295.157C305.959 294.788 306.656 294.401 307.353 293.994C310.254 292.402 313.158 290.753 316.097 289.063C319.986 286.772 323.72 284.484 327.338 282.193C328.887 281.241 330.396 280.271 331.885 279.321C332.873 278.661 333.858 278.021 334.825 277.381C334.842 277.361 334.863 277.361 334.863 277.343C335.094 277.206 335.308 277.051 335.522 276.917C335.599 276.858 335.697 276.801 335.774 276.742C335.872 276.682 335.967 276.626 336.064 276.548C336.103 276.527 336.124 276.51 336.162 276.471C339.238 274.454 342.198 272.415 345.06 270.377C346.279 269.484 347.478 268.571 348.679 267.699C480.48 169.032 424.767 131.886 422.812 130.624C424.63 131.401 469.726 151.72 415.827 220.053Z" fill="url(#paint4_linear_16_5)"/>
<path d="M474.996 166.344C474.996 166.344 431.974 257.607 304.004 329.503C184.937 393.575 77.3716 400.652 77.3716 400.652C77.3716 400.652 217.577 405.867 329.967 331.364C438.644 259.471 474.993 166.344 474.993 166.344H474.996Z" fill="url(#paint5_linear_16_5)"/>
<path d="M258.439 88.6087C334.358 88.6087 398.044 141.106 415.534 211.915C424.068 202.725 431.956 193.267 437.736 184.44C410.73 111.311 340.653 59.1836 258.439 59.1836C152.853 59.1836 67.2578 145.146 67.2578 251.185C67.2578 289.499 78.4869 325.144 97.748 355.097C107.916 356.087 119.759 356.012 133.554 354.566C110.455 326.47 96.5606 290.466 96.5606 251.185C96.5606 161.399 169.036 88.6121 258.439 88.6121V88.6087ZM446.239 215.318C445.574 216.12 432.4 231.92 420.154 244.808C420.236 246.929 420.314 249.044 420.314 251.185C420.314 340.972 347.842 413.755 258.439 413.755C232.873 413.755 208.705 407.782 187.206 397.183C180.999 398.702 166.255 401.998 144.087 405.068C175.976 429.007 215.56 443.184 258.436 443.184C364.022 443.184 449.617 357.225 449.617 251.182C449.617 238.921 448.426 226.941 446.236 215.318H446.239Z" fill="url(#paint6_linear_16_5)"/>
<path d="M253.997 413.69C255.474 413.732 256.955 413.756 258.44 413.756C260.726 413.756 262.995 413.677 265.257 413.584L263.568 368.694C258.955 369.681 255.618 371.741 255.618 371.741L253.994 413.69H253.997Z" fill="#B92525"/>
<path d="M327.861 336.157C317.479 342.781 306.884 348.74 296.204 354.11L296.191 354.123L334.389 357.927L327.865 336.154H327.861V336.157Z" fill="url(#paint7_linear_16_5)"/>
<path d="M300.049 352.151L330.73 355.207L325.472 337.656C317.105 342.899 308.609 347.723 300.049 352.154V352.151Z" fill="url(#paint8_linear_16_5)"/>
<g style="mix-blend-mode:screen" opacity="0.8">
<path d="M346.424 216.356L341.486 199.034C341.486 199.034 315.336 229.765 311.72 234.096C308.103 238.427 303.165 238.564 301.565 236.471C299.965 234.377 300.221 229.59 300.221 229.59L314.132 154.449C314.132 154.449 299.665 162.831 294.195 165.438C288.722 168.046 285.665 164.599 285.665 164.599L271.689 138.035C264.155 137.237 256.43 137.055 248.59 137.538C242.461 149.549 235.856 162.317 234.573 164.133C232.068 167.673 226.507 165.994 226.507 165.994L205.642 154.723C205.642 154.723 220.757 228.668 218.809 234.72C216.305 239.935 211.111 237.235 211.111 237.235L178.008 198.4C178.008 198.4 174.114 214.42 172.722 218.422C171.33 222.428 164.933 221.215 164.933 221.215L135.736 214.756C134.019 219.039 132.6 223.429 131.45 227.9C134.21 238.294 137.595 251.055 138.786 255.578C140.918 263.679 134.893 265.728 134.893 265.728L129.198 268.428C129.792 272.619 130.614 276.728 131.689 280.737C149.776 296.202 186.005 327.199 189.09 329.985C193.212 333.71 191.086 339.299 191.086 339.299L189.09 343.74C189.547 343.624 189.998 343.5 190.455 343.384C203.584 291.534 260.068 251.295 329.131 248.985C344.155 248.481 358.693 249.831 372.437 252.741L379.852 246.346C379.783 243.19 379.582 240.014 379.217 236.827C378.422 229.861 376.91 223.141 374.819 216.678C366.282 218.518 357.12 220.482 354.08 221.098C347.891 222.356 346.43 216.349 346.43 216.349L346.424 216.356Z" fill="url(#paint9_radial_16_5)"/>
</g>
</g>
<path d="M256.703 513C398.088 513 512.703 398.385 512.703 257C512.703 115.615 398.088 1 256.703 1C115.319 1 0.703491 115.615 0.703491 257C0.703491 398.385 115.319 513 256.703 513Z" stroke="#A61620" stroke-width="1.16897" stroke-dasharray="2.34 2.34"/>
<defs>
<linearGradient id="paint0_linear_16_5" x1="282.297" y1="116.046" x2="239.011" y2="278.98" gradientUnits="userSpaceOnUse">
<stop stop-color="white"/>
<stop offset="0.03" stop-color="#F4F4F4"/>
<stop offset="0.14" stop-color="#BBBBBB"/>
<stop offset="0.26" stop-color="#898989"/>
<stop offset="0.38" stop-color="#5F5F5F"/>
<stop offset="0.5" stop-color="#3C3C3C"/>
<stop offset="0.62" stop-color="#222222"/>
<stop offset="0.74" stop-color="#0F0F0F"/>
<stop offset="0.87" stop-color="#030303"/>
<stop offset="1"/>
</linearGradient>
<linearGradient id="paint1_linear_16_5" x1="198.3" y1="286.309" x2="312.949" y2="170.576" gradientUnits="userSpaceOnUse">
<stop stop-color="#C10E24"/>
<stop offset="0.67" stop-color="#EB1D24"/>
<stop offset="1" stop-color="#C61024"/>
</linearGradient>
<linearGradient id="paint2_linear_16_5" x1="129.264" y1="233.261" x2="386.728" y2="233.261" gradientUnits="userSpaceOnUse">
<stop stop-color="#C10E24"/>
<stop offset="0.67" stop-color="#EB1D24"/>
<stop offset="1" stop-color="#C61024"/>
</linearGradient>
<radialGradient id="paint3_radial_16_5" cx="0" cy="0" r="1" gradientUnits="userSpaceOnUse" gradientTransform="translate(268.143 344.72) scale(208.62 209.516)">
<stop stop-color="white"/>
<stop offset="0.03" stop-color="#F4F4F4"/>
<stop offset="0.14" stop-color="#BBBBBB"/>
<stop offset="0.26" stop-color="#898989"/>
<stop offset="0.38" stop-color="#5F5F5F"/>
<stop offset="0.5" stop-color="#3C3C3C"/>
<stop offset="0.62" stop-color="#222222"/>
<stop offset="0.74" stop-color="#0F0F0F"/>
<stop offset="0.87" stop-color="#030303"/>
<stop offset="1"/>
</radialGradient>
<linearGradient id="paint4_linear_16_5" x1="50.6759" y1="251.182" x2="442.204" y2="251.182" gradientUnits="userSpaceOnUse">
<stop stop-color="#C10E24"/>
<stop offset="0.67" stop-color="#EB1D24"/>
<stop offset="1" stop-color="#C61024"/>
</linearGradient>
<linearGradient id="paint5_linear_16_5" x1="77.375" y1="283.537" x2="474.996" y2="283.537" gradientUnits="userSpaceOnUse">
<stop stop-color="#C10E24"/>
<stop offset="0.67" stop-color="#EB1D24"/>
<stop offset="1" stop-color="#C61024"/>
</linearGradient>
<linearGradient id="paint6_linear_16_5" x1="118.336" y1="426.859" x2="388.368" y2="91.1557" gradientUnits="userSpaceOnUse">
<stop stop-color="#C10E24"/>
<stop offset="0.67" stop-color="#EB1D24"/>
<stop offset="1" stop-color="#C61024"/>
</linearGradient>
<linearGradient id="paint7_linear_16_5" x1="313.92" y1="346.126" x2="377.133" y2="378.773" gradientUnits="userSpaceOnUse">
<stop stop-color="#C10E24"/>
<stop offset="0.67" stop-color="#EB1D24"/>
<stop offset="1" stop-color="#C61024"/>
</linearGradient>
<linearGradient id="paint8_linear_16_5" x1="307.562" y1="341.477" x2="332.76" y2="357.942" gradientUnits="userSpaceOnUse">
<stop stop-color="#C10E24"/>
<stop offset="0.67" stop-color="#EB1D24"/>
<stop offset="1" stop-color="#C61024"/>
</linearGradient>
<radialGradient id="paint9_radial_16_5" cx="0" cy="0" r="1" gradientUnits="userSpaceOnUse" gradientTransform="translate(259.986 313.726) scale(198.278 199.129)">
<stop stop-color="white"/>
<stop offset="0.03" stop-color="#F4F4F4"/>
<stop offset="0.14" stop-color="#BBBBBB"/>
<stop offset="0.26" stop-color="#898989"/>
<stop offset="0.38" stop-color="#5F5F5F"/>
<stop offset="0.5" stop-color="#3C3C3C"/>
<stop offset="0.62" stop-color="#222222"/>
<stop offset="0.74" stop-color="#0F0F0F"/>
<stop offset="0.87" stop-color="#030303"/>
<stop offset="1"/>
</radialGradient>
<clipPath id="clip0_16_5">
<rect width="453.818" height="384" fill="white" transform="translate(23.9789 59.1816)"/>
</clipPath>
</defs>
</svg>
